STARTFONT 2.1
COMMENT
COMMENT Converted from OpenType font "JF-Dot-Shinonome14B.ttf" by "otf2bdf 3.0".
COMMENT
FONT -FreeType-JF Dot Shinonome Gothic 14-Bold-R-Normal--17-120-100-100-P-142-ISO10646-1
SIZE 12 100 100
FONTBOUNDINGBOX 14 14 0 -2
STARTPROPERTIES 19
FOUNDRY "FreeType"
FAMILY_NAME "JF Dot Shinonome Gothic 14"
WEIGHT_NAME "Bold"
SLANT "R"
SETWIDTH_NAME "Normal"
ADD_STYLE_NAME ""
PIXEL_SIZE 17
POINT_SIZE 120
RESOLUTION_X 100
RESOLUTION_Y 100
SPACING "P"
AVERAGE_WIDTH 142
CHARSET_REGISTRY "ISO10646"
CHARSET_ENCODING "1"
FONT_ASCENT 12
FONT_DESCENT 1
COPYRIGHT "-FreeType-JF Dot Shinonome Gothic 14-Bold-R-Normal--17-120-100-100-P-142-ISO10646-1"
_OTF_FONTFILE "JF-Dot-Shinonome14B.ttf"
_OTF_PSNAME "JF-Dot-Shinonome-14-Bold"
ENDPROPERTIES
CHARS 7146
STARTCHAR 0020
ENCODING 32
SWIDTH 420 0
DWIDTH 7 0
BBX 7 14 0 -2
BITMAP
00
00
00
00
00
00
00
00
00
00
00
00
00
00
ENDCHAR
STARTCHAR 0021
ENCODING 33
SWIDTH 420 0
DWIDTH 7 0
BBX 7 14 0 -2
BITMAP
00
00
18
18
18
18
18
18
18
00
18
18
00
00
ENDCHAR
STARTCHAR 0022
ENCODING 34
SWIDTH 420 0
DWIDTH 7 0
BBX 7 14 0 -2
BITMAP
00
76
36
36
6C
00
00
00
00
00
00
00
00
00
ENDCHAR
STARTCHAR 0023
ENCODING 35
SWIDTH 420 0
DWIDTH 7 0
BBX 7 14 0 -2
BITMAP
00
00
34
34
34
7E
34
34
7E
34
34
34
00
00
ENDCHAR
STARTCHAR 0024
ENCODING 36
SWIDTH 420 0
DWIDTH 7 0
BBX 7 14 0 -2
BITMAP
00
00
18
7C
DA
DA
68
3C
1A
DA
DA
7C
18
00
ENDCHAR
STARTCHAR 0025
ENCODING 37
SWIDTH 420 0
DWIDTH 7 0
BBX 7 14 0 -2
BITMAP
00
00
76
DA
DC
78
18
30
3C
76
D6
DC
00
00
ENDCHAR
STARTCHAR 0026
ENCODING 38
SWIDTH 420 0
DWIDTH 7 0
BBX 7 14 0 -2
BITMAP
00
00
38
6C
6C
6C
38
76
DA
CC
DC
76
00
00
ENDCHAR
STARTCHAR 0027
ENCODING 39
SWIDTH 420 0
DWIDTH 7 0
BBX 7 14 0 -2
BITMAP
00
38
18
18
30
00
00
00
00
00
00
00
00
00
ENDCHAR
STARTCHAR 0028
ENCODING 40
SWIDTH 420 0
DWIDTH 7 0
BBX 7 14 0 -2
BITMAP
00
06
0C
18
18
30
30
30
30
30
18
18
0C
06
ENDCHAR
STARTCHAR 0029
ENCODING 41
SWIDTH 420 0
DWIDTH 7 0
BBX 7 14 0 -2
BITMAP
00
60
30
18
18
0C
0C
0C
0C
0C
18
18
30
60
ENDCHAR
STARTCHAR 002A
ENCODING 42
SWIDTH 420 0
DWIDTH 7 0
BBX 7 14 0 -2
BITMAP
00
00
00
00
18
6A
3C
18
3C
6A
18
00
00
00
ENDCHAR
STARTCHAR 002B
ENCODING 43
SWIDTH 420 0
DWIDTH 7 0
BBX 7 14 0 -2
BITMAP
00
00
00
00
18
18
18
7E
18
18
18
00
00
00
ENDCHAR
STARTCHAR 002C
ENCODING 44
SWIDTH 420 0
DWIDTH 7 0
BBX 7 14 0 -2
BITMAP
00
00
00
00
00
00
00
00
00
00
38
18
18
30
ENDCHAR
STARTCHAR 002D
ENCODING 45
SWIDTH 420 0
DWIDTH 7 0
BBX 7 14 0 -2
BITMAP
00
00
00
00
00
00
00
7E
00
00
00
00
00
00
ENDCHAR
STARTCHAR 002E
ENCODING 46
SWIDTH 420 0
DWIDTH 7 0
BBX 7 14 0 -2
BITMAP
00
00
00
00
00
00
00
00
00
00
38
38
00
00
ENDCHAR
STARTCHAR 002F
ENCODING 47
SWIDTH 420 0
DWIDTH 7 0
BBX 7 14 0 -2
BITMAP
00
06
06
0C
0C
18
18
18
30
30
60
60
C0
C0
ENDCHAR
STARTCHAR 0030
ENCODING 48
SWIDTH 420 0
DWIDTH 7 0
BBX 7 14 0 -2
BITMAP
00
00
38
6C
C6
C6
C6
C6
C6
C6
6C
38
00
00
ENDCHAR
STARTCHAR 0031
ENCODING 49
SWIDTH 420 0
DWIDTH 7 0
BBX 7 14 0 -2
BITMAP
00
00
18
38
68
18
18
18
18
18
18
7E
00
00
ENDCHAR
STARTCHAR 0032
ENCODING 50
SWIDTH 420 0
DWIDTH 7 0
BBX 7 14 0 -2
BITMAP
00
00
7C
C6
C6
06
0C
0C
18
30
60
FE
00
00
ENDCHAR
STARTCHAR 0033
ENCODING 51
SWIDTH 420 0
DWIDTH 7 0
BBX 7 14 0 -2
BITMAP
00
00
FE
06
0C
18
3C
06
06
C6
C6
7C
00
00
ENDCHAR
STARTCHAR 0034
ENCODING 52
SWIDTH 420 0
DWIDTH 7 0
BBX 7 14 0 -2
BITMAP
00
00
0C
1C
34
34
6C
6C
CC
FE
0C
0C
00
00
ENDCHAR
STARTCHAR 0035
ENCODING 53
SWIDTH 420 0
DWIDTH 7 0
BBX 7 14 0 -2
BITMAP
00
00
FE
C0
C0
FC
C6
06
06
C6
C6
7C
00
00
ENDCHAR
STARTCHAR 0036
ENCODING 54
SWIDTH 420 0
DWIDTH 7 0
BBX 7 14 0 -2
BITMAP
00
00
3C
60
C0
C0
DC
E6
C6
C6
C6
7C
00
00
ENDCHAR
STARTCHAR 0037
ENCODING 55
SWIDTH 420 0
DWIDTH 7 0
BBX 7 14 0 -2
BITMAP
00
00
FE
06
0C
0C
18
18
30
30
60
60
00
00
ENDCHAR
STARTCHAR 0038
ENCODING 56
SWIDTH 420 0
DWIDTH 7 0
BBX 7 14 0 -2
BITMAP
00
00
7C
C6
C6
6C
38
6C
C6
C6
C6
7C
00
00
ENDCHAR
STARTCHAR 0039
ENCODING 57
SWIDTH 420 0
DWIDTH 7 0
BBX 7 14 0 -2
BITMAP
00
00
7C
C6
C6
C6
CE
7A
06
C6
CC
78
00
00
ENDCHAR
STARTCHAR 003A
ENCODING 58
SWIDTH 420 0
DWIDTH 7 0
BBX 7 14 0 -2
BITMAP
00
00
00
00
00
38
38
00
00
38
38
00
00
00
ENDCHAR
STARTCHAR 003B
ENCODING 59
SWIDTH 420 0
DWIDTH 7 0
BBX 7 14 0 -2
BITMAP
00
00
00
00
00
38
38
00
00
38
18
18
30
00
ENDCHAR
STARTCHAR 003C
ENCODING 60
SWIDTH 420 0
DWIDTH 7 0
BBX 7 14 0 -2
BITMAP
00
00
00
06
0C
18
30
60
30
18
0C
06
00
00
ENDCHAR
STARTCHAR 003D
ENCODING 61
SWIDTH 420 0
DWIDTH 7 0
BBX 7 14 0 -2
BITMAP
00
00
00
00
00
FE
00
00
FE
00
00
00
00
00
ENDCHAR
STARTCHAR 003E
ENCODING 62
SWIDTH 420 0
DWIDTH 7 0
BBX 7 14 0 -2
BITMAP
00
00
00
60
30
18
0C
06
0C
18
30
60
00
00
ENDCHAR
STARTCHAR 003F
ENCODING 63
SWIDTH 420 0
DWIDTH 7 0
BBX 7 14 0 -2
BITMAP
00
00
7C
C6
C6
0C
18
18
18
00
18
18
00
00
ENDCHAR
STARTCHAR 0040
ENCODING 64
SWIDTH 420 0
DWIDTH 7 0
BBX 7 14 0 -2
BITMAP
00
00
3C
66
DE
D6
D6
D6
D6
DE
60
3E
00
00
ENDCHAR
STARTCHAR 0041
ENCODING 65
SWIDTH 420 0
DWIDTH 7 0
BBX 7 14 0 -2
BITMAP
00
00
38
38
6C
6C
6C
7C
C6
C6
C6
C6
00
00
ENDCHAR
STARTCHAR 0042
ENCODING 66
SWIDTH 420 0
DWIDTH 7 0
BBX 7 14 0 -2
BITMAP
00
00
F8
CC
CC
CC
F8
CC
C6
C6
CC
F8
00
00
ENDCHAR
STARTCHAR 0043
ENCODING 67
SWIDTH 420 0
DWIDTH 7 0
BBX 7 14 0 -2
BITMAP
00
00
3C
66
C6
C0
C0
C0
C0
C6
66
3C
00
00
ENDCHAR
STARTCHAR 0044
ENCODING 68
SWIDTH 420 0
DWIDTH 7 0
BBX 7 14 0 -2
BITMAP
00
00
F8
CC
C6
C6
C6
C6
C6
C6
CC
F8
00
00
ENDCHAR
STARTCHAR 0045
ENCODING 69
SWIDTH 420 0
DWIDTH 7 0
BBX 7 14 0 -2
BITMAP
00
00
FE
C0
C0
C0
F8
C0
C0
C0
C0
FE
00
00
ENDCHAR
STARTCHAR 0046
ENCODING 70
SWIDTH 420 0
DWIDTH 7 0
BBX 7 14 0 -2
BITMAP
00
00
FE
C0
C0
C0
F8
C0
C0
C0
C0
C0
00
00
ENDCHAR
STARTCHAR 0047
ENCODING 71
SWIDTH 420 0
DWIDTH 7 0
BBX 7 14 0 -2
BITMAP
00
00
3C
66
C6
C0
C0
DE
C6
C6
6E
3A
00
00
ENDCHAR
STARTCHAR 0048
ENCODING 72
SWIDTH 420 0
DWIDTH 7 0
BBX 7 14 0 -2
BITMAP
00
00
C6
C6
C6
C6
FE
C6
C6
C6
C6
C6
00
00
ENDCHAR
STARTCHAR 0049
ENCODING 73
SWIDTH 420 0
DWIDTH 7 0
BBX 7 14 0 -2
BITMAP
00
00
3C
18
18
18
18
18
18
18
18
3C
00
00
ENDCHAR
STARTCHAR 004A
ENCODING 74
SWIDTH 420 0
DWIDTH 7 0
BBX 7 14 0 -2
BITMAP
00
00
0C
0C
0C
0C
0C
0C
0C
CC
CC
78
00
00
ENDCHAR
STARTCHAR 004B
ENCODING 75
SWIDTH 420 0
DWIDTH 7 0
BBX 7 14 0 -2
BITMAP
00
00
C6
CC
D8
D8
D0
E8
D8
CC
CC
C6
00
00
ENDCHAR
STARTCHAR 004C
ENCODING 76
SWIDTH 420 0
DWIDTH 7 0
BBX 7 14 0 -2
BITMAP
00
00
C0
C0
C0
C0
C0
C0
C0
C0
C0
FE
00
00
ENDCHAR
STARTCHAR 004D
ENCODING 77
SWIDTH 420 0
DWIDTH 7 0
BBX 7 14 0 -2
BITMAP
00
00
C6
EE
EE
DA
DA
C6
C6
C6
C6
C6
00
00
ENDCHAR
STARTCHAR 004E
ENCODING 78
SWIDTH 420 0
DWIDTH 7 0
BBX 7 14 0 -2
BITMAP
00
00
C6
C6
E6
E6
D6
DA
CE
CE
C6
C6
00
00
ENDCHAR
STARTCHAR 004F
ENCODING 79
SWIDTH 420 0
DWIDTH 7 0
BBX 7 14 0 -2
BITMAP
00
00
7C
C6
C6
C6
C6
C6
C6
C6
C6
7C
00
00
ENDCHAR
STARTCHAR 0050
ENCODING 80
SWIDTH 420 0
DWIDTH 7 0
BBX 7 14 0 -2
BITMAP
00
00
FC
C6
C6
C6
C6
FC
C0
C0
C0
C0
00
00
ENDCHAR
STARTCHAR 0051
ENCODING 81
SWIDTH 420 0
DWIDTH 7 0
BBX 7 14 0 -2
BITMAP
00
00
7C
C6
C6
C6
C6
C6
F6
DA
CE
7C
0C
06
ENDCHAR
STARTCHAR 0052
ENCODING 82
SWIDTH 420 0
DWIDTH 7 0
BBX 7 14 0 -2
BITMAP
00
00
FC
C6
C6
C6
C6
FC
D8
CC
C6
C6
00
00
ENDCHAR
STARTCHAR 0053
ENCODING 83
SWIDTH 420 0
DWIDTH 7 0
BBX 7 14 0 -2
BITMAP
00
00
7C
C6
C6
C0
70
1C
06
C6
C6
7C
00
00
ENDCHAR
STARTCHAR 0054
ENCODING 84
SWIDTH 420 0
DWIDTH 7 0
BBX 7 14 0 -2
BITMAP
00
00
FE
18
18
18
18
18
18
18
18
18
00
00
ENDCHAR
STARTCHAR 0055
ENCODING 85
SWIDTH 420 0
DWIDTH 7 0
BBX 7 14 0 -2
BITMAP
00
00
C6
C6
C6
C6
C6
C6
C6
C6
C6
7C
00
00
ENDCHAR
STARTCHAR 0056
ENCODING 86
SWIDTH 420 0
DWIDTH 7 0
BBX 7 14 0 -2
BITMAP
00
00
C6
C6
C6
C6
6C
6C
6C
38
38
38
00
00
ENDCHAR
STARTCHAR 0057
ENCODING 87
SWIDTH 420 0
DWIDTH 7 0
BBX 7 14 0 -2
BITMAP
00
00
66
66
66
6A
6A
6A
6A
6A
34
34
00
00
ENDCHAR
STARTCHAR 0058
ENCODING 88
SWIDTH 420 0
DWIDTH 7 0
BBX 7 14 0 -2
BITMAP
00
00
C6
C6
6C
6C
38
38
6C
6C
C6
C6
00
00
ENDCHAR
STARTCHAR 0059
ENCODING 89
SWIDTH 420 0
DWIDTH 7 0
BBX 7 14 0 -2
BITMAP
00
00
66
66
66
34
34
18
18
18
18
18
00
00
ENDCHAR
STARTCHAR 005A
ENCODING 90
SWIDTH 420 0
DWIDTH 7 0
BBX 7 14 0 -2
BITMAP
00
00
FE
06
0C
18
18
30
60
60
C0
FE
00
00
ENDCHAR
STARTCHAR 005B
ENCODING 91
SWIDTH 420 0
DWIDTH 7 0
BBX 7 14 0 -2
BITMAP
00
3E
30
30
30
30
30
30
30
30
30
30
30
3E
ENDCHAR
STARTCHAR 005C
ENCODING 92
SWIDTH 420 0
DWIDTH 7 0
BBX 7 14 0 -2
BITMAP
00
00
66
34
34
18
7E
18
7E
18
18
18
00
00
ENDCHAR
STARTCHAR 005D
ENCODING 93
SWIDTH 420 0
DWIDTH 7 0
BBX 7 14 0 -2
BITMAP
00
7C
0C
0C
0C
0C
0C
0C
0C
0C
0C
0C
0C
7C
ENDCHAR
STARTCHAR 005E
ENCODING 94
SWIDTH 420 0
DWIDTH 7 0
BBX 7 14 0 -2
BITMAP
00
38
6C
C6
00
00
00
00
00
00
00
00
00
00
ENDCHAR
STARTCHAR 005F
ENCODING 95
SWIDTH 420 0
DWIDTH 7 0
BBX 7 14 0 -2
BITMAP
00
00
00
00
00
00
00
00
00
00
00
00
00
FE
ENDCHAR
STARTCHAR 0060
ENCODING 96
SWIDTH 420 0
DWIDTH 7 0
BBX 7 14 0 -2
BITMAP
00
38
30
30
18
00
00
00
00
00
00
00
00
00
ENDCHAR
STARTCHAR 0061
ENCODING 97
SWIDTH 420 0
DWIDTH 7 0
BBX 7 14 0 -2
BITMAP
00
00
00
00
00
7C
C6
06
7E
C6
C6
7E
00
00
ENDCHAR
STARTCHAR 0062
ENCODING 98
SWIDTH 420 0
DWIDTH 7 0
BBX 7 14 0 -2
BITMAP
00
00
C0
C0
C0
DC
E6
C6
C6
C6
E6
DC
00
00
ENDCHAR
STARTCHAR 0063
ENCODING 99
SWIDTH 420 0
DWIDTH 7 0
BBX 7 14 0 -2
BITMAP
00
00
00
00
00
7C
C6
C0
C0
C0
C6
7C
00
00
ENDCHAR
STARTCHAR 0064
ENCODING 100
SWIDTH 420 0
DWIDTH 7 0
BBX 7 14 0 -2
BITMAP
00
00
06
06
06
7A
CE
C6
C6
C6
CE
7A
00
00
ENDCHAR
STARTCHAR 0065
ENCODING 101
SWIDTH 420 0
DWIDTH 7 0
BBX 7 14 0 -2
BITMAP
00
00
00
00
00
7C
C6
C6
FE
C0
C6
7C
00
00
ENDCHAR
STARTCHAR 0066
ENCODING 102
SWIDTH 420 0
DWIDTH 7 0
BBX 7 14 0 -2
BITMAP
00
00
1C
36
30
30
FC
30
30
30
30
30
00
00
ENDCHAR
STARTCHAR 0067
ENCODING 103
SWIDTH 420 0
DWIDTH 7 0
BBX 7 14 0 -2
BITMAP
00
00
00
00
00
7A
CC
CC
CC
78
60
DC
C6
7C
ENDCHAR
STARTCHAR 0068
ENCODING 104
SWIDTH 420 0
DWIDTH 7 0
BBX 7 14 0 -2
BITMAP
00
00
C0
C0
C0
DC
E6
C6
C6
C6
C6
C6
00
00
ENDCHAR
STARTCHAR 0069
ENCODING 105
SWIDTH 420 0
DWIDTH 7 0
BBX 7 14 0 -2
BITMAP
00
00
18
18
00
38
18
18
18
18
18
18
00
00
ENDCHAR
STARTCHAR 006A
ENCODING 106
SWIDTH 420 0
DWIDTH 7 0
BBX 7 14 0 -2
BITMAP
00
00
0C
0C
00
1C
0C
0C
0C
0C
0C
0C
18
70
ENDCHAR
STARTCHAR 006B
ENCODING 107
SWIDTH 420 0
DWIDTH 7 0
BBX 7 14 0 -2
BITMAP
00
00
C0
C0
C0
CC
D8
D0
F0
D8
CC
C6
00
00
ENDCHAR
STARTCHAR 006C
ENCODING 108
SWIDTH 420 0
DWIDTH 7 0
BBX 7 14 0 -2
BITMAP
00
00
38
18
18
18
18
18
18
18
18
18
00
00
ENDCHAR
STARTCHAR 006D
ENCODING 109
SWIDTH 420 0
DWIDTH 7 0
BBX 7 14 0 -2
BITMAP
00
00
00
00
00
74
6A
6A
6A
6A
6A
66
00
00
ENDCHAR
STARTCHAR 006E
ENCODING 110
SWIDTH 420 0
DWIDTH 7 0
BBX 7 14 0 -2
BITMAP
00
00
00
00
00
DC
E6
C6
C6
C6
C6
C6
00
00
ENDCHAR
STARTCHAR 006F
ENCODING 111
SWIDTH 420 0
DWIDTH 7 0
BBX 7 14 0 -2
BITMAP
00
00
00
00
00
7C
C6
C6
C6
C6
C6
7C
00
00
ENDCHAR
STARTCHAR 0070
ENCODING 112
SWIDTH 420 0
DWIDTH 7 0
BBX 7 14 0 -2
BITMAP
00
00
00
00
00
DC
E6
C6
C6
C6
E6
DC
C0
C0
ENDCHAR
STARTCHAR 0071
ENCODING 113
SWIDTH 420 0
DWIDTH 7 0
BBX 7 14 0 -2
BITMAP
00
00
00
00
00
7A
CE
C6
C6
C6
CE
7A
06
06
ENDCHAR
STARTCHAR 0072
ENCODING 114
SWIDTH 420 0
DWIDTH 7 0
BBX 7 14 0 -2
BITMAP
00
00
00
00
00
DC
E6
C6
C0
C0
C0
C0
00
00
ENDCHAR
STARTCHAR 0073
ENCODING 115
SWIDTH 420 0
DWIDTH 7 0
BBX 7 14 0 -2
BITMAP
00
00
00
00
00
7C
C6
60
38
0C
C6
7C
00
00
ENDCHAR
STARTCHAR 0074
ENCODING 116
SWIDTH 420 0
DWIDTH 7 0
BBX 7 14 0 -2
BITMAP
00
00
30
30
30
FC
30
30
30
30
36
1C
00
00
ENDCHAR
STARTCHAR 0075
ENCODING 117
SWIDTH 420 0
DWIDTH 7 0
BBX 7 14 0 -2
BITMAP
00
00
00
00
00
C6
C6
C6
C6
C6
CE
7A
00
00
ENDCHAR
STARTCHAR 0076
ENCODING 118
SWIDTH 420 0
DWIDTH 7 0
BBX 7 14 0 -2
BITMAP
00
00
00
00
00
66
66
66
34
34
18
18
00
00
ENDCHAR
STARTCHAR 0077
ENCODING 119
SWIDTH 420 0
DWIDTH 7 0
BBX 7 14 0 -2
BITMAP
00
00
00
00
00
66
66
6A
6A
6A
34
34
00
00
ENDCHAR
STARTCHAR 0078
ENCODING 120
SWIDTH 420 0
DWIDTH 7 0
BBX 7 14 0 -2
BITMAP
00
00
00
00
00
C6
6C
6C
38
6C
6C
C6
00
00
ENDCHAR
STARTCHAR 0079
ENCODING 121
SWIDTH 420 0
DWIDTH 7 0
BBX 7 14 0 -2
BITMAP
00
00
00
00
00
C6
C6
6C
6C
38
18
30
30
E0
ENDCHAR
STARTCHAR 007A
ENCODING 122
SWIDTH 420 0
DWIDTH 7 0
BBX 7 14 0 -2
BITMAP
00
00
00
00
00
FE
0C
18
30
30
60
FE
00
00
ENDCHAR
STARTCHAR 007B
ENCODING 123
SWIDTH 420 0
DWIDTH 7 0
BBX 7 14 0 -2
BITMAP
00
0E
18
18
18
18
18
30
18
18
18
18
18
0E
ENDCHAR
STARTCHAR 007C
ENCODING 124
SWIDTH 420 0
DWIDTH 7 0
BBX 7 14 0 -2
BITMAP
00
18
18
18
18
18
18
18
18
18
18
18
18
18
ENDCHAR
STARTCHAR 007D
ENCODING 125
SWIDTH 420 0
DWIDTH 7 0
BBX 7 14 0 -2
BITMAP
00
70
18
18
18
18
18
0C
18
18
18
18
18
70
ENDCHAR
STARTCHAR 007E
ENCODING 126
SWIDTH 420 0
DWIDTH 7 0
BBX 7 14 0 -2
BITMAP
FE
00
00
00
00
00
00
00
00
00
00
00
00
00
ENDCHAR
STARTCHAR 00A0
ENCODING 160
SWIDTH 420 0
DWIDTH 7 0
BBX 7 14 0 -2
BITMAP
00
00
00
00
00
00
00
00
00
00
00
00
00
00
ENDCHAR
STARTCHAR 00A1
ENCODING 161
SWIDTH 420 0
DWIDTH 7 0
BBX 7 14 0 -2
BITMAP
00
00
18
18
00
18
18
18
18
18
18
18
00
00
ENDCHAR
STARTCHAR 00A2
ENCODING 162
SWIDTH 420 0
DWIDTH 7 0
BBX 7 14 0 -2
BITMAP
00
00
00
00
30
7C
D6
D0
D0
D0
D6
7C
30
00
ENDCHAR
STARTCHAR 00A3
ENCODING 163
SWIDTH 420 0
DWIDTH 7 0
BBX 7 14 0 -2
BITMAP
00
00
00
1C
36
30
30
7C
30
30
7C
36
00
00
ENDCHAR
STARTCHAR 00A4
ENCODING 164
SWIDTH 420 0
DWIDTH 7 0
BBX 7 14 0 -2
BITMAP
00
00
00
00
C6
7C
6C
6C
7C
C6
00
00
00
00
ENDCHAR
STARTCHAR 00A5
ENCODING 165
SWIDTH 420 0
DWIDTH 7 0
BBX 7 14 0 -2
BITMAP
00
C0
C0
60
60
30
30
30
18
18
0C
0C
06
06
ENDCHAR
STARTCHAR 00A6
ENCODING 166
SWIDTH 420 0
DWIDTH 7 0
BBX 7 14 0 -2
BITMAP
00
00
18
18
18
18
00
00
18
18
18
18
00
00
ENDCHAR
STARTCHAR 00A7
ENCODING 167
SWIDTH 840 0
DWIDTH 14 0
BBX 6 14 4 -2
BITMAP
78
CC
CC
E0
70
78
DC
EC
78
38
1C
CC
CC
78
ENDCHAR
STARTCHAR 00A8
ENCODING 168
SWIDTH 840 0
DWIDTH 14 0
BBX 8 2 3 10
BITMAP
E7
E7
ENDCHAR
STARTCHAR 00A9
ENCODING 169
SWIDTH 420 0
DWIDTH 7 0
BBX 7 11 0 0
BITMAP
7C
C6
DA
EE
E6
E6
E6
EE
DA
C6
7C
ENDCHAR
STARTCHAR 00AA
ENCODING 170
SWIDTH 420 0
DWIDTH 7 0
BBX 6 8 1 3
BITMAP
78
CC
7C
CC
DC
74
00
FC
ENDCHAR
STARTCHAR 00AB
ENCODING 171
SWIDTH 420 0
DWIDTH 7 0
BBX 7 7 0 0
BITMAP
1A
34
68
D0
68
34
1A
ENDCHAR
STARTCHAR 00AC
ENCODING 172
SWIDTH 420 0
DWIDTH 7 0
BBX 6 4 1 0
BITMAP
FC
0C
0C
0C
ENDCHAR
STARTCHAR 00AD
ENCODING 173
SWIDTH 420 0
DWIDTH 7 0
BBX 5 1 1 4
BITMAP
F8
ENDCHAR
STARTCHAR 00AE
ENCODING 174
SWIDTH 420 0
DWIDTH 7 0
BBX 7 11 0 0
BITMAP
7C
C6
FA
EE
EE
FA
EE
EE
EE
C6
7C
ENDCHAR
STARTCHAR 00AF
ENCODING 175
SWIDTH 420 0
DWIDTH 7 0
BBX 6 1 1 9
BITMAP
FC
ENDCHAR
STARTCHAR 00B0
ENCODING 176
SWIDTH 840 0
DWIDTH 14 0
BBX 5 4 1 7
BITMAP
70
D8
D8
70
ENDCHAR
STARTCHAR 00B1
ENCODING 177
SWIDTH 840 0
DWIDTH 14 0
BBX 12 11 1 0
BITMAP
0600
0600
0600
0600
FFF0
0600
0600
0600
0600
0000
FFF0
ENDCHAR
STARTCHAR 00B2
ENCODING 178
SWIDTH 420 0
DWIDTH 7 0
BBX 5 7 1 4
BITMAP
70
D8
18
30
60
C0
F8
ENDCHAR
STARTCHAR 00B3
ENCODING 179
SWIDTH 420 0
DWIDTH 7 0
BBX 5 7 1 4
BITMAP
70
D8
18
70
18
D8
70
ENDCHAR
STARTCHAR 00B4
ENCODING 180
SWIDTH 840 0
DWIDTH 14 0
BBX 5 3 4 9
BITMAP
38
70
C0
ENDCHAR
STARTCHAR 00B5
ENCODING 181
SWIDTH 420 0
DWIDTH 7 0
BBX 7 8 0 -2
BITMAP
66
66
66
66
76
6A
60
C0
ENDCHAR
STARTCHAR 00B6
ENCODING 182
SWIDTH 840 0
DWIDTH 14 0
BBX 6 12 4 -1
BITMAP
7C
F4
F4
F4
74
34
34
34
34
34
34
34
ENDCHAR
STARTCHAR 00B7
ENCODING 183
SWIDTH 420 0
DWIDTH 7 0
BBX 7 14 0 -2
BITMAP
00
00
00
00
00
00
38
38
00
00
00
00
00
00
ENDCHAR
STARTCHAR 00B8
ENCODING 184
SWIDTH 420 0
DWIDTH 7 0
BBX 7 14 0 -2
BITMAP
00
00
00
00
00
00
00
00
00
00
00
18
18
30
ENDCHAR
STARTCHAR 00B9
ENCODING 185
SWIDTH 420 0
DWIDTH 7 0
BBX 7 14 0 -2
BITMAP
00
18
38
18
18
18
18
3C
00
00
00
00
00
00
ENDCHAR
STARTCHAR 00BA
ENCODING 186
SWIDTH 420 0
DWIDTH 7 0
BBX 7 14 0 -2
BITMAP
00
00
38
6C
6C
38
00
7C
00
00
00
00
00
00
ENDCHAR
STARTCHAR 00BB
ENCODING 187
SWIDTH 420 0
DWIDTH 7 0
BBX 7 14 0 -2
BITMAP
00
00
00
00
00
D0
68
34
1A
34
68
D0
00
00
ENDCHAR
STARTCHAR 00BC
ENCODING 188
SWIDTH 420 0
DWIDTH 7 0
BBX 7 14 0 -2
BITMAP
00
00
60
E6
6C
6C
68
36
36
6A
DE
C6
00
00
ENDCHAR
STARTCHAR 00BD
ENCODING 189
SWIDTH 420 0
DWIDTH 7 0
BBX 7 14 0 -2
BITMAP
00
00
60
E6
6C
6C
68
34
3A
66
CC
DE
00
00
ENDCHAR
STARTCHAR 00BE
ENCODING 190
SWIDTH 420 0
DWIDTH 7 0
BBX 7 14 0 -2
BITMAP
00
00
E6
36
6C
38
E8
36
6E
6A
DE
06
00
00
ENDCHAR
STARTCHAR 00BF
ENCODING 191
SWIDTH 420 0
DWIDTH 7 0
BBX 7 14 0 -2
BITMAP
00
00
00
30
30
00
30
30
30
30
60
C6
C6
7C
ENDCHAR
STARTCHAR 00C0
ENCODING 192
SWIDTH 420 0
DWIDTH 7 0
BBX 7 14 0 -2
BITMAP
30
18
00
38
38
6C
6C
7C
C6
C6
C6
C6
00
00
ENDCHAR
STARTCHAR 00C1
ENCODING 193
SWIDTH 420 0
DWIDTH 7 0
BBX 7 14 0 -2
BITMAP
18
30
00
38
38
6C
6C
7C
C6
C6
C6
C6
00
00
ENDCHAR
STARTCHAR 00C2
ENCODING 194
SWIDTH 420 0
DWIDTH 7 0
BBX 7 14 0 -2
BITMAP
38
6C
00
38
38
6C
6C
7C
C6
C6
C6
C6
00
00
ENDCHAR
STARTCHAR 00C3
ENCODING 195
SWIDTH 420 0
DWIDTH 7 0
BBX 7 14 0 -2
BITMAP
76
DC
00
38
38
6C
6C
7C
C6
C6
C6
C6
00
00
ENDCHAR
STARTCHAR 00C4
ENCODING 196
SWIDTH 420 0
DWIDTH 7 0
BBX 7 14 0 -2
BITMAP
00
6C
00
38
38
6C
6C
7C
C6
C6
C6
C6
00
00
ENDCHAR
STARTCHAR 00C5
ENCODING 197
SWIDTH 420 0
DWIDTH 7 0
BBX 7 14 0 -2
BITMAP
00
38
6C
38
38
6C
6C
7C
C6
C6
C6
C6
00
00
ENDCHAR
STARTCHAR 00C6
ENCODING 198
SWIDTH 420 0
DWIDTH 7 0
BBX 7 14 0 -2
BITMAP
00
00
3E
38
68
68
7E
68
D8
D8
D8
DE
00
00
ENDCHAR
STARTCHAR 00C7
ENCODING 199
SWIDTH 420 0
DWIDTH 7 0
BBX 7 14 0 -2
BITMAP
00
00
3C
66
C6
C0
C0
C0
C0
C6
66
3C
18
30
ENDCHAR
STARTCHAR 00C8
ENCODING 200
SWIDTH 420 0
DWIDTH 7 0
BBX 7 14 0 -2
BITMAP
30
18
00
FE
C0
C0
C0
FC
C0
C0
C0
FE
00
00
ENDCHAR
STARTCHAR 00C9
ENCODING 201
SWIDTH 420 0
DWIDTH 7 0
BBX 7 14 0 -2
BITMAP
18
30
00
FE
C0
C0
C0
FC
C0
C0
C0
FE
00
00
ENDCHAR
STARTCHAR 00CA
ENCODING 202
SWIDTH 420 0
DWIDTH 7 0
BBX 7 14 0 -2
BITMAP
38
6C
00
FE
C0
C0
C0
FC
C0
C0
C0
FE
00
00
ENDCHAR
STARTCHAR 00CB
ENCODING 203
SWIDTH 420 0
DWIDTH 7 0
BBX 7 14 0 -2
BITMAP
00
6C
00
FE
C0
C0
C0
FC
C0
C0
C0
FE
00
00
ENDCHAR
STARTCHAR 00CC
ENCODING 204
SWIDTH 420 0
DWIDTH 7 0
BBX 7 14 0 -2
BITMAP
30
18
00
3C
18
18
18
18
18
18
18
3C
00
00
ENDCHAR
STARTCHAR 00CD
ENCODING 205
SWIDTH 420 0
DWIDTH 7 0
BBX 7 14 0 -2
BITMAP
0C
18
00
3C
18
18
18
18
18
18
18
3C
00
00
ENDCHAR
STARTCHAR 00CE
ENCODING 206
SWIDTH 420 0
DWIDTH 7 0
BBX 7 14 0 -2
BITMAP
18
34
00
3C
18
18
18
18
18
18
18
3C
00
00
ENDCHAR
STARTCHAR 00CF
ENCODING 207
SWIDTH 420 0
DWIDTH 7 0
BBX 7 14 0 -2
BITMAP
00
34
00
3C
18
18
18
18
18
18
18
3C
00
00
ENDCHAR
STARTCHAR 00D0
ENCODING 208
SWIDTH 420 0
DWIDTH 7 0
BBX 7 14 0 -2
BITMAP
00
00
7C
66
62
62
FA
62
62
62
66
7C
00
00
ENDCHAR
STARTCHAR 00D1
ENCODING 209
SWIDTH 420 0
DWIDTH 7 0
BBX 7 14 0 -2
BITMAP
76
DC
00
E6
E6
D6
D6
DA
DA
DA
CE
CE
00
00
ENDCHAR
STARTCHAR 00D2
ENCODING 210
SWIDTH 420 0
DWIDTH 7 0
BBX 7 14 0 -2
BITMAP
30
18
00
7C
C6
C6
C6
C6
C6
C6
C6
7C
00
00
ENDCHAR
STARTCHAR 00D3
ENCODING 211
SWIDTH 420 0
DWIDTH 7 0
BBX 7 14 0 -2
BITMAP
18
30
00
7C
C6
C6
C6
C6
C6
C6
C6
7C
00
00
ENDCHAR
STARTCHAR 00D4
ENCODING 212
SWIDTH 420 0
DWIDTH 7 0
BBX 7 14 0 -2
BITMAP
38
6C
00
7C
C6
C6
C6
C6
C6
C6
C6
7C
00
00
ENDCHAR
STARTCHAR 00D5
ENCODING 213
SWIDTH 420 0
DWIDTH 7 0
BBX 7 14 0 -2
BITMAP
76
DC
00
7C
C6
C6
C6
C6
C6
C6
C6
7C
00
00
ENDCHAR
STARTCHAR 00D6
ENCODING 214
SWIDTH 420 0
DWIDTH 7 0
BBX 7 14 0 -2
BITMAP
00
6C
00
7C
C6
C6
C6
C6
C6
C6
C6
7C
00
00
ENDCHAR
STARTCHAR 00D7
ENCODING 215
SWIDTH 840 0
DWIDTH 14 0
BBX 12 11 1 0
BITMAP
C030
6060
30C0
1980
0D00
0600
0D00
1980
30C0
6060
C030
ENDCHAR
STARTCHAR 00D8
ENCODING 216
SWIDTH 420 0
DWIDTH 7 0
BBX 7 14 0 -2
BITMAP
06
06
7C
CE
DA
DA
DA
D6
D6
D6
E6
7C
C0
C0
ENDCHAR
STARTCHAR 00D9
ENCODING 217
SWIDTH 420 0
DWIDTH 7 0
BBX 7 14 0 -2
BITMAP
30
18
00
C6
C6
C6
C6
C6
C6
C6
C6
7C
00
00
ENDCHAR
STARTCHAR 00DA
ENCODING 218
SWIDTH 420 0
DWIDTH 7 0
BBX 7 14 0 -2
BITMAP
18
30
00
C6
C6
C6
C6
C6
C6
C6
C6
7C
00
00
ENDCHAR
STARTCHAR 00DB
ENCODING 219
SWIDTH 420 0
DWIDTH 7 0
BBX 7 14 0 -2
BITMAP
38
6C
00
C6
C6
C6
C6
C6
C6
C6
C6
7C
00
00
ENDCHAR
STARTCHAR 00DC
ENCODING 220
SWIDTH 420 0
DWIDTH 7 0
BBX 7 14 0 -2
BITMAP
00
6C
00
C6
C6
C6
C6
C6
C6
C6
C6
7C
00
00
ENDCHAR
STARTCHAR 00DD
ENCODING 221
SWIDTH 420 0
DWIDTH 7 0
BBX 7 14 0 -2
BITMAP
0C
18
00
66
66
34
34
18
18
18
18
18
00
00
ENDCHAR
STARTCHAR 00DE
ENCODING 222
SWIDTH 420 0
DWIDTH 7 0
BBX 7 14 0 -2
BITMAP
00
00
C0
C0
FC
C6
C6
C6
C6
FC
C0
C0
00
00
ENDCHAR
STARTCHAR 00DF
ENCODING 223
SWIDTH 420 0
DWIDTH 7 0
BBX 7 14 0 -2
BITMAP
00
00
38
6C
6C
6C
78
6C
66
66
66
FC
00
00
ENDCHAR
STARTCHAR 00E0
ENCODING 224
SWIDTH 420 0
DWIDTH 7 0
BBX 7 14 0 -2
BITMAP
00
00
30
18
00
7C
C6
1E
76
C6
CE
7A
00
00
ENDCHAR
STARTCHAR 00E1
ENCODING 225
SWIDTH 420 0
DWIDTH 7 0
BBX 7 14 0 -2
BITMAP
00
00
0C
18
00
7C
C6
1E
76
C6
CE
7A
00
00
ENDCHAR
STARTCHAR 00E2
ENCODING 226
SWIDTH 420 0
DWIDTH 7 0
BBX 7 14 0 -2
BITMAP
00
00
38
6C
00
7C
C6
1E
76
C6
CE
7A
00
00
ENDCHAR
STARTCHAR 00E3
ENCODING 227
SWIDTH 420 0
DWIDTH 7 0
BBX 7 14 0 -2
BITMAP
00
00
76
DC
00
7C
C6
1E
76
C6
CE
7A
00
00
ENDCHAR
STARTCHAR 00E4
ENCODING 228
SWIDTH 420 0
DWIDTH 7 0
BBX 7 14 0 -2
BITMAP
00
00
00
6C
00
7C
C6
1E
76
C6
CE
7A
00
00
ENDCHAR
STARTCHAR 00E5
ENCODING 229
SWIDTH 420 0
DWIDTH 7 0
BBX 7 14 0 -2
BITMAP
00
38
6C
38
00
7C
C6
1E
76
C6
CE
7A
00
00
ENDCHAR
STARTCHAR 00E6
ENCODING 230
SWIDTH 420 0
DWIDTH 7 0
BBX 7 14 0 -2
BITMAP
00
00
00
00
00
7E
DA
3A
6E
D8
DA
7E
00
00
ENDCHAR
STARTCHAR 00E7
ENCODING 231
SWIDTH 420 0
DWIDTH 7 0
BBX 7 14 0 -2
BITMAP
00
00
00
00
00
7C
C6
C0
C0
C0
C6
7C
18
30
ENDCHAR
STARTCHAR 00E8
ENCODING 232
SWIDTH 420 0
DWIDTH 7 0
BBX 7 14 0 -2
BITMAP
00
00
30
18
00
7C
C6
C6
FE
C0
C6
7C
00
00
ENDCHAR
STARTCHAR 00E9
ENCODING 233
SWIDTH 420 0
DWIDTH 7 0
BBX 7 14 0 -2
BITMAP
00
00
18
30
00
7C
C6
C6
FE
C0
C6
7C
00
00
ENDCHAR
STARTCHAR 00EA
ENCODING 234
SWIDTH 420 0
DWIDTH 7 0
BBX 7 14 0 -2
BITMAP
00
00
38
6C
00
7C
C6
C6
FE
C0
C6
7C
00
00
ENDCHAR
STARTCHAR 00EB
ENCODING 235
SWIDTH 420 0
DWIDTH 7 0
BBX 7 14 0 -2
BITMAP
00
00
00
6C
00
7C
C6
C6
FE
C0
C6
7C
00
00
ENDCHAR
STARTCHAR 00EC
ENCODING 236
SWIDTH 420 0
DWIDTH 7 0
BBX 7 14 0 -2
BITMAP
00
00
30
18
00
38
18
18
18
18
18
18
00
00
ENDCHAR
STARTCHAR 00ED
ENCODING 237
SWIDTH 420 0
DWIDTH 7 0
BBX 7 14 0 -2
BITMAP
00
00
0C
18
00
38
18
18
18
18
18
18
00
00
ENDCHAR
STARTCHAR 00EE
ENCODING 238
SWIDTH 420 0
DWIDTH 7 0
BBX 7 14 0 -2
BITMAP
00
00
38
6C
00
38
18
18
18
18
18
18
00
00
ENDCHAR
STARTCHAR 00EF
ENCODING 239
SWIDTH 420 0
DWIDTH 7 0
BBX 7 14 0 -2
BITMAP
00
00
00
34
00
38
18
18
18
18
18
18
00
00
ENDCHAR
STARTCHAR 00F0
ENCODING 240
SWIDTH 420 0
DWIDTH 7 0
BBX 7 14 0 -2
BITMAP
00
34
18
34
06
3E
66
66
66
66
66
3C
00
00
ENDCHAR
STARTCHAR 00F1
ENCODING 241
SWIDTH 420 0
DWIDTH 7 0
BBX 7 14 0 -2
BITMAP
00
00
76
DC
00
DC
E6
C6
C6
C6
C6
C6
00
00
ENDCHAR
STARTCHAR 00F2
ENCODING 242
SWIDTH 420 0
DWIDTH 7 0
BBX 7 14 0 -2
BITMAP
00
00
30
18
00
7C
C6
C6
C6
C6
C6
7C
00
00
ENDCHAR
STARTCHAR 00F3
ENCODING 243
SWIDTH 420 0
DWIDTH 7 0
BBX 7 14 0 -2
BITMAP
00
00
18
30
00
7C
C6
C6
C6
C6
C6
7C
00
00
ENDCHAR
STARTCHAR 00F4
ENCODING 244
SWIDTH 420 0
DWIDTH 7 0
BBX 7 14 0 -2
BITMAP
00
00
38
6C
00
7C
C6
C6
C6
C6
C6
7C
00
00
ENDCHAR
STARTCHAR 00F5
ENCODING 245
SWIDTH 420 0
DWIDTH 7 0
BBX 7 14 0 -2
BITMAP
00
00
76
DC
00
7C
C6
C6
C6
C6
C6
7C
00
00
ENDCHAR
STARTCHAR 00F6
ENCODING 246
SWIDTH 420 0
DWIDTH 7 0
BBX 7 14 0 -2
BITMAP
00
00
00
6C
00
7C
C6
C6
C6
C6
C6
7C
00
00
ENDCHAR
STARTCHAR 00F7
ENCODING 247
SWIDTH 840 0
DWIDTH 14 0
BBX 12 11 1 0
BITMAP
0600
0F00
0600
0000
0000
FFF0
0000
0000
0600
0F00
0600
ENDCHAR
STARTCHAR 00F8
ENCODING 248
SWIDTH 420 0
DWIDTH 7 0
BBX 7 11 0 -2
BITMAP
06
0C
7C
DA
DA
D6
D6
E6
7C
C0
C0
ENDCHAR
STARTCHAR 00F9
ENCODING 249
SWIDTH 420 0
DWIDTH 7 0
BBX 7 10 0 0
BITMAP
30
18
00
C6
C6
C6
C6
C6
CE
7A
ENDCHAR
STARTCHAR 00FA
ENCODING 250
SWIDTH 420 0
DWIDTH 7 0
BBX 7 10 0 0
BITMAP
18
30
00
C6
C6
C6
C6
C6
CE
7A
ENDCHAR
STARTCHAR 00FB
ENCODING 251
SWIDTH 420 0
DWIDTH 7 0
BBX 7 10 0 0
BITMAP
38
6C
00
C6
C6
C6
C6
C6
CE
7A
ENDCHAR
STARTCHAR 00FC
ENCODING 252
SWIDTH 420 0
DWIDTH 7 0
BBX 7 9 0 0
BITMAP
6C
00
C6
C6
C6
C6
C6
CE
7A
ENDCHAR
STARTCHAR 00FD
ENCODING 253
SWIDTH 420 0
DWIDTH 7 0
BBX 7 12 0 -2
BITMAP
18
30
00
C6
C6
6C
6C
38
18
30
30
E0
ENDCHAR
STARTCHAR 00FE
ENCODING 254
SWIDTH 420 0
DWIDTH 7 0
BBX 7 12 0 -2
BITMAP
C0
C0
C0
DC
E6
C6
C6
C6
E6
DC
C0
C0
ENDCHAR
STARTCHAR 00FF
ENCODING 255
SWIDTH 420 0
DWIDTH 7 0
BBX 7 11 0 -2
BITMAP
6C
00
C6
C6
6C
6C
38
18
30
30
E0
ENDCHAR
STARTCHAR 0391
ENCODING 913
SWIDTH 840 0
DWIDTH 14 0
BBX 13 14 0 -2
BITMAP
0000
0300
0300
0680
0680
0CC0
0CC0
1860
1FE0
3030
3030
7878
0000
0000
ENDCHAR
STARTCHAR 0392
ENCODING 914
SWIDTH 840 0
DWIDTH 14 0
BBX 13 14 0 -2
BITMAP
0000
3F80
18E0
1830
1830
18E0
1FC0
1870
1818
1818
1870
3FC0
0000
0000
ENDCHAR
STARTCHAR 0393
ENCODING 915
SWIDTH 840 0
DWIDTH 14 0
BBX 13 14 0 -2
BITMAP
0000
3FE0
1860
1830
1800
1800
1800
1800
1800
1800
1800
3C00
0000
0000
ENDCHAR
STARTCHAR 0394
ENCODING 916
SWIDTH 840 0
DWIDTH 14 0
BBX 13 14 0 -2
BITMAP
0000
0300
0300
0680
0680
0CC0
0CC0
1860
1860
3030
3030
7FF8
0000
0000
ENDCHAR
STARTCHAR 0395
ENCODING 917
SWIDTH 840 0
DWIDTH 14 0
BBX 13 14 0 -2
BITMAP
0000
7FC0
30C0
3060
3000
30C0
3FC0
30C0
3000
3000
3060
7FE0
0000
0000
ENDCHAR
STARTCHAR 0396
ENCODING 918
SWIDTH 840 0
DWIDTH 14 0
BBX 13 14 0 -2
BITMAP
0000
3FF0
3060
60C0
0180
0300
0300
0600
0C00
1818
3030
7FF0
0000
0000
ENDCHAR
STARTCHAR 0397
ENCODING 919
SWIDTH 840 0
DWIDTH 14 0
BBX 13 14 0 -2
BITMAP
0000
78F0
3060
3060
3060
3060
3FE0
3060
3060
3060
3060
78F0
0000
0000
ENDCHAR
STARTCHAR 0398
ENCODING 920
SWIDTH 840 0
DWIDTH 14 0
BBX 13 14 0 -2
BITMAP
0000
0780
1CE0
3030
6018
6CD8
6FD8
6CD8
6018
3030
1CE0
0780
0000
0000
ENDCHAR
STARTCHAR 0399
ENCODING 921
SWIDTH 840 0
DWIDTH 14 0
BBX 13 14 0 -2
BITMAP
0000
0F00
0600
0600
0600
0600
0600
0600
0600
0600
0600
0F00
0000
0000
ENDCHAR
STARTCHAR 039A
ENCODING 922
SWIDTH 840 0
DWIDTH 14 0
BBX 13 14 0 -2
BITMAP
0000
79E0
30C0
3180
3300
3600
3A00
3300
3180
30C0
3060
78F0
0000
0000
ENDCHAR
STARTCHAR 039B
ENCODING 923
SWIDTH 840 0
DWIDTH 14 0
BBX 13 14 0 -2
BITMAP
0000
0300
0300
0680
0680
0CC0
0CC0
1860
1860
3030
3030
7878
0000
0000
ENDCHAR
STARTCHAR 039C
ENCODING 924
SWIDTH 840 0
DWIDTH 14 0
BBX 13 14 0 -2
BITMAP
0000
E038
7070
70D0
68D0
69B0
6DB0
6D30
6630
6630
6030
F078
0000
0000
ENDCHAR
STARTCHAR 039D
ENCODING 925
SWIDTH 840 0
DWIDTH 14 0
BBX 13 14 0 -2
BITMAP
0000
70F0
3860
3860
3460
3660
3360
3360
31A0
30E0
30E0
7860
0000
0000
ENDCHAR
STARTCHAR 039E
ENCODING 926
SWIDTH 840 0
DWIDTH 14 0
BBX 13 14 0 -2
BITMAP
0000
3FF0
3060
6060
0000
3060
3FE0
3060
0000
0000
3030
3060
7FE0
0000
ENDCHAR
STARTCHAR 039F
ENCODING 927
SWIDTH 840 0
DWIDTH 14 0
BBX 13 14 0 -2
BITMAP
0000
0780
1CE0
3030
6018
6018
6018
6018
6018
3030
1CE0
0780
0000
0000
ENDCHAR
STARTCHAR 03A0
ENCODING 928
SWIDTH 840 0
DWIDTH 14 0
BBX 13 14 0 -2
BITMAP
0000
7FF0
3060
3060
3060
3060
3060
3060
3060
3060
3060
78F0
0000
0000
ENDCHAR
STARTCHAR 03A1
ENCODING 929
SWIDTH 840 0
DWIDTH 14 0
BBX 13 14 0 -2
BITMAP
0000
7F00
31C0
3060
3060
31C0
3F00
3000
3000
3000
3000
7800
0000
0000
ENDCHAR
STARTCHAR 03A3
ENCODING 931
SWIDTH 840 0
DWIDTH 14 0
BBX 13 14 0 -2
BITMAP
0000
7FC0
30C0
1860
0C00
0600
0300
0300
0600
0C30
1860
7FE0
0000
0000
ENDCHAR
STARTCHAR 03A4
ENCODING 932
SWIDTH 840 0
DWIDTH 14 0
BBX 13 14 0 -2
BITMAP
0000
7FE0
6660
C630
0600
0600
0600
0600
0600
0600
0600
0F00
0000
0000
ENDCHAR
STARTCHAR 03A5
ENCODING 933
SWIDTH 840 0
DWIDTH 14 0
BBX 13 14 0 -2
BITMAP
0000
79E0
CD30
C630
0600
0600
0600
0600
0600
0600
0600
0F00
0000
0000
ENDCHAR
STARTCHAR 03A6
ENCODING 934
SWIDTH 840 0
DWIDTH 14 0
BBX 13 14 0 -2
BITMAP
0000
0780
0300
0FC0
3B70
6318
6318
6318
3B70
0FC0
0300
0780
0000
0000
ENDCHAR
STARTCHAR 03A7
ENCODING 935
SWIDTH 840 0
DWIDTH 14 0
BBX 13 14 0 -2
BITMAP
0000
78F0
3060
18C0
0D80
0700
0300
0680
0CC0
1860
3030
7878
0000
0000
ENDCHAR
STARTCHAR 03A8
ENCODING 936
SWIDTH 840 0
DWIDTH 14 0
BBX 13 14 0 -2
BITMAP
0000
0F00
C630
6660
36C0
36C0
36C0
1A80
0F00
0600
0600
0F00
0000
0000
ENDCHAR
STARTCHAR 03A9
ENCODING 937
SWIDTH 840 0
DWIDTH 14 0
BBX 13 14 0 -2
BITMAP
0000
0700
1DC0
3060
6030
6030
6030
3060
18C0
0D80
6DB0
7DF0
0000
0000
ENDCHAR
STARTCHAR 03B1
ENCODING 945
SWIDTH 840 0
DWIDTH 14 0
BBX 13 14 0 -2
BITMAP
0000
0000
0000
0060
0760
0DA0
18C0
30C0
30C0
31C0
1B40
0E70
0000
0000
ENDCHAR
STARTCHAR 03B2
ENCODING 946
SWIDTH 840 0
DWIDTH 14 0
BBX 13 14 0 -2
BITMAP
0000
01E0
0330
0630
0630
0C60
0DC0
0C60
0C60
1860
1CC0
1B80
3000
3000
ENDCHAR
STARTCHAR 03B3
ENCODING 947
SWIDTH 840 0
DWIDTH 14 0
BBX 13 14 0 -2
BITMAP
0000
0000
0000
0000
0E70
1B40
0380
0300
0300
0600
0600
0600
0600
0000
ENDCHAR
STARTCHAR 03B4
ENCODING 948
SWIDTH 840 0
DWIDTH 14 0
BBX 13 14 0 -2
BITMAP
0000
0780
0CE0
0C30
0600
0780
0CC0
18C0
18C0
1980
1B00
0E00
0000
0000
ENDCHAR
STARTCHAR 03B5
ENCODING 949
SWIDTH 840 0
DWIDTH 14 0
BBX 13 14 0 -2
BITMAP
0000
0000
0000
0000
0780
0CC0
0C00
0780
0C00
1800
18C0
0F80
0000
0000
ENDCHAR
STARTCHAR 03B6
ENCODING 950
SWIDTH 840 0
DWIDTH 14 0
BBX 13 14 0 -2
BITMAP
0000
0C00
19C0
0F00
0600
0C00
0C00
1800
1800
0E00
0380
00C0
0EC0
0780
ENDCHAR
STARTCHAR 03B7
ENCODING 951
SWIDTH 840 0
DWIDTH 14 0
BBX 13 14 0 -2
BITMAP
0000
0000
0000
0000
1DC0
3760
0660
0C60
0C60
0CC0
18C0
1980
0180
0180
ENDCHAR
STARTCHAR 03B8
ENCODING 952
SWIDTH 840 0
DWIDTH 14 0
BBX 13 14 0 -2
BITMAP
0000
01E0
0330
0630
0C30
0C60
1FE0
1860
18C0
18C0
1980
0F00
0000
0000
ENDCHAR
STARTCHAR 03B9
ENCODING 953
SWIDTH 840 0
DWIDTH 14 0
BBX 13 14 0 -2
BITMAP
0000
0000
0000
0000
0300
0600
0600
0C00
0C00
0C00
0D80
0700
0000
0000
ENDCHAR
STARTCHAR 03BA
ENCODING 954
SWIDTH 840 0
DWIDTH 14 0
BBX 13 14 0 -2
BITMAP
0000
0000
0000
0000
0C70
0DC0
0D00
1E00
1B00
1B00
3360
31C0
0000
0000
ENDCHAR
STARTCHAR 03BB
ENCODING 955
SWIDTH 840 0
DWIDTH 14 0
BBX 13 14 0 -2
BITMAP
0000
0780
00C0
00C0
01C0
0340
0340
06C0
0CC0
0CC0
18C0
1870
0000
0000
ENDCHAR
STARTCHAR 03BC
ENCODING 956
SWIDTH 840 0
DWIDTH 14 0
BBX 13 14 0 -2
BITMAP
0000
0000
0000
0000
0C60
0C60
0CC0
0CC0
18C0
18C0
1DD8
1B70
3000
3000
ENDCHAR
STARTCHAR 03BD
ENCODING 957
SWIDTH 840 0
DWIDTH 14 0
BBX 13 14 0 -2
BITMAP
0000
0000
0000
0000
1860
0C60
0CC0
0CC0
0D80
0D00
0E00
1800
0000
0000
ENDCHAR
STARTCHAR 03BE
ENCODING 958
SWIDTH 840 0
DWIDTH 14 0
BBX 13 14 0 -2
BITMAP
0700
0CE0
0780
0600
0C00
0C00
0780
0CC0
1800
1800
0E00
0380
00C0
0F80
ENDCHAR
STARTCHAR 03BF
ENCODING 959
SWIDTH 840 0
DWIDTH 14 0
BBX 13 14 0 -2
BITMAP
0000
0000
0000
0000
01C0
0760
0C30
1830
1860
1860
0DC0
0700
0000
0000
ENDCHAR
STARTCHAR 03C0
ENCODING 960
SWIDTH 840 0
DWIDTH 14 0
BBX 13 14 0 -2
BITMAP
0000
0000
0000
1C18
37F0
66C0
0CC0
0D80
1980
1980
1980
70E0
0000
0000
ENDCHAR
STARTCHAR 03C1
ENCODING 961
SWIDTH 840 0
DWIDTH 14 0
BBX 13 14 0 -2
BITMAP
0000
0000
0000
0000
01E0
0330
0630
0C30
0C60
1C60
1CC0
1B80
3000
3000
ENDCHAR
STARTCHAR 03C3
ENCODING 963
SWIDTH 840 0
DWIDTH 14 0
BBX 13 14 0 -2
BITMAP
0000
0000
0000
0000
03F0
0E80
18C0
30C0
30C0
3180
3300
1E00
0000
0000
ENDCHAR
STARTCHAR 03C4
ENCODING 964
SWIDTH 840 0
DWIDTH 14 0
BBX 13 14 0 -2
BITMAP
0000
0000
0000
0000
0E70
1BC0
3300
0600
0600
0C00
0D80
0700
0000
0000
ENDCHAR
STARTCHAR 03C5
ENCODING 965
SWIDTH 840 0
DWIDTH 14 0
BBX 13 14 0 -2
BITMAP
0000
0000
0000
0000
0CC0
0C60
1860
1860
18C0
18C0
1980
0F00
0000
0000
ENDCHAR
STARTCHAR 03C6
ENCODING 966
SWIDTH 840 0
DWIDTH 14 0
BBX 13 14 0 -2
BITMAP
0000
0180
0180
0180
0780
1D40
3360
3360
3660
36C0
1A80
0F00
0C00
0C00
ENDCHAR
STARTCHAR 03C7
ENCODING 967
SWIDTH 840 0
DWIDTH 14 0
BBX 13 14 0 -2
BITMAP
0000
0E30
1B30
0360
0340
0380
0300
0700
0D00
0D00
1B00
3300
6360
61C0
ENDCHAR
STARTCHAR 03C8
ENCODING 968
SWIDTH 840 0
DWIDTH 14 0
BBX 13 14 0 -2
BITMAP
0000
0180
0180
0180
71A0
DB30
1B30
1B30
3660
36C0
3780
1E00
0C00
0C00
ENDCHAR
STARTCHAR 03C9
ENCODING 969
SWIDTH 840 0
DWIDTH 14 0
BBX 13 14 0 -2
BITMAP
0000
0000
0000
0000
1860
3030
3330
6630
6660
6660
6EC0
3B80
0000
0000
ENDCHAR
STARTCHAR 0401
ENCODING 1025
SWIDTH 840 0
DWIDTH 14 0
BBX 13 14 0 -2
BITMAP
1B00
1B00
7FC0
3060
3000
3180
3F80
3180
3000
3000
3060
7FE0
0000
0000
ENDCHAR
STARTCHAR 0410
ENCODING 1040
SWIDTH 840 0
DWIDTH 14 0
BBX 13 14 0 -2
BITMAP
0000
0300
0300
0680
0680
0CC0
0CC0
1860
1FE0
3030
3030
7878
0000
0000
ENDCHAR
STARTCHAR 0411
ENCODING 1041
SWIDTH 840 0
DWIDTH 14 0
BBX 13 14 0 -2
BITMAP
0000
3FE0
1860
1830
1800
1800
1FC0
1870
1818
1818
1870
3FC0
0000
0000
ENDCHAR
STARTCHAR 0412
ENCODING 1042
SWIDTH 840 0
DWIDTH 14 0
BBX 13 14 0 -2
BITMAP
0000
3F80
18E0
1830
1830
18E0
1FC0
1870
1818
1818
1870
3FC0
0000
0000
ENDCHAR
STARTCHAR 0413
ENCODING 1043
SWIDTH 840 0
DWIDTH 14 0
BBX 13 14 0 -2
BITMAP
0000
3FE0
1860
1830
1800
1800
1800
1800
1800
1800
1800
3C00
0000
0000
ENDCHAR
STARTCHAR 0414
ENCODING 1044
SWIDTH 840 0
DWIDTH 14 0
BBX 13 14 0 -2
BITMAP
0000
1FF0
0C60
0C60
0C60
0C60
0C60
0C60
0C60
1860
1860
7FF8
6018
6018
ENDCHAR
STARTCHAR 0415
ENCODING 1045
SWIDTH 840 0
DWIDTH 14 0
BBX 13 14 0 -2
BITMAP
0000
7FC0
30C0
3060
3000
30C0
3FC0
30C0
3000
3000
3060
7FE0
0000
0000
ENDCHAR
STARTCHAR 0416
ENCODING 1046
SWIDTH 840 0
DWIDTH 14 0
BBX 13 14 0 -2
BITMAP
0000
77B8
6B68
1B60
1B60
1B60
0FC0
0D40
1B60
3330
3330
77B8
0000
0000
ENDCHAR
STARTCHAR 0417
ENCODING 1047
SWIDTH 840 0
DWIDTH 14 0
BBX 13 14 0 -2
BITMAP
0000
0780
1CE0
3030
0030
00E0
07C0
00E0
0030
3030
1CE0
0780
0000
0000
ENDCHAR
STARTCHAR 0418
ENCODING 1048
SWIDTH 840 0
DWIDTH 14 0
BBX 13 14 0 -2
BITMAP
0000
7870
30E0
30E0
31A0
3360
3660
3660
3460
3860
3860
30F0
0000
0000
ENDCHAR
STARTCHAR 0419
ENCODING 1049
SWIDTH 840 0
DWIDTH 14 0
BBX 13 14 0 -2
BITMAP
0D80
0700
7870
30E0
31A0
31A0
3360
3660
3460
3860
3860
30F0
0000
0000
ENDCHAR
STARTCHAR 041A
ENCODING 1050
SWIDTH 840 0
DWIDTH 14 0
BBX 13 14 0 -2
BITMAP
0000
78E0
31B0
3300
3600
3600
3A00
3300
3180
30C0
3060
78F0
0000
0000
ENDCHAR
STARTCHAR 041B
ENCODING 1051
SWIDTH 840 0
DWIDTH 14 0
BBX 13 14 0 -2
BITMAP
0000
07F8
0630
0630
0630
0630
0630
0630
0630
6C30
6C30
3878
0000
0000
ENDCHAR
STARTCHAR 041C
ENCODING 1052
SWIDTH 840 0
DWIDTH 14 0
BBX 13 14 0 -2
BITMAP
0000
7070
3060
38E0
39A0
35A0
3560
6730
6630
6630
6030
F078
0000
0000
ENDCHAR
STARTCHAR 041D
ENCODING 1053
SWIDTH 840 0
DWIDTH 14 0
BBX 13 14 0 -2
BITMAP
0000
78F0
3060
3060
3060
3060
3FE0
3060
3060
3060
3060
78F0
0000
0000
ENDCHAR
STARTCHAR 041E
ENCODING 1054
SWIDTH 840 0
DWIDTH 14 0
BBX 13 14 0 -2
BITMAP
0000
0780
1CE0
3030
6018
6018
6018
6018
6018
3030
1CE0
0780
0000
0000
ENDCHAR
STARTCHAR 041F
ENCODING 1055
SWIDTH 840 0
DWIDTH 14 0
BBX 13 14 0 -2
BITMAP
0000
7FF0
3060
3060
3060
3060
3060
3060
3060
3060
3060
78F0
0000
0000
ENDCHAR
STARTCHAR 0420
ENCODING 1056
SWIDTH 840 0
DWIDTH 14 0
BBX 13 14 0 -2
BITMAP
0000
7F00
31C0
3060
3060
31C0
3F00
3000
3000
3000
3000
7800
0000
0000
ENDCHAR
STARTCHAR 0421
ENCODING 1057
SWIDTH 840 0
DWIDTH 14 0
BBX 13 14 0 -2
BITMAP
0000
07D0
1C70
3030
6000
6000
6000
6000
6000
3030
1C60
07C0
0000
0000
ENDCHAR
STARTCHAR 0422
ENCODING 1058
SWIDTH 840 0
DWIDTH 14 0
BBX 13 14 0 -2
BITMAP
0000
7FE0
6660
C630
0600
0600
0600
0600
0600
0600
0600
0F00
0000
0000
ENDCHAR
STARTCHAR 0423
ENCODING 1059
SWIDTH 840 0
DWIDTH 14 0
BBX 13 14 0 -2
BITMAP
0000
7878
3030
1830
1860
0C60
06C0
06C0
0380
0180
0300
0300
0600
1C00
ENDCHAR
STARTCHAR 0424
ENCODING 1060
SWIDTH 840 0
DWIDTH 14 0
BBX 13 14 0 -2
BITMAP
0000
0780
0300
0FC0
3B70
6318
6318
6318
3B70
0FC0
0300
0780
0000
0000
ENDCHAR
STARTCHAR 0425
ENCODING 1061
SWIDTH 840 0
DWIDTH 14 0
BBX 13 14 0 -2
BITMAP
0000
78F0
3060
18C0
0D80
0700
0300
0680
0CC0
1860
3030
7878
0000
0000
ENDCHAR
STARTCHAR 0426
ENCODING 1062
SWIDTH 840 0
DWIDTH 14 0
BBX 13 14 0 -2
BITMAP
0000
78F0
3060
3060
3060
3060
3060
3060
3060
3060
3060
7FF8
0018
0018
ENDCHAR
STARTCHAR 0427
ENCODING 1063
SWIDTH 840 0
DWIDTH 14 0
BBX 13 14 0 -2
BITMAP
0000
78F0
3060
3060
3060
3060
30E0
19A0
0F60
0060
0060
00F0
0000
0000
ENDCHAR
STARTCHAR 0428
ENCODING 1064
SWIDTH 840 0
DWIDTH 14 0
BBX 13 14 0 -2
BITMAP
0000
7BB8
3330
3330
3330
3330
3330
3330
3330
3330
3330
7FF8
0000
0000
ENDCHAR
STARTCHAR 0429
ENCODING 1065
SWIDTH 840 0
DWIDTH 14 0
BBX 13 14 0 -2
BITMAP
0000
7BB8
3330
3330
3330
3330
3330
3330
3330
3330
3330
7FF8
0018
0018
ENDCHAR
STARTCHAR 042A
ENCODING 1066
SWIDTH 840 0
DWIDTH 14 0
BBX 13 14 0 -2
BITMAP
0000
3F00
3600
6600
0600
07C0
0670
0618
0618
0618
0670
0FC0
0000
0000
ENDCHAR
STARTCHAR 042B
ENCODING 1067
SWIDTH 840 0
DWIDTH 14 0
BBX 13 14 0 -2
BITMAP
0000
78F0
3060
3060
3060
3E60
3360
31A0
31A0
31A0
3760
7CF0
0000
0000
ENDCHAR
STARTCHAR 042C
ENCODING 1068
SWIDTH 840 0
DWIDTH 14 0
BBX 13 14 0 -2
BITMAP
0000
1E00
0C00
0C00
0C00
0F80
0CE0
0C30
0C30
0C30
0CE0
1F80
0000
0000
ENDCHAR
STARTCHAR 042D
ENCODING 1069
SWIDTH 840 0
DWIDTH 14 0
BBX 13 14 0 -2
BITMAP
0000
0780
1CE0
3030
0030
0E18
1B78
01D8
0030
3030
1CE0
0780
0000
0000
ENDCHAR
STARTCHAR 042E
ENCODING 1070
SWIDTH 840 0
DWIDTH 14 0
BBX 13 14 0 -2
BITMAP
0000
79E0
3330
3330
3618
3618
3E18
3618
3618
3330
3330
79E0
0000
0000
ENDCHAR
STARTCHAR 042F
ENCODING 1071
SWIDTH 840 0
DWIDTH 14 0
BBX 13 14 0 -2
BITMAP
0000
07F0
1C60
3060
3060
1C60
07E0
0C60
1860
1860
3060
78F0
0000
0000
ENDCHAR
STARTCHAR 0430
ENCODING 1072
SWIDTH 840 0
DWIDTH 14 0
BBX 13 14 0 -2
BITMAP
0000
0000
0000
0000
0F80
18C0
18C0
07C0
1CC0
30C0
31C0
1F60
0000
0000
ENDCHAR
STARTCHAR 0431
ENCODING 1073
SWIDTH 840 0
DWIDTH 14 0
BBX 13 14 0 -2
BITMAP
0030
01E0
0700
0C00
0D80
1EE0
1830
1830
1830
1830
0EE0
0380
0000
0000
ENDCHAR
STARTCHAR 0432
ENCODING 1074
SWIDTH 840 0
DWIDTH 14 0
BBX 13 14 0 -2
BITMAP
0000
0000
0000
0000
1FC0
0C60
0C60
0FC0
0C60
0C30
0C30
1FE0
0000
0000
ENDCHAR
STARTCHAR 0433
ENCODING 1075
SWIDTH 840 0
DWIDTH 14 0
BBX 13 14 0 -2
BITMAP
0000
0000
0000
0000
3FC0
18C0
1860
1800
1800
1800
1800
3C00
0000
0000
ENDCHAR
STARTCHAR 0434
ENCODING 1076
SWIDTH 840 0
DWIDTH 14 0
BBX 13 14 0 -2
BITMAP
0000
0000
0000
0000
0FF0
0C60
0C60
0C60
0C60
0C60
1860
7FE0
6060
6060
ENDCHAR
STARTCHAR 0435
ENCODING 1077
SWIDTH 840 0
DWIDTH 14 0
BBX 13 14 0 -2
BITMAP
0000
0000
0000
0000
0F80
18C0
3060
3FE0
3000
3060
1CC0
0780
0000
0000
ENDCHAR
STARTCHAR 0436
ENCODING 1078
SWIDTH 840 0
DWIDTH 14 0
BBX 13 14 0 -2
BITMAP
0000
0000
0000
0000
77B8
1B60
0D40
0780
0D40
1B60
1B60
77B8
0000
0000
ENDCHAR
STARTCHAR 0437
ENCODING 1079
SWIDTH 840 0
DWIDTH 14 0
BBX 13 14 0 -2
BITMAP
0000
0000
0000
0000
0F80
18E0
3060
07C0
00E0
3060
18C0
0F80
0000
0000
ENDCHAR
STARTCHAR 0438
ENCODING 1080
SWIDTH 840 0
DWIDTH 14 0
BBX 13 14 0 -2
BITMAP
0000
0000
0000
0000
78F0
30E0
31A0
3360
3660
3460
3860
78F0
0000
0000
ENDCHAR
STARTCHAR 0439
ENCODING 1081
SWIDTH 840 0
DWIDTH 14 0
BBX 13 14 0 -2
BITMAP
0000
0000
0D80
0700
78F0
30E0
31A0
3360
3660
3460
3860
78F0
0000
0000
ENDCHAR
STARTCHAR 043A
ENCODING 1082
SWIDTH 840 0
DWIDTH 14 0
BBX 13 14 0 -2
BITMAP
0000
0000
0000
0000
3CE0
19A0
1B00
1F00
1980
18C0
1860
3CF0
0000
0000
ENDCHAR
STARTCHAR 043B
ENCODING 1083
SWIDTH 840 0
DWIDTH 14 0
BBX 13 14 0 -2
BITMAP
0000
0000
0000
0000
0FF0
0660
0660
0660
0660
6C60
6C60
38F0
0000
0000
ENDCHAR
STARTCHAR 043C
ENCODING 1084
SWIDTH 840 0
DWIDTH 14 0
BBX 13 14 0 -2
BITMAP
0000
0000
0000
0000
7878
3870
34D0
34D0
36B0
36B0
3330
7878
0000
0000
ENDCHAR
STARTCHAR 043D
ENCODING 1085
SWIDTH 840 0
DWIDTH 14 0
BBX 13 14 0 -2
BITMAP
0000
0000
0000
0000
3CF0
1860
1860
1FE0
1860
1860
1860
3CF0
0000
0000
ENDCHAR
STARTCHAR 043E
ENCODING 1086
SWIDTH 840 0
DWIDTH 14 0
BBX 13 14 0 -2
BITMAP
0000
0000
0000
0000
0F80
18C0
3060
3060
3060
3060
18C0
0F80
0000
0000
ENDCHAR
STARTCHAR 043F
ENCODING 1087
SWIDTH 840 0
DWIDTH 14 0
BBX 13 14 0 -2
BITMAP
0000
0000
0000
0000
3FF0
1860
1860
1860
1860
1860
1860
3CF0
0000
0000
ENDCHAR
STARTCHAR 0440
ENCODING 1088
SWIDTH 840 0
DWIDTH 14 0
BBX 13 14 0 -2
BITMAP
0000
0000
0000
0000
1B80
1CC0
1860
1860
1860
1860
1CC0
1B80
1800
3C00
ENDCHAR
STARTCHAR 0441
ENCODING 1089
SWIDTH 840 0
DWIDTH 14 0
BBX 13 14 0 -2
BITMAP
0000
0000
0000
0000
0F80
18C0
3060
3000
3000
3060
18C0
0F80
0000
0000
ENDCHAR
STARTCHAR 0442
ENCODING 1090
SWIDTH 840 0
DWIDTH 14 0
BBX 13 14 0 -2
BITMAP
0000
0000
0000
0000
1FE0
1B60
3330
0300
0300
0300
0300
0780
0000
0000
ENDCHAR
STARTCHAR 0443
ENCODING 1091
SWIDTH 840 0
DWIDTH 14 0
BBX 13 14 0 -2
BITMAP
0000
0000
0000
0000
3CF0
1860
0C60
0CC0
06C0
0680
0380
0300
0600
1C00
ENDCHAR
STARTCHAR 0444
ENCODING 1092
SWIDTH 840 0
DWIDTH 14 0
BBX 13 14 0 -2
BITMAP
0000
0780
0300
0300
1D60
37B0
6318
6318
6318
6318
37B0
1D60
0300
0780
ENDCHAR
STARTCHAR 0445
ENCODING 1093
SWIDTH 840 0
DWIDTH 14 0
BBX 13 14 0 -2
BITMAP
0000
0000
0000
0000
38E0
18C0
0D80
0700
0700
0D80
18C0
38E0
0000
0000
ENDCHAR
STARTCHAR 0446
ENCODING 1094
SWIDTH 840 0
DWIDTH 14 0
BBX 13 14 0 -2
BITMAP
0000
0000
0000
0000
3CF0
1860
1860
1860
1860
1860
1860
3FF0
0030
0030
ENDCHAR
STARTCHAR 0447
ENCODING 1095
SWIDTH 840 0
DWIDTH 14 0
BBX 13 14 0 -2
BITMAP
0000
0000
0000
0000
3CF0
1860
1860
18E0
0FA0
0060
0060
00F0
0000
0000
ENDCHAR
STARTCHAR 0448
ENCODING 1096
SWIDTH 840 0
DWIDTH 14 0
BBX 13 14 0 -2
BITMAP
0000
0000
0000
0000
7BB8
3330
3330
3330
3330
3330
3330
3FF8
0000
0000
ENDCHAR
STARTCHAR 0449
ENCODING 1097
SWIDTH 840 0
DWIDTH 14 0
BBX 13 14 0 -2
BITMAP
0000
0000
0000
0000
7BB8
3330
3330
3330
3330
3330
3330
3FF8
0018
0018
ENDCHAR
STARTCHAR 044A
ENCODING 1098
SWIDTH 840 0
DWIDTH 14 0
BBX 13 14 0 -2
BITMAP
0000
0000
0000
0000
3F00
3600
6600
07C0
0670
0630
0670
0FC0
0000
0000
ENDCHAR
STARTCHAR 044B
ENCODING 1099
SWIDTH 840 0
DWIDTH 14 0
BBX 13 14 0 -2
BITMAP
0000
0000
0000
0000
3CF0
1860
1860
1E60
1BA0
19A0
1BA0
3EF0
0000
0000
ENDCHAR
STARTCHAR 044C
ENCODING 1100
SWIDTH 840 0
DWIDTH 14 0
BBX 13 14 0 -2
BITMAP
0000
0000
0000
0000
1E00
0C00
0C00
0F80
0CE0
0C60
0CE0
1F80
0000
0000
ENDCHAR
STARTCHAR 044D
ENCODING 1101
SWIDTH 840 0
DWIDTH 14 0
BBX 13 14 0 -2
BITMAP
0000
0000
0000
0000
0F80
18E0
3060
0770
0DB0
3060
18C0
0F80
0000
0000
ENDCHAR
STARTCHAR 044E
ENCODING 1102
SWIDTH 840 0
DWIDTH 14 0
BBX 13 14 0 -2
BITMAP
0000
0000
0000
0000
79C0
3360
3630
3E30
3630
3630
3360
79C0
0000
0000
ENDCHAR
STARTCHAR 044F
ENCODING 1103
SWIDTH 840 0
DWIDTH 14 0
BBX 13 14 0 -2
BITMAP
0000
0000
0000
0000
0FE0
18C0
18C0
18C0
0FC0
0CC0
18C0
3DE0
0000
0000
ENDCHAR
STARTCHAR 0451
ENCODING 1105
SWIDTH 840 0
DWIDTH 14 0
BBX 13 14 0 -2
BITMAP
0000
0D80
0D80
0000
0F80
18C0
3060
3FE0
3000
3060
1CC0
0780
0000
0000
ENDCHAR
STARTCHAR 2000
ENCODING 8192
SWIDTH 840 0
DWIDTH 14 0
BBX 13 14 0 -2
BITMAP
0000
0000
0000
0000
0000
0000
0000
0000
0000
0000
0000
0000
0000
0000
ENDCHAR
STARTCHAR 2001
ENCODING 8193
SWIDTH 840 0
DWIDTH 14 0
BBX 13 14 0 -2
BITMAP
0000
0000
0000
0000
0000
0000
0000
0000
0000
0000
0000
0000
0000
0000
ENDCHAR
STARTCHAR 2002
ENCODING 8194
SWIDTH 840 0
DWIDTH 14 0
BBX 13 14 0 -2
BITMAP
0000
0000
0000
0000
0000
0000
0000
0000
0000
0000
0000
0000
0000
0000
ENDCHAR
STARTCHAR 2003
ENCODING 8195
SWIDTH 840 0
DWIDTH 14 0
BBX 13 14 0 -2
BITMAP
0000
0000
0000
0000
0000
0000
0000
0000
0000
0000
0000
0000
0000
0000
ENDCHAR
STARTCHAR 2004
ENCODING 8196
SWIDTH 840 0
DWIDTH 14 0
BBX 13 14 0 -2
BITMAP
0000
0000
0000
0000
0000
0000
0000
0000
0000
0000
0000
0000
0000
0000
ENDCHAR
STARTCHAR 2005
ENCODING 8197
SWIDTH 840 0
DWIDTH 14 0
BBX 13 14 0 -2
BITMAP
0000
0000
0000
0000
0000
0000
0000
0000
0000
0000
0000
0000
0000
0000
ENDCHAR
STARTCHAR 2006
ENCODING 8198
SWIDTH 840 0
DWIDTH 14 0
BBX 13 14 0 -2
BITMAP
0000
0000
0000
0000
0000
0000
0000
0000
0000
0000
0000
0000
0000
0000
ENDCHAR
STARTCHAR 2007
ENCODING 8199
SWIDTH 840 0
DWIDTH 14 0
BBX 13 14 0 -2
BITMAP
0000
0000
0000
0000
0000
0000
0000
0000
0000
0000
0000
0000
0000
0000
ENDCHAR
STARTCHAR 2008
ENCODING 8200
SWIDTH 840 0
DWIDTH 14 0
BBX 13 14 0 -2
BITMAP
0000
0000
0000
0000
0000
0000
0000
0000
0000
0000
0000
0000
0000
0000
ENDCHAR
STARTCHAR 2009
ENCODING 8201
SWIDTH 840 0
DWIDTH 14 0
BBX 13 14 0 -2
BITMAP
0000
0000
0000
0000
0000
0000
0000
0000
0000
0000
0000
0000
0000
0000
ENDCHAR
STARTCHAR 200A
ENCODING 8202
SWIDTH 840 0
DWIDTH 14 0
BBX 13 14 0 -2
BITMAP
0000
0000
0000
0000
0000
0000
0000
0000
0000
0000
0000
0000
0000
0000
ENDCHAR
STARTCHAR 200B
ENCODING 8203
SWIDTH 420 0
DWIDTH 7 0
BBX 1 1 0 0
BITMAP
00
ENDCHAR
STARTCHAR 200C
ENCODING 8204
SWIDTH 420 0
DWIDTH 7 0
BBX 1 1 0 0
BITMAP
00
ENDCHAR
STARTCHAR 200D
ENCODING 8205
SWIDTH 420 0
DWIDTH 7 0
BBX 1 1 0 0
BITMAP
00
ENDCHAR
STARTCHAR 200E
ENCODING 8206
SWIDTH 420 0
DWIDTH 7 0
BBX 1 1 0 0
BITMAP
00
ENDCHAR
STARTCHAR 200F
ENCODING 8207
SWIDTH 420 0
DWIDTH 7 0
BBX 1 1 0 0
BITMAP
00
ENDCHAR
STARTCHAR 2010
ENCODING 8208
SWIDTH 840 0
DWIDTH 14 0
BBX 14 14 0 -2
BITMAP
0000
0000
0000
0000
0000
0000
0FC0
0000
0000
0000
0000
0000
0000
0000
ENDCHAR
STARTCHAR 2014
ENCODING 8212
SWIDTH 840 0
DWIDTH 14 0
BBX 14 14 0 -2
BITMAP
0000
0000
0000
0000
0000
0000
FFFC
0000
0000
0000
0000
0000
0000
0000
ENDCHAR
STARTCHAR 2015
ENCODING 8213
SWIDTH 840 0
DWIDTH 14 0
BBX 14 14 0 -2
BITMAP
0000
0000
0000
0000
0000
0000
FFFC
0000
0000
0000
0000
0000
0000
0000
ENDCHAR
STARTCHAR 2016
ENCODING 8214
SWIDTH 840 0
DWIDTH 14 0
BBX 14 14 0 -2
BITMAP
0D80
0D80
0D80
0D80
0D80
0D80
0D80
0D80
0D80
0D80
0D80
0D80
0D80
0D80
ENDCHAR
STARTCHAR 2018
ENCODING 8216
SWIDTH 840 0
DWIDTH 14 0
BBX 14 14 0 -2
BITMAP
0018
0030
0060
0060
0070
0000
0000
0000
0000
0000
0000
0000
0000
0000
ENDCHAR
STARTCHAR 2019
ENCODING 8217
SWIDTH 840 0
DWIDTH 14 0
BBX 14 14 0 -2
BITMAP
7000
3000
3000
6000
C000
0000
0000
0000
0000
0000
0000
0000
0000
0000
ENDCHAR
STARTCHAR 201C
ENCODING 8220
SWIDTH 840 0
DWIDTH 14 0
BBX 14 14 0 -2
BITMAP
0198
0330
0770
0770
0770
0000
0000
0000
0000
0000
0000
0000
0000
0000
ENDCHAR
STARTCHAR 201D
ENCODING 8221
SWIDTH 840 0
DWIDTH 14 0
BBX 14 14 0 -2
BITMAP
7700
3300
3300
6600
CC00
0000
0000
0000
0000
0000
0000
0000
0000
0000
ENDCHAR
STARTCHAR 2020
ENCODING 8224
SWIDTH 840 0
DWIDTH 14 0
BBX 14 14 0 -2
BITMAP
0300
0780
0300
1B60
3FF0
1B60
0780
0780
0300
0300
0300
0300
0300
0300
ENDCHAR
STARTCHAR 2021
ENCODING 8225
SWIDTH 840 0
DWIDTH 14 0
BBX 14 14 0 -2
BITMAP
0300
0780
1B60
3FF0
1B60
0780
0300
0300
0780
1B60
3FF0
1B60
0780
0300
ENDCHAR
STARTCHAR 2025
ENCODING 8229
SWIDTH 840 0
DWIDTH 14 0
BBX 14 14 0 -2
BITMAP
0000
0000
0000
0000
0000
0000
30C0
30C0
0000
0000
0000
0000
0000
0000
ENDCHAR
STARTCHAR 2026
ENCODING 8230
SWIDTH 840 0
DWIDTH 14 0
BBX 14 14 0 -2
BITMAP
0000
0000
0000
0000
0000
0000
7770
7770
0000
0000
0000
0000
0000
0000
ENDCHAR
STARTCHAR 2030
ENCODING 8240
SWIDTH 840 0
DWIDTH 14 0
BBX 14 14 0 -2
BITMAP
0000
3860
6CC0
EE80
EE80
6D00
3A00
0730
0EA8
1EEC
36EC
36A8
6330
0000
ENDCHAR
STARTCHAR 2032
ENCODING 8242
SWIDTH 840 0
DWIDTH 14 0
BBX 14 14 0 -2
BITMAP
0000
3800
3800
3000
6000
0000
0000
0000
0000
0000
0000
0000
0000
0000
ENDCHAR
STARTCHAR 2033
ENCODING 8243
SWIDTH 840 0
DWIDTH 14 0
BBX 14 14 0 -2
BITMAP
0000
3B00
3B00
3600
6C00
0000
0000
0000
0000
0000
0000
0000
0000
0000
ENDCHAR
STARTCHAR 203B
ENCODING 8251
SWIDTH 840 0
DWIDTH 14 0
BBX 14 14 0 -2
BITMAP
0000
0000
6318
37B0
1B60
0CC0
36B0
7B78
36B0
0CC0
1B60
37B0
6318
0000
ENDCHAR
STARTCHAR 203E
ENCODING 8254
SWIDTH 840 0
DWIDTH 14 0
BBX 14 14 0 -2
BITMAP
FFFC
0000
0000
0000
0000
0000
0000
0000
0000
0000
0000
0000
0000
0000
ENDCHAR
STARTCHAR 2103
ENCODING 8451
SWIDTH 840 0
DWIDTH 14 0
BBX 14 14 0 -2
BITMAP
0000
7000
D9E8
DB38
7618
0C00
0C00
0C00
0C00
0C00
0618
0330
01E0
0000
ENDCHAR
STARTCHAR 212B
ENCODING 8491
SWIDTH 840 0
DWIDTH 14 0
BBX 14 14 0 -2
BITMAP
0700
0D80
0D80
0700
0300
0680
0680
0CC0
0CC0
1860
1FE0
3030
7878
0000
ENDCHAR
STARTCHAR 2190
ENCODING 8592
SWIDTH 840 0
DWIDTH 14 0
BBX 14 14 0 -2
BITMAP
0000
0000
0000
0600
0C00
3800
FFF8
3800
0C00
0600
0000
0000
0000
0000
ENDCHAR
STARTCHAR 2191
ENCODING 8593
SWIDTH 840 0
DWIDTH 14 0
BBX 14 14 0 -2
BITMAP
0000
0300
0300
0780
0780
0D40
1B60
0300
0300
0300
0300
0300
0300
0000
ENDCHAR
STARTCHAR 2192
ENCODING 8594
SWIDTH 840 0
DWIDTH 14 0
BBX 14 14 0 -2
BITMAP
0000
0000
0000
0300
0180
00E0
FFF8
00E0
0180
0300
0000
0000
0000
0000
ENDCHAR
STARTCHAR 2193
ENCODING 8595
SWIDTH 840 0
DWIDTH 14 0
BBX 14 14 0 -2
BITMAP
0000
0300
0300
0300
0300
0300
0300
1B60
0D40
0780
0780
0300
0300
0000
ENDCHAR
STARTCHAR 21D2
ENCODING 8658
SWIDTH 840 0
DWIDTH 14 0
BBX 14 14 0 -2
BITMAP
0000
0000
0000
00C0
0060
FFF0
0018
FFF0
0060
00C0
0000
0000
0000
0000
ENDCHAR
STARTCHAR 21D4
ENCODING 8660
SWIDTH 840 0
DWIDTH 14 0
BBX 14 14 0 -2
BITMAP
0000
0000
0000
18C0
3060
7FF0
C018
7FF0
3060
18C0
0000
0000
0000
0000
ENDCHAR
STARTCHAR 2200
ENCODING 8704
SWIDTH 840 0
DWIDTH 14 0
BBX 14 14 0 -2
BITMAP
0000
6018
6018
3030
3FF0
1860
1860
0CC0
0CC0
0680
0680
0300
0300
0000
ENDCHAR
STARTCHAR 2202
ENCODING 8706
SWIDTH 840 0
DWIDTH 14 0
BBX 14 14 0 -2
BITMAP
0000
03C0
06E0
0060
0060
07A0
0EE0
0CE0
1CE0
1CC0
1DC0
0D80
0700
0000
ENDCHAR
STARTCHAR 2203
ENCODING 8707
SWIDTH 840 0
DWIDTH 14 0
BBX 14 14 0 -2
BITMAP
0000
3FE0
0060
0060
0060
0060
3FE0
0060
0060
0060
0060
3FE0
0000
0000
ENDCHAR
STARTCHAR 2207
ENCODING 8711
SWIDTH 840 0
DWIDTH 14 0
BBX 14 14 0 -2
BITMAP
0000
0000
7FF8
3FF0
3830
1860
1C60
0CC0
0EC0
0680
0780
0300
0300
0000
ENDCHAR
STARTCHAR 2208
ENCODING 8712
SWIDTH 840 0
DWIDTH 14 0
BBX 14 14 0 -2
BITMAP
0000
0000
07F0
1C00
3000
6000
7FF0
6000
3000
1C00
07F0
0000
0000
0000
ENDCHAR
STARTCHAR 220B
ENCODING 8715
SWIDTH 840 0
DWIDTH 14 0
BBX 14 14 0 -2
BITMAP
0000
0000
7F00
01C0
0060
0030
7FF0
0030
0060
01C0
7F00
0000
0000
0000
ENDCHAR
STARTCHAR 2212
ENCODING 8722
SWIDTH 840 0
DWIDTH 14 0
BBX 14 14 0 -2
BITMAP
0000
0000
0000
0000
0000
0000
7FF8
0000
0000
0000
0000
0000
0000
0000
ENDCHAR
STARTCHAR 221A
ENCODING 8730
SWIDTH 840 0
DWIDTH 14 0
BBX 14 14 0 -2
BITMAP
0000
03F8
0300
0300
0300
0600
0600
0600
6600
F400
3C00
1C00
0C00
0000
ENDCHAR
STARTCHAR 221D
ENCODING 8733
SWIDTH 840 0
DWIDTH 14 0
BBX 14 14 0 -2
BITMAP
0000
0000
0000
0000
0E70
1B40
3180
3180
1B40
0E70
0000
0000
0000
0000
ENDCHAR
STARTCHAR 221E
ENCODING 8734
SWIDTH 840 0
DWIDTH 14 0
BBX 14 14 0 -2
BITMAP
0000
0000
0000
0000
3CF0
76D8
6798
6798
76D8
3CF0
0000
0000
0000
0000
ENDCHAR
STARTCHAR 2220
ENCODING 8736
SWIDTH 840 0
DWIDTH 14 0
BBX 14 14 0 -2
BITMAP
0000
0000
0030
0060
00C0
0180
0300
0600
0C00
1800
3000
7FF0
0000
0000
ENDCHAR
STARTCHAR 2225
ENCODING 8741
SWIDTH 840 0
DWIDTH 14 0
BBX 14 14 0 -2
BITMAP
0D80
0D80
0D80
0D80
0D80
0D80
0D80
0D80
0D80
0D80
0D80
0D80
0D80
0D80
ENDCHAR
STARTCHAR 2227
ENCODING 8743
SWIDTH 840 0
DWIDTH 14 0
BBX 14 14 0 -2
BITMAP
0000
0000
0300
0300
0680
0680
0CC0
0CC0
1860
1860
3030
3030
0000
0000
ENDCHAR
STARTCHAR 2228
ENCODING 8744
SWIDTH 840 0
DWIDTH 14 0
BBX 14 14 0 -2
BITMAP
0000
0000
3030
3030
1860
1860
0CC0
0CC0
0680
0680
0300
0300
0000
0000
ENDCHAR
STARTCHAR 2229
ENCODING 8745
SWIDTH 840 0
DWIDTH 14 0
BBX 14 14 0 -2
BITMAP
0000
0000
0F80
18C0
3060
3060
6030
6030
6030
6030
6030
6030
0000
0000
ENDCHAR
STARTCHAR 222A
ENCODING 8746
SWIDTH 840 0
DWIDTH 14 0
BBX 14 14 0 -2
BITMAP
0000
0000
6030
6030
6030
6030
6030
6030
3060
3060
18C0
0F80
0000
0000
ENDCHAR
STARTCHAR 222B
ENCODING 8747
SWIDTH 840 0
DWIDTH 14 0
BBX 14 14 0 -2
BITMAP
01C0
0300
0600
0600
0700
0700
0380
0380
01C0
01C0
00C0
00C0
0180
0700
ENDCHAR
STARTCHAR 222C
ENCODING 8748
SWIDTH 840 0
DWIDTH 14 0
BBX 14 14 0 -2
BITMAP
0EE0
1980
3300
3300
3B80
3B80
1DC0
1DC0
0EE0
0EE0
0660
0660
0CC0
3B80
ENDCHAR
STARTCHAR 2234
ENCODING 8756
SWIDTH 840 0
DWIDTH 14 0
BBX 14 14 0 -2
BITMAP
0000
0000
0300
0780
0300
0000
0000
0000
0000
3030
7878
3030
0000
0000
ENDCHAR
STARTCHAR 2235
ENCODING 8757
SWIDTH 840 0
DWIDTH 14 0
BBX 14 14 0 -2
BITMAP
0000
0000
3030
7878
3030
0000
0000
0000
0000
0300
0780
0300
0000
0000
ENDCHAR
STARTCHAR 223D
ENCODING 8765
SWIDTH 840 0
DWIDTH 14 0
BBX 14 14 0 -2
BITMAP
0000
0000
0000
0000
1CE0
31B0
6318
6318
3630
1CE0
0000
0000
0000
0000
ENDCHAR
STARTCHAR 2252
ENCODING 8786
SWIDTH 840 0
DWIDTH 14 0
BBX 14 14 0 -2
BITMAP
0000
0000
1800
3C00
1800
7FF0
0000
0000
7FF0
00C0
01E0
00C0
0000
0000
ENDCHAR
STARTCHAR 2260
ENCODING 8800
SWIDTH 840 0
DWIDTH 14 0
BBX 14 14 0 -2
BITMAP
0000
0180
0180
0180
7FF8
0300
0300
0300
7FF8
0600
0600
0600
0000
0000
ENDCHAR
STARTCHAR 2261
ENCODING 8801
SWIDTH 840 0
DWIDTH 14 0
BBX 14 14 0 -2
BITMAP
0000
0000
0000
7FF0
0000
0000
7FF0
0000
0000
7FF0
0000
0000
0000
0000
ENDCHAR
STARTCHAR 2266
ENCODING 8806
SWIDTH 840 0
DWIDTH 14 0
BBX 14 14 0 -2
BITMAP
0070
01C0
0700
1C00
7000
1C00
0700
01C0
0070
0000
7FF8
0000
7FF8
0000
ENDCHAR
STARTCHAR 2267
ENCODING 8807
SWIDTH 840 0
DWIDTH 14 0
BBX 14 14 0 -2
BITMAP
7000
1C00
0700
01C0
0070
01C0
0700
1C00
7000
0000
7FF8
0000
7FF8
0000
ENDCHAR
STARTCHAR 226A
ENCODING 8810
SWIDTH 840 0
DWIDTH 14 0
BBX 14 14 0 -2
BITMAP
0000
0330
0660
0CC0
1980
3300
6600
3300
1980
0CC0
0660
0330
0000
0000
ENDCHAR
STARTCHAR 226B
ENCODING 8811
SWIDTH 840 0
DWIDTH 14 0
BBX 14 14 0 -2
BITMAP
0000
6600
3300
1980
0CC0
0660
0330
0660
0CC0
1980
3300
6600
0000
0000
ENDCHAR
STARTCHAR 2282
ENCODING 8834
SWIDTH 840 0
DWIDTH 14 0
BBX 14 14 0 -2
BITMAP
0000
0000
07F0
1C00
3000
6000
6000
6000
6000
3000
1C00
07F0
0000
0000
ENDCHAR
STARTCHAR 2283
ENCODING 8835
SWIDTH 840 0
DWIDTH 14 0
BBX 14 14 0 -2
BITMAP
0000
0000
7F00
01C0
0060
0030
0030
0030
0030
0060
01C0
7F00
0000
0000
ENDCHAR
STARTCHAR 2286
ENCODING 8838
SWIDTH 840 0
DWIDTH 14 0
BBX 14 14 0 -2
BITMAP
0000
0000
1FF0
3000
6000
6000
6000
3000
1FF0
0000
0000
7FF0
0000
0000
ENDCHAR
STARTCHAR 2287
ENCODING 8839
SWIDTH 840 0
DWIDTH 14 0
BBX 14 14 0 -2
BITMAP
0000
0000
7FC0
0060
0030
0030
0030
0060
7FC0
0000
0000
7FF0
0000
0000
ENDCHAR
STARTCHAR 22A5
ENCODING 8869
SWIDTH 840 0
DWIDTH 14 0
BBX 14 14 0 -2
BITMAP
0000
0000
0300
0300
0300
0300
0300
0300
0300
0300
0300
7FF8
0000
0000
ENDCHAR
STARTCHAR 2312
ENCODING 8978
SWIDTH 840 0
DWIDTH 14 0
BBX 14 14 0 -2
BITMAP
0000
1FE0
7038
C00C
0000
0000
0000
0000
0000
0000
0000
0000
0000
0000
ENDCHAR
STARTCHAR 2500
ENCODING 9472
SWIDTH 840 0
DWIDTH 14 0
BBX 14 14 0 -2
BITMAP
0000
0000
0000
0000
0000
0000
0000
FFFC
0000
0000
0000
0000
0000
0000
ENDCHAR
STARTCHAR 2501
ENCODING 9473
SWIDTH 840 0
DWIDTH 14 0
BBX 14 14 0 -2
BITMAP
0000
0000
0000
0000
0000
0000
FFFC
FFFC
0000
0000
0000
0000
0000
0000
ENDCHAR
STARTCHAR 2502
ENCODING 9474
SWIDTH 840 0
DWIDTH 14 0
BBX 14 14 0 -2
BITMAP
0300
0300
0300
0300
0300
0300
0300
0300
0300
0300
0300
0300
0300
0300
ENDCHAR
STARTCHAR 2503
ENCODING 9475
SWIDTH 840 0
DWIDTH 14 0
BBX 14 14 0 -2
BITMAP
0700
0700
0700
0700
0700
0700
0700
0700
0700
0700
0700
0700
0700
0700
ENDCHAR
STARTCHAR 250C
ENCODING 9484
SWIDTH 840 0
DWIDTH 14 0
BBX 14 14 0 -2
BITMAP
0000
0000
0000
0000
0000
0000
0000
03FC
0300
0300
0300
0300
0300
0300
ENDCHAR
STARTCHAR 250F
ENCODING 9487
SWIDTH 840 0
DWIDTH 14 0
BBX 14 14 0 -2
BITMAP
0000
0000
0000
0000
0000
0000
07FC
07FC
0700
0700
0700
0700
0700
0700
ENDCHAR
STARTCHAR 2510
ENCODING 9488
SWIDTH 840 0
DWIDTH 14 0
BBX 14 14 0 -2
BITMAP
0000
0000
0000
0000
0000
0000
0000
FF00
0300
0300
0300
0300
0300
0300
ENDCHAR
STARTCHAR 2513
ENCODING 9491
SWIDTH 840 0
DWIDTH 14 0
BBX 14 14 0 -2
BITMAP
0000
0000
0000
0000
0000
0000
FF00
FF00
0700
0700
0700
0700
0700
0700
ENDCHAR
STARTCHAR 2514
ENCODING 9492
SWIDTH 840 0
DWIDTH 14 0
BBX 14 14 0 -2
BITMAP
0300
0300
0300
0300
0300
0300
0300
03FC
0000
0000
0000
0000
0000
0000
ENDCHAR
STARTCHAR 2517
ENCODING 9495
SWIDTH 840 0
DWIDTH 14 0
BBX 14 14 0 -2
BITMAP
0700
0700
0700
0700
0700
0700
07FC
07FC
0000
0000
0000
0000
0000
0000
ENDCHAR
STARTCHAR 2518
ENCODING 9496
SWIDTH 840 0
DWIDTH 14 0
BBX 14 14 0 -2
BITMAP
0300
0300
0300
0300
0300
0300
0300
FF00
0000
0000
0000
0000
0000
0000
ENDCHAR
STARTCHAR 251B
ENCODING 9499
SWIDTH 840 0
DWIDTH 14 0
BBX 14 14 0 -2
BITMAP
0700
0700
0700
0700
0700
0700
FF00
FF00
0000
0000
0000
0000
0000
0000
ENDCHAR
STARTCHAR 251C
ENCODING 9500
SWIDTH 840 0
DWIDTH 14 0
BBX 14 14 0 -2
BITMAP
0300
0300
0300
0300
0300
0300
0300
03FC
0300
0300
0300
0300
0300
0300
ENDCHAR
STARTCHAR 251D
ENCODING 9501
SWIDTH 840 0
DWIDTH 14 0
BBX 14 14 0 -2
BITMAP
0300
0300
0300
0300
0300
0300
03FC
03FC
0300
0300
0300
0300
0300
0300
ENDCHAR
STARTCHAR 2520
ENCODING 9504
SWIDTH 840 0
DWIDTH 14 0
BBX 14 14 0 -2
BITMAP
0700
0700
0700
0700
0700
0700
0700
07FC
0700
0700
0700
0700
0700
0700
ENDCHAR
STARTCHAR 2523
ENCODING 9507
SWIDTH 840 0
DWIDTH 14 0
BBX 14 14 0 -2
BITMAP
0700
0700
0700
0700
0700
0700
07FC
07FC
0700
0700
0700
0700
0700
0700
ENDCHAR
STARTCHAR 2524
ENCODING 9508
SWIDTH 840 0
DWIDTH 14 0
BBX 14 14 0 -2
BITMAP
0300
0300
0300
0300
0300
0300
0300
FF00
0300
0300
0300
0300
0300
0300
ENDCHAR
STARTCHAR 2525
ENCODING 9509
SWIDTH 840 0
DWIDTH 14 0
BBX 14 14 0 -2
BITMAP
0300
0300
0300
0300
0300
0300
FF00
FF00
0300
0300
0300
0300
0300
0300
ENDCHAR
STARTCHAR 2528
ENCODING 9512
SWIDTH 840 0
DWIDTH 14 0
BBX 14 14 0 -2
BITMAP
0700
0700
0700
0700
0700
0700
0700
FF00
0700
0700
0700
0700
0700
0700
ENDCHAR
STARTCHAR 252B
ENCODING 9515
SWIDTH 840 0
DWIDTH 14 0
BBX 14 14 0 -2
BITMAP
0700
0700
0700
0700
0700
0700
FF00
FF00
0700
0700
0700
0700
0700
0700
ENDCHAR
STARTCHAR 252C
ENCODING 9516
SWIDTH 840 0
DWIDTH 14 0
BBX 14 14 0 -2
BITMAP
0000
0000
0000
0000
0000
0000
0000
FFFC
0300
0300
0300
0300
0300
0300
ENDCHAR
STARTCHAR 252F
ENCODING 9519
SWIDTH 840 0
DWIDTH 14 0
BBX 14 14 0 -2
BITMAP
0000
0000
0000
0000
0000
0000
FFFC
FFFC
0300
0300
0300
0300
0300
0300
ENDCHAR
STARTCHAR 2530
ENCODING 9520
SWIDTH 840 0
DWIDTH 14 0
BBX 14 14 0 -2
BITMAP
0000
0000
0000
0000
0000
0000
0000
FFFC
0700
0700
0700
0700
0700
0700
ENDCHAR
STARTCHAR 2533
ENCODING 9523
SWIDTH 840 0
DWIDTH 14 0
BBX 14 14 0 -2
BITMAP
0000
0000
0000
0000
0000
0000
FFFC
FFFC
0700
0700
0700
0700
0700
0700
ENDCHAR
STARTCHAR 2534
ENCODING 9524
SWIDTH 840 0
DWIDTH 14 0
BBX 14 14 0 -2
BITMAP
0300
0300
0300
0300
0300
0300
0300
FFFC
0000
0000
0000
0000
0000
0000
ENDCHAR
STARTCHAR 2537
ENCODING 9527
SWIDTH 840 0
DWIDTH 14 0
BBX 14 14 0 -2
BITMAP
0300
0300
0300
0300
0300
0300
FFFC
FFFC
0000
0000
0000
0000
0000
0000
ENDCHAR
STARTCHAR 2538
ENCODING 9528
SWIDTH 840 0
DWIDTH 14 0
BBX 14 14 0 -2
BITMAP
0700
0700
0700
0700
0700
0700
0700
FFFC
0000
0000
0000
0000
0000
0000
ENDCHAR
STARTCHAR 253B
ENCODING 9531
SWIDTH 840 0
DWIDTH 14 0
BBX 14 14 0 -2
BITMAP
0700
0700
0700
0700
0700
0700
FFFC
FFFC
0000
0000
0000
0000
0000
0000
ENDCHAR
STARTCHAR 253C
ENCODING 9532
SWIDTH 840 0
DWIDTH 14 0
BBX 14 14 0 -2
BITMAP
0300
0300
0300
0300
0300
0300
0300
FFFC
0300
0300
0300
0300
0300
0300
ENDCHAR
STARTCHAR 253F
ENCODING 9535
SWIDTH 840 0
DWIDTH 14 0
BBX 14 14 0 -2
BITMAP
0300
0300
0300
0300
0300
0300
FFFC
FFFC
0300
0300
0300
0300
0300
0300
ENDCHAR
STARTCHAR 2542
ENCODING 9538
SWIDTH 840 0
DWIDTH 14 0
BBX 14 14 0 -2
BITMAP
0700
0700
0700
0700
0700
0700
0700
FFFC
0700
0700
0700
0700
0700
0700
ENDCHAR
STARTCHAR 254B
ENCODING 9547
SWIDTH 840 0
DWIDTH 14 0
BBX 14 14 0 -2
BITMAP
0700
0700
0700
0700
0700
0700
FFFC
FFFC
0700
0700
0700
0700
0700
0700
ENDCHAR
STARTCHAR 25A0
ENCODING 9632
SWIDTH 840 0
DWIDTH 14 0
BBX 14 14 0 -2
BITMAP
0000
FFF8
FFF8
FFF8
FFF8
FFF8
FFF8
FFF8
FFF8
FFF8
FFF8
FFF8
FFF8
0000
ENDCHAR
STARTCHAR 25A1
ENCODING 9633
SWIDTH 840 0
DWIDTH 14 0
BBX 14 14 0 -2
BITMAP
0000
FFF8
C018
C018
C018
C018
C018
C018
C018
C018
C018
C018
FFF8
0000
ENDCHAR
STARTCHAR 25B2
ENCODING 9650
SWIDTH 840 0
DWIDTH 14 0
BBX 14 14 0 -2
BITMAP
0000
0300
0300
0780
0780
0FC0
0FC0
1FE0
1FE0
3FF0
3FF0
7FF8
0000
0000
ENDCHAR
STARTCHAR 25B3
ENCODING 9651
SWIDTH 840 0
DWIDTH 14 0
BBX 14 14 0 -2
BITMAP
0000
0300
0300
0680
0680
0CC0
0CC0
1860
1860
3030
3030
7FF8
0000
0000
ENDCHAR
STARTCHAR 25BC
ENCODING 9660
SWIDTH 840 0
DWIDTH 14 0
BBX 14 14 0 -2
BITMAP
0000
7FF8
3FF0
3FF0
1FE0
1FE0
0FC0
0FC0
0780
0780
0300
0300
0000
0000
ENDCHAR
STARTCHAR 25BD
ENCODING 9661
SWIDTH 840 0
DWIDTH 14 0
BBX 14 14 0 -2
BITMAP
0000
7FF8
3030
3030
1860
1860
0CC0
0CC0
0680
0680
0300
0300
0000
0000
ENDCHAR
STARTCHAR 25C6
ENCODING 9670
SWIDTH 840 0
DWIDTH 14 0
BBX 14 14 0 -2
BITMAP
0000
0300
0780
0FC0
1FE0
3FF0
7FF8
FFFC
7FF8
3FF0
1FE0
0FC0
0780
0300
ENDCHAR
STARTCHAR 25C7
ENCODING 9671
SWIDTH 840 0
DWIDTH 14 0
BBX 14 14 0 -2
BITMAP
0000
0300
0680
0CC0
1860
3030
6018
C00C
6018
3030
1860
0CC0
0680
0300
ENDCHAR
STARTCHAR 25CB
ENCODING 9675
SWIDTH 840 0
DWIDTH 14 0
BBX 14 14 0 -2
BITMAP
0000
0000
0780
1CE0
3030
3030
6018
6018
6018
3030
3030
1CE0
0780
0000
ENDCHAR
STARTCHAR 25CE
ENCODING 9678
SWIDTH 840 0
DWIDTH 14 0
BBX 14 14 0 -2
BITMAP
0000
0000
0780
1CE0
37B0
34D0
6868
6868
6868
34D0
37B0
1CE0
0780
0000
ENDCHAR
STARTCHAR 25CF
ENCODING 9679
SWIDTH 840 0
DWIDTH 14 0
BBX 14 14 0 -2
BITMAP
0000
0000
0780
1FE0
3FF0
3FF0
7FF8
7FF8
7FF8
3FF0
3FF0
1FE0
0780
0000
ENDCHAR
STARTCHAR 25EF
ENCODING 9711
SWIDTH 840 0
DWIDTH 14 0
BBX 14 14 0 -2
BITMAP
0000
0FC0
3870
6018
6018
C00C
C00C
C00C
C00C
C00C
6018
6018
3870
0FC0
ENDCHAR
STARTCHAR 2605
ENCODING 9733
SWIDTH 840 0
DWIDTH 14 0
BBX 14 14 0 -2
BITMAP
0000
0300
0300
0780
0780
FFFC
7FF8
1FE0
0FC0
1FE0
1EE0
3CF0
3030
0000
ENDCHAR
STARTCHAR 2606
ENCODING 9734
SWIDTH 840 0
DWIDTH 14 0
BBX 14 14 0 -2
BITMAP
0000
0300
0300
0680
0680
FCFC
7038
1CE0
0CC0
1B60
1AA0
3CF0
3030
0000
ENDCHAR
STARTCHAR 2640
ENCODING 9792
SWIDTH 840 0
DWIDTH 14 0
BBX 14 14 0 -2
BITMAP
0000
0780
0CC0
1860
1860
1860
0CC0
0780
0300
0300
3FF0
0300
0300
0300
ENDCHAR
STARTCHAR 2642
ENCODING 9794
SWIDTH 840 0
DWIDTH 14 0
BBX 14 14 0 -2
BITMAP
0000
07F8
0038
0068
00D8
0198
3D18
6618
C300
C300
C300
6600
3C00
0000
ENDCHAR
STARTCHAR 266A
ENCODING 9834
SWIDTH 840 0
DWIDTH 14 0
BBX 14 14 0 -2
BITMAP
0300
0380
03C0
0360
0360
0370
0330
0330
0330
0F60
1F00
1F00
0E00
0000
ENDCHAR
STARTCHAR 266D
ENCODING 9837
SWIDTH 840 0
DWIDTH 14 0
BBX 14 14 0 -2
BITMAP
0000
0C00
0C00
0C00
0C00
0C00
0DC0
0EE0
0CE0
0CC0
0D80
0D00
0E00
0000
ENDCHAR
STARTCHAR 266F
ENCODING 9839
SWIDTH 840 0
DWIDTH 14 0
BBX 14 14 0 -2
BITMAP
0180
0D80
0DE0
0FE0
3F80
3D80
0D80
0DE0
0FE0
3F80
3D80
0D80
0C00
0000
ENDCHAR
STARTCHAR 3000
ENCODING 12288
SWIDTH 840 0
DWIDTH 14 0
BBX 14 14 0 -2
BITMAP
0000
0000
0000
0000
0000
0000
0000
0000
0000
0000
0000
0000
0000
0000
ENDCHAR
STARTCHAR 3001
ENCODING 12289
SWIDTH 840 0
DWIDTH 14 0
BBX 14 14 0 -2
BITMAP
0000
0000
0000
0000
0000
0000
0000
0000
0000
0000
C000
6000
3000
3000
ENDCHAR
STARTCHAR 3002
ENCODING 12290
SWIDTH 840 0
DWIDTH 14 0
BBX 14 14 0 -2
BITMAP
0000
0000
0000
0000
0000
0000
0000
0000
0000
0000
7000
D800
D800
7000
ENDCHAR
STARTCHAR 3003
ENCODING 12291
SWIDTH 840 0
DWIDTH 14 0
BBX 14 14 0 -2
BITMAP
0000
0000
0000
0000
0CC0
0CC0
0CC0
1980
1980
3300
0000
0000
0000
0000
ENDCHAR
STARTCHAR 3005
ENCODING 12293
SWIDTH 840 0
DWIDTH 14 0
BBX 14 14 0 -2
BITMAP
0000
0000
0600
0600
07F0
0C60
0C60
18C0
3680
0380
00C0
0060
0000
0000
ENDCHAR
STARTCHAR 3006
ENCODING 12294
SWIDTH 840 0
DWIDTH 14 0
BBX 14 14 0 -2
BITMAP
0000
0000
0030
0030
0060
0EC0
1B80
1B00
3680
3400
3800
3000
6000
0000
ENDCHAR
STARTCHAR 3007
ENCODING 12295
SWIDTH 840 0
DWIDTH 14 0
BBX 14 14 0 -2
BITMAP
0000
0FC0
3870
6018
6018
C00C
C00C
C00C
C00C
C00C
6018
6018
3870
0FC0
ENDCHAR
STARTCHAR 3008
ENCODING 12296
SWIDTH 840 0
DWIDTH 14 0
BBX 14 14 0 -2
BITMAP
0018
0030
0060
00C0
0180
0300
0600
0600
0300
0180
00C0
0060
0030
0018
ENDCHAR
STARTCHAR 3009
ENCODING 12297
SWIDTH 840 0
DWIDTH 14 0
BBX 14 14 0 -2
BITMAP
C000
6000
3000
1800
0C00
0600
0300
0300
0600
0C00
1800
3000
6000
C000
ENDCHAR
STARTCHAR 300A
ENCODING 12298
SWIDTH 840 0
DWIDTH 14 0
BBX 14 14 0 -2
BITMAP
00D8
00D8
01B0
01B0
0360
0360
06C0
06C0
0360
0360
01B0
01B0
00D8
00D8
ENDCHAR
STARTCHAR 300B
ENCODING 12299
SWIDTH 840 0
DWIDTH 14 0
BBX 14 14 0 -2
BITMAP
D800
D800
6C00
6C00
3600
3600
1B00
1B00
3600
3600
6C00
6C00
D800
D800
ENDCHAR
STARTCHAR 300C
ENCODING 12300
SWIDTH 840 0
DWIDTH 14 0
BBX 14 14 0 -2
BITMAP
03F8
0300
0300
0300
0300
0300
0300
0300
0300
0300
0300
0300
0300
0300
ENDCHAR
STARTCHAR 300D
ENCODING 12301
SWIDTH 840 0
DWIDTH 14 0
BBX 14 14 0 -2
BITMAP
0600
0600
0600
0600
0600
0600
0600
0600
0600
0600
0600
0600
0600
FE00
ENDCHAR
STARTCHAR 300E
ENCODING 12302
SWIDTH 840 0
DWIDTH 14 0
BBX 14 14 0 -2
BITMAP
07F8
0618
06F8
0680
0680
0680
0680
0680
0680
0680
0680
0680
0680
0780
ENDCHAR
STARTCHAR 300F
ENCODING 12303
SWIDTH 840 0
DWIDTH 14 0
BBX 14 14 0 -2
BITMAP
0F00
0D00
0D00
0D00
0D00
0D00
0D00
0D00
0D00
0D00
0D00
FD00
C300
FF00
ENDCHAR
STARTCHAR 3010
ENCODING 12304
SWIDTH 840 0
DWIDTH 14 0
BBX 14 14 0 -2
BITMAP
01F8
01F0
01E0
01E0
01C0
01C0
01C0
01C0
01C0
01C0
01E0
01E0
01F0
01F8
ENDCHAR
STARTCHAR 3011
ENCODING 12305
SWIDTH 840 0
DWIDTH 14 0
BBX 14 14 0 -2
BITMAP
FC00
7C00
3C00
3C00
1C00
1C00
1C00
1C00
1C00
1C00
3C00
3C00
7C00
FC00
ENDCHAR
STARTCHAR 3012
ENCODING 12306
SWIDTH 840 0
DWIDTH 14 0
BBX 14 14 0 -2
BITMAP
0000
7FF0
7FF0
0000
0000
FFF8
FFF8
0700
0700
0700
0700
0700
0700
0000
ENDCHAR
STARTCHAR 3013
ENCODING 12307
SWIDTH 840 0
DWIDTH 14 0
BBX 14 14 0 -2
BITMAP
0000
0000
0000
0000
7FF0
7FF0
0000
0000
7FF0
7FF0
0000
0000
0000
0000
ENDCHAR
STARTCHAR 3014
ENCODING 12308
SWIDTH 840 0
DWIDTH 14 0
BBX 14 14 0 -2
BITMAP
0018
0030
0060
00C0
00C0
00C0
00C0
00C0
00C0
00C0
00C0
0060
0030
0018
ENDCHAR
STARTCHAR 3015
ENCODING 12309
SWIDTH 840 0
DWIDTH 14 0
BBX 14 14 0 -2
BITMAP
C000
6000
3000
1800
1800
1800
1800
1800
1800
1800
1800
3000
6000
C000
ENDCHAR
STARTCHAR 301C
ENCODING 12316
SWIDTH 840 0
DWIDTH 14 0
BBX 14 14 0 -2
BITMAP
0000
0000
0000
0000
0000
3C00
6618
C330
01E0
0000
0000
0000
0000
0000
ENDCHAR
STARTCHAR 3041
ENCODING 12353
SWIDTH 840 0
DWIDTH 14 0
BBX 14 14 0 -2
BITMAP
0000
0000
0000
0000
0C00
3F80
0C00
0FC0
1B60
3B30
6A30
6C60
3CC0
0380
ENDCHAR
STARTCHAR 3042
ENCODING 12354
SWIDTH 840 0
DWIDTH 14 0
BBX 14 14 0 -2
BITMAP
0C00
0DC0
3F00
0C00
0D00
0FE0
1D30
3B18
6A18
6E18
6C30
3A60
01C0
0000
ENDCHAR
STARTCHAR 3043
ENCODING 12355
SWIDTH 840 0
DWIDTH 14 0
BBX 14 14 0 -2
BITMAP
0000
0000
0000
0000
0000
0000
1800
1860
3060
3030
3030
1A00
0C00
0000
ENDCHAR
STARTCHAR 3044
ENCODING 12356
SWIDTH 840 0
DWIDTH 14 0
BBX 14 14 0 -2
BITMAP
0000
0000
3000
3000
3060
6030
6030
6018
6018
6018
3600
1C00
0000
0000
ENDCHAR
STARTCHAR 3045
ENCODING 12357
SWIDTH 840 0
DWIDTH 14 0
BBX 14 14 0 -2
BITMAP
0000
0000
0000
0000
0600
0380
0000
0F80
18C0
00C0
00C0
0180
0180
0700
ENDCHAR
STARTCHAR 3046
ENCODING 12358
SWIDTH 840 0
DWIDTH 14 0
BBX 14 14 0 -2
BITMAP
0E00
0380
0000
0F80
78C0
0060
0060
0060
00C0
00C0
0180
0700
1C00
0000
ENDCHAR
STARTCHAR 3047
ENCODING 12359
SWIDTH 840 0
DWIDTH 14 0
BBX 14 14 0 -2
BITMAP
0000
0000
0000
0000
0E00
0300
0000
1FC0
0180
0300
0600
0F00
1B00
31F0
ENDCHAR
STARTCHAR 3048
ENCODING 12360
SWIDTH 840 0
DWIDTH 14 0
BBX 14 14 0 -2
BITMAP
0E00
0380
0000
0000
3FE0
0180
0300
0600
0C00
1E00
3300
6300
61F8
0000
ENDCHAR
STARTCHAR 3049
ENCODING 12361
SWIDTH 840 0
DWIDTH 14 0
BBX 14 14 0 -2
BITMAP
0000
0000
0000
0000
1800
18C0
7E60
1800
1F80
38C0
68C0
7180
0700
0000
ENDCHAR
STARTCHAR 304A
ENCODING 12362
SWIDTH 840 0
DWIDTH 14 0
BBX 14 14 0 -2
BITMAP
0000
0C00
0C70
0F98
7C0C
0C00
0FE0
1C30
3418
6C18
6C18
3870
01C0
0000
ENDCHAR
STARTCHAR 304B
ENCODING 12363
SWIDTH 840 0
DWIDTH 14 0
BBX 14 14 0 -2
BITMAP
0000
1800
18C0
1860
FF30
19B0
1998
3198
3180
6180
6300
DB00
0E00
0000
ENDCHAR
STARTCHAR 304C
ENCODING 12364
SWIDTH 840 0
DWIDTH 14 0
BBX 14 14 0 -2
BITMAP
0000
1834
18D4
1860
FF30
19B0
1998
3198
3180
6180
6300
DB00
0E00
0000
ENDCHAR
STARTCHAR 304D
ENCODING 12365
SWIDTH 840 0
DWIDTH 14 0
BBX 14 14 0 -2
BITMAP
0300
0300
0360
1F80
0180
01F0
3F40
0060
0FD0
1870
1800
0E00
03C0
0000
ENDCHAR
STARTCHAR 304E
ENCODING 12366
SWIDTH 840 0
DWIDTH 14 0
BBX 14 14 0 -2
BITMAP
0600
0668
06E8
3F68
0300
03E0
7E80
00C0
1FA0
30E0
3000
1C00
0780
0000
ENDCHAR
STARTCHAR 304F
ENCODING 12367
SWIDTH 840 0
DWIDTH 14 0
BBX 14 14 0 -2
BITMAP
00C0
00C0
0180
0300
0600
0C00
1800
0C00
0600
0300
0180
00C0
00C0
0000
ENDCHAR
STARTCHAR 3050
ENCODING 12368
SWIDTH 840 0
DWIDTH 14 0
BBX 14 14 0 -2
BITMAP
00C0
00C0
01A8
0368
0668
0C00
1800
0C00
0600
0300
0180
00C0
00C0
0000
ENDCHAR
STARTCHAR 3051
ENCODING 12369
SWIDTH 840 0
DWIDTH 14 0
BBX 14 14 0 -2
BITMAP
0060
3060
3060
307C
67E0
6060
6060
6060
6060
6860
3060
00C0
0380
0000
ENDCHAR
STARTCHAR 3052
ENCODING 12370
SWIDTH 840 0
DWIDTH 14 0
BBX 14 14 0 -2
BITMAP
00D4
30D4
30C0
3078
67E0
6060
6060
6060
6060
6860
3060
00C0
0380
0000
ENDCHAR
STARTCHAR 3053
ENCODING 12371
SWIDTH 840 0
DWIDTH 14 0
BBX 14 14 0 -2
BITMAP
0000
0000
1E00
03E0
0000
0000
0000
0000
0000
3000
3030
1FE0
0000
0000
ENDCHAR
STARTCHAR 3054
ENCODING 12372
SWIDTH 840 0
DWIDTH 14 0
BBX 14 14 0 -2
BITMAP
0000
0034
1E34
03F4
0000
0000
0000
0000
0000
3000
3030
1FE0
0000
0000
ENDCHAR
STARTCHAR 3055
ENCODING 12373
SWIDTH 840 0
DWIDTH 14 0
BBX 14 14 0 -2
BITMAP
0600
0600
0370
3F80
0180
0180
00C0
0FA0
18E0
3000
3000
1C00
07C0
0000
ENDCHAR
STARTCHAR 3056
ENCODING 12374
SWIDTH 840 0
DWIDTH 14 0
BBX 14 14 0 -2
BITMAP
0600
0634
0374
3FB4
0180
0180
00C0
0FA0
18E0
3000
3000
1C00
07C0
0000
ENDCHAR
STARTCHAR 3057
ENCODING 12375
SWIDTH 840 0
DWIDTH 14 0
BBX 14 14 0 -2
BITMAP
0000
1800
1800
1800
1800
1800
1800
1800
1830
1830
1860
0CC0
0780
0000
ENDCHAR
STARTCHAR 3058
ENCODING 12376
SWIDTH 840 0
DWIDTH 14 0
BBX 14 14 0 -2
BITMAP
0000
18D0
18D0
18D0
1800
1800
1800
1800
1800
1830
1860
0CC0
0780
0000
ENDCHAR
STARTCHAR 3059
ENCODING 12377
SWIDTH 840 0
DWIDTH 14 0
BBX 14 14 0 -2
BITMAP
0180
0180
01F8
7F80
0180
0E80
1B80
1980
1980
0F80
0180
0180
0300
0E00
ENDCHAR
STARTCHAR 305A
ENCODING 12378
SWIDTH 840 0
DWIDTH 14 0
BBX 14 14 0 -2
BITMAP
01B4
01B4
01FC
7F80
0180
0E80
1B80
1980
1980
0F80
0180
0180
0300
0E00
ENDCHAR
STARTCHAR 305B
ENCODING 12379
SWIDTH 840 0
DWIDTH 14 0
BBX 14 14 0 -2
BITMAP
0000
00C0
18C0
18F8
1BC0
FCC0
18C0
18C0
1980
1800
0C00
07E0
0000
0000
ENDCHAR
STARTCHAR 305C
ENCODING 12380
SWIDTH 840 0
DWIDTH 14 0
BBX 14 14 0 -2
BITMAP
0034
00D4
18D4
18F8
1BC0
FCC0
18C0
18C0
1980
1800
0C00
07E0
0000
0000
ENDCHAR
STARTCHAR 305D
ENCODING 12381
SWIDTH 840 0
DWIDTH 14 0
BBX 14 14 0 -2
BITMAP
0000
1FC0
0180
0300
0600
0DF0
7F80
0300
0600
0C00
0C00
0600
03C0
0000
ENDCHAR
STARTCHAR 305E
ENCODING 12382
SWIDTH 840 0
DWIDTH 14 0
BBX 14 14 0 -2
BITMAP
0034
1FD4
01B4
0300
0600
0DF0
7F80
0300
0600
0C00
0C00
0600
03C0
0000
ENDCHAR
STARTCHAR 305F
ENCODING 12383
SWIDTH 840 0
DWIDTH 14 0
BBX 14 14 0 -2
BITMAP
0000
0C00
0C00
7F80
0C00
1838
19E0
1800
3000
3000
3300
6300
61F8
0000
ENDCHAR
STARTCHAR 3060
ENCODING 12384
SWIDTH 840 0
DWIDTH 14 0
BBX 14 14 0 -2
BITMAP
0000
0C34
0C34
7FB4
0C00
1838
19E0
1800
3000
3000
3300
6300
61F8
0000
ENDCHAR
STARTCHAR 3061
ENCODING 12385
SWIDTH 840 0
DWIDTH 14 0
BBX 14 14 0 -2
BITMAP
0C00
0C00
0C00
7FC0
0C00
1800
1BC0
1A60
3C30
3030
0030
00E0
0F80
0000
ENDCHAR
STARTCHAR 3062
ENCODING 12386
SWIDTH 840 0
DWIDTH 14 0
BBX 14 14 0 -2
BITMAP
0C00
0C34
0C34
7FD4
0C00
1800
1BC0
1A60
3C30
3030
0030
00E0
0F80
0000
ENDCHAR
STARTCHAR 3063
ENCODING 12387
SWIDTH 840 0
DWIDTH 14 0
BBX 14 14 0 -2
BITMAP
0000
0000
0000
0000
0000
0000
07C0
7C60
0030
0030
0060
01C0
0F00
0000
ENDCHAR
STARTCHAR 3064
ENCODING 12388
SWIDTH 840 0
DWIDTH 14 0
BBX 14 14 0 -2
BITMAP
0000
0000
0000
07E0
1C30
F018
0018
0018
0030
00E0
0780
0000
0000
0000
ENDCHAR
STARTCHAR 3065
ENCODING 12389
SWIDTH 840 0
DWIDTH 14 0
BBX 14 14 0 -2
BITMAP
0000
0034
0034
07F4
1C30
F018
0018
0018
0030
00E0
0780
0000
0000
0000
ENDCHAR
STARTCHAR 3066
ENCODING 12390
SWIDTH 840 0
DWIDTH 14 0
BBX 14 14 0 -2
BITMAP
0000
0078
0FE0
F980
0300
0300
0600
0600
0600
0600
0600
0300
01E0
0000
ENDCHAR
STARTCHAR 3067
ENCODING 12391
SWIDTH 840 0
DWIDTH 14 0
BBX 14 14 0 -2
BITMAP
0000
0078
0FC0
F9B4
0334
0334
0600
0600
0600
0600
0600
0300
01E0
0000
ENDCHAR
STARTCHAR 3068
ENCODING 12392
SWIDTH 840 0
DWIDTH 14 0
BBX 14 14 0 -2
BITMAP
0000
0C00
0C00
0C00
0600
06F0
0780
0E00
1800
3000
3000
1800
0FF0
0000
ENDCHAR
STARTCHAR 3069
ENCODING 12393
SWIDTH 840 0
DWIDTH 14 0
BBX 14 14 0 -2
BITMAP
0000
0C00
0C34
0C34
0634
06F0
0780
0E00
1800
3000
3000
1800
0FF0
0000
ENDCHAR
STARTCHAR 306A
ENCODING 12394
SWIDTH 840 0
DWIDTH 14 0
BBX 14 14 0 -2
BITMAP
0C00
0C00
7F80
0C70
1818
18C0
30C0
30C0
60C0
07C0
0CE0
0CD0
0780
0000
ENDCHAR
STARTCHAR 306B
ENCODING 12395
SWIDTH 840 0
DWIDTH 14 0
BBX 14 14 0 -2
BITMAP
0000
3000
3000
30F0
3780
6000
6000
6000
6000
6600
6300
69F8
3000
0000
ENDCHAR
STARTCHAR 306C
ENCODING 12396
SWIDTH 840 0
DWIDTH 14 0
BBX 14 14 0 -2
BITMAP
0000
0180
3180
3180
37E0
3B30
7318
7618
6A18
DC18
DCE8
75B0
00E8
0000
ENDCHAR
STARTCHAR 306D
ENCODING 12397
SWIDTH 840 0
DWIDTH 14 0
BBX 14 14 0 -2
BITMAP
1800
1800
1800
1800
FDE0
1B30
1C30
1830
3830
3830
69F0
DB38
19E0
0000
ENDCHAR
STARTCHAR 306E
ENCODING 12398
SWIDTH 840 0
DWIDTH 14 0
BBX 14 14 0 -2
BITMAP
0000
0000
07C0
1D60
3330
3318
6618
6618
6C18
6C30
3830
00E0
0380
0000
ENDCHAR
STARTCHAR 306F
ENCODING 12399
SWIDTH 840 0
DWIDTH 14 0
BBX 14 14 0 -2
BITMAP
0060
3060
3060
3078
37E0
6060
6060
6060
6060
63E0
6678
6A6C
33C0
0000
ENDCHAR
STARTCHAR 3070
ENCODING 12400
SWIDTH 840 0
DWIDTH 14 0
BBX 14 14 0 -2
BITMAP
00D4
60D4
60CC
60F0
6FC0
C0C0
C0C0
C0C0
C0C0
C7C0
CCF0
D4D8
6780
0000
ENDCHAR
STARTCHAR 3071
ENCODING 12401
SWIDTH 840 0
DWIDTH 14 0
BBX 14 14 0 -2
BITMAP
00D8
60EC
60EC
60F8
6FC0
C0C0
C0C0
C0C0
C0C0
C7C0
CCF0
D4D8
6780
0000
ENDCHAR
STARTCHAR 3072
ENCODING 12402
SWIDTH 840 0
DWIDTH 14 0
BBX 14 14 0 -2
BITMAP
0000
0300
0E00
7C00
1860
3060
3070
6068
6060
60C0
60C0
3180
1F00
0000
ENDCHAR
STARTCHAR 3073
ENCODING 12403
SWIDTH 840 0
DWIDTH 14 0
BBX 14 14 0 -2
BITMAP
0000
0334
0E34
7C34
1860
3060
3070
6068
6060
60C0
60C0
3180
1F00
0000
ENDCHAR
STARTCHAR 3074
ENCODING 12404
SWIDTH 840 0
DWIDTH 14 0
BBX 14 14 0 -2
BITMAP
0038
036C
0E6C
7C38
1860
3060
3070
6068
6060
60C0
60C0
3180
1F00
0000
ENDCHAR
STARTCHAR 3075
ENCODING 12405
SWIDTH 840 0
DWIDTH 14 0
BBX 14 14 0 -2
BITMAP
0000
0C00
0780
0180
0300
0600
0300
31B0
30D8
60CC
C0CC
1980
0F00
0000
ENDCHAR
STARTCHAR 3076
ENCODING 12406
SWIDTH 840 0
DWIDTH 14 0
BBX 14 14 0 -2
BITMAP
0000
0C68
07A8
01A8
0300
0600
0300
31B0
30D8
60CC
C0CC
1980
0F00
0000
ENDCHAR
STARTCHAR 3077
ENCODING 12407
SWIDTH 840 0
DWIDTH 14 0
BBX 14 14 0 -2
BITMAP
0000
0C70
07D8
01D8
0370
0600
0300
31B0
30D8
60CC
C0CC
1980
0F00
0000
ENDCHAR
STARTCHAR 3078
ENCODING 12408
SWIDTH 840 0
DWIDTH 14 0
BBX 14 14 0 -2
BITMAP
0000
0000
0000
0000
0E00
1B00
3180
60C0
C070
001C
0000
0000
0000
0000
ENDCHAR
STARTCHAR 3079
ENCODING 12409
SWIDTH 840 0
DWIDTH 14 0
BBX 14 14 0 -2
BITMAP
0000
0000
0068
0068
0E68
1B00
3180
60C0
C070
001C
0000
0000
0000
0000
ENDCHAR
STARTCHAR 307A
ENCODING 12410
SWIDTH 840 0
DWIDTH 14 0
BBX 14 14 0 -2
BITMAP
0000
0070
00D8
00D8
0E70
1B00
3180
60C0
C070
001C
0000
0000
0000
0000
ENDCHAR
STARTCHAR 307B
ENCODING 12411
SWIDTH 840 0
DWIDTH 14 0
BBX 14 14 0 -2
BITMAP
0000
37F8
3060
3060
3078
67E0
6060
6060
6060
63E0
6678
6A6C
33C0
0000
ENDCHAR
STARTCHAR 307C
ENCODING 12412
SWIDTH 840 0
DWIDTH 14 0
BBX 14 14 0 -2
BITMAP
0034
6FF4
60D4
60C0
60F8
CFC0
C0C0
C0C0
C0C0
C7C0
CCF0
D4D8
6780
0000
ENDCHAR
STARTCHAR 307D
ENCODING 12413
SWIDTH 840 0
DWIDTH 14 0
BBX 14 14 0 -2
BITMAP
0038
6FEC
60EC
60D8
60F0
CFC0
C0C0
C0C0
C0C0
C7C0
CCF0
D4D8
6780
0000
ENDCHAR
STARTCHAR 307E
ENCODING 12414
SWIDTH 840 0
DWIDTH 14 0
BBX 14 14 0 -2
BITMAP
0180
0180
3FF0
0180
0180
01E0
3F80
0180
0180
1F80
31E0
31B0
1F00
0000
ENDCHAR
STARTCHAR 307F
ENCODING 12415
SWIDTH 840 0
DWIDTH 14 0
BBX 14 14 0 -2
BITMAP
0000
0000
3F00
0300
0300
0630
0630
1FF0
7438
CC6C
D860
70C0
0180
0000
ENDCHAR
STARTCHAR 3080
ENCODING 12416
SWIDTH 840 0
DWIDTH 14 0
BBX 14 14 0 -2
BITMAP
0C00
0C00
7F00
0C70
0C18
3C0C
6C00
6C00
6C60
3830
1830
1830
0FE0
0000
ENDCHAR
STARTCHAR 3081
ENCODING 12417
SWIDTH 840 0
DWIDTH 14 0
BBX 14 14 0 -2
BITMAP
0000
0180
3180
3180
37C0
3DA0
3330
6B18
6A18
CE18
CC18
DA30
70E0
0000
ENDCHAR
STARTCHAR 3082
ENCODING 12418
SWIDTH 840 0
DWIDTH 14 0
BBX 14 14 0 -2
BITMAP
0600
0600
0600
3F80
0600
06C0
7F80
0C00
0C18
0C18
0C30
0660
03C0
0000
ENDCHAR
STARTCHAR 3083
ENCODING 12419
SWIDTH 840 0
DWIDTH 14 0
BBX 14 14 0 -2
BITMAP
0000
0000
0000
0000
0300
1980
1BE0
1E30
7C30
0CE0
0600
0600
0300
0300
ENDCHAR
STARTCHAR 3084
ENCODING 12420
SWIDTH 840 0
DWIDTH 14 0
BBX 14 14 0 -2
BITMAP
0300
0180
00C0
3000
31F0
1B18
3C18
EC18
06F0
0600
0300
0300
0180
0180
ENDCHAR
STARTCHAR 3085
ENCODING 12421
SWIDTH 840 0
DWIDTH 14 0
BBX 14 14 0 -2
BITMAP
0000
0000
0000
0000
0300
0300
63E0
6F30
6B30
7330
6760
63C0
0300
0600
ENDCHAR
STARTCHAR 3086
ENCODING 12422
SWIDTH 840 0
DWIDTH 14 0
BBX 14 14 0 -2
BITMAP
0000
0300
6180
63E0
66B0
6D98
6998
7198
7598
66B0
63E0
0180
0300
0600
ENDCHAR
STARTCHAR 3087
ENCODING 12423
SWIDTH 840 0
DWIDTH 14 0
BBX 14 14 0 -2
BITMAP
0000
0000
0000
0300
0300
03E0
0300
0300
0300
1F00
33C0
3360
1E00
0000
ENDCHAR
STARTCHAR 3088
ENCODING 12424
SWIDTH 840 0
DWIDTH 14 0
BBX 14 14 0 -2
BITMAP
0300
0300
0300
0370
03C0
0300
0300
0300
0300
3F80
6360
6330
3E00
0000
ENDCHAR
STARTCHAR 3089
ENCODING 12425
SWIDTH 840 0
DWIDTH 14 0
BBX 14 14 0 -2
BITMAP
0600
0300
01C0
0000
3000
3000
33E0
3630
3830
3030
0060
01C0
0700
0000
ENDCHAR
STARTCHAR 308A
ENCODING 12426
SWIDTH 840 0
DWIDTH 14 0
BBX 14 14 0 -2
BITMAP
00C0
0C60
0C60
0C60
1860
1860
1860
1A60
0C60
00C0
00C0
0180
0700
0000
ENDCHAR
STARTCHAR 308B
ENCODING 12427
SWIDTH 840 0
DWIDTH 14 0
BBX 14 14 0 -2
BITMAP
0000
0FC0
0180
0300
0600
0FC0
1C60
3030
6030
07B0
0CE0
0CC0
0780
0000
ENDCHAR
STARTCHAR 308C
ENCODING 12428
SWIDTH 840 0
DWIDTH 14 0
BBX 14 14 0 -2
BITMAP
0000
1800
1800
1BC0
1A60
FC60
1C60
1860
3860
3860
6860
D86C
1838
1800
ENDCHAR
STARTCHAR 308D
ENCODING 12429
SWIDTH 840 0
DWIDTH 14 0
BBX 14 14 0 -2
BITMAP
0000
1F80
0180
0300
0600
0FC0
1860
3030
6030
0030
0060
01C0
0F00
0000
ENDCHAR
STARTCHAR 308E
ENCODING 12430
SWIDTH 840 0
DWIDTH 14 0
BBX 14 14 0 -2
BITMAP
0000
0000
0000
0C00
0C00
0C00
3EE0
0D30
0E30
1C30
1C30
3460
0CC0
0000
ENDCHAR
STARTCHAR 308F
ENCODING 12431
SWIDTH 840 0
DWIDTH 14 0
BBX 14 14 0 -2
BITMAP
1800
1800
1800
3DE0
EF30
1C18
1818
3818
3818
6830
D860
19C0
1800
0000
ENDCHAR
STARTCHAR 3090
ENCODING 12432
SWIDTH 840 0
DWIDTH 14 0
BBX 14 14 0 -2
BITMAP
0000
1F80
0180
0300
0300
07E0
1E30
3618
6C18
6C18
69D8
3B70
01E0
0000
ENDCHAR
STARTCHAR 3091
ENCODING 12433
SWIDTH 840 0
DWIDTH 14 0
BBX 14 14 0 -2
BITMAP
0000
1F80
0300
0FC0
1860
3060
0E60
1BC0
0F00
1800
3DE0
6730
C078
0000
ENDCHAR
STARTCHAR 3092
ENCODING 12434
SWIDTH 840 0
DWIDTH 14 0
BBX 14 14 0 -2
BITMAP
0600
0600
07C0
3C00
0C38
1F60
39C0
6380
0680
0D80
1800
1800
0FE0
0000
ENDCHAR
STARTCHAR 3093
ENCODING 12435
SWIDTH 840 0
DWIDTH 14 0
BBX 14 14 0 -2
BITMAP
0300
0300
0300
0600
0600
0C00
0C00
1F00
1980
3180
3198
61B0
60E0
0000
ENDCHAR
STARTCHAR 309B
ENCODING 12443
SWIDTH 840 0
DWIDTH 14 0
BBX 14 14 0 -2
BITMAP
3000
D800
6000
0000
0000
0000
0000
0000
0000
0000
0000
0000
0000
0000
ENDCHAR
STARTCHAR 309C
ENCODING 12444
SWIDTH 840 0
DWIDTH 14 0
BBX 14 14 0 -2
BITMAP
7000
D800
D800
7000
0000
0000
0000
0000
0000
0000
0000
0000
0000
0000
ENDCHAR
STARTCHAR 309D
ENCODING 12445
SWIDTH 840 0
DWIDTH 14 0
BBX 14 14 0 -2
BITMAP
0000
0000
0000
0000
1C00
0700
0180
01C0
0300
0000
0000
0000
0000
0000
ENDCHAR
STARTCHAR 309E
ENCODING 12446
SWIDTH 840 0
DWIDTH 14 0
BBX 14 14 0 -2
BITMAP
0000
0000
0060
01B0
1CC0
0700
0180
01C0
0300
0000
0000
0000
0000
0000
ENDCHAR
STARTCHAR 30A1
ENCODING 12449
SWIDTH 840 0
DWIDTH 14 0
BBX 14 14 0 -2
BITMAP
0000
0000
0000
0000
0000
0000
3FE0
0060
06C0
0780
0600
0C00
1800
0000
ENDCHAR
STARTCHAR 30A2
ENCODING 12450
SWIDTH 840 0
DWIDTH 14 0
BBX 14 14 0 -2
BITMAP
0000
0000
FFF0
0030
0660
06C0
0780
0600
0600
0C00
0C00
1800
7000
0000
ENDCHAR
STARTCHAR 30A3
ENCODING 12451
SWIDTH 840 0
DWIDTH 14 0
BBX 14 14 0 -2
BITMAP
0000
0000
0000
0000
0060
00C0
0180
0700
3D00
0300
0300
0300
0300
0000
ENDCHAR
STARTCHAR 30A4
ENCODING 12452
SWIDTH 840 0
DWIDTH 14 0
BBX 14 14 0 -2
BITMAP
0000
0060
0060
00C0
0180
0700
1D00
7300
0300
0300
0300
0300
0300
0000
ENDCHAR
STARTCHAR 30A5
ENCODING 12453
SWIDTH 840 0
DWIDTH 14 0
BBX 14 14 0 -2
BITMAP
0000
0000
0000
0000
0300
0300
3FE0
3060
3060
3060
00C0
0180
0700
0000
ENDCHAR
STARTCHAR 30A6
ENCODING 12454
SWIDTH 840 0
DWIDTH 14 0
BBX 14 14 0 -2
BITMAP
0000
0300
0300
0300
7FF0
6030
6030
6030
0060
0060
00C0
0380
0E00
0000
ENDCHAR
STARTCHAR 30A7
ENCODING 12455
SWIDTH 840 0
DWIDTH 14 0
BBX 14 14 0 -2
BITMAP
0000
0000
0000
0000
0000
0000
1FE0
0300
0300
0300
0300
0300
3FF0
0000
ENDCHAR
STARTCHAR 30A8
ENCODING 12456
SWIDTH 840 0
DWIDTH 14 0
BBX 14 14 0 -2
BITMAP
0000
0000
0000
3FF0
0300
0300
0300
0300
0300
0300
7FF8
0000
0000
0000
ENDCHAR
STARTCHAR 30A9
ENCODING 12457
SWIDTH 840 0
DWIDTH 14 0
BBX 14 14 0 -2
BITMAP
0000
0000
0000
0000
0180
0180
3FE0
0180
0380
0680
0D80
3980
0180
0000
ENDCHAR
STARTCHAR 30AA
ENCODING 12458
SWIDTH 840 0
DWIDTH 14 0
BBX 14 14 0 -2
BITMAP
0000
00C0
00C0
00C0
7FF8
01C0
01C0
0340
06C0
0CC0
18C0
70C0
01C0
0000
ENDCHAR
STARTCHAR 30AB
ENCODING 12459
SWIDTH 840 0
DWIDTH 14 0
BBX 14 14 0 -2
BITMAP
0000
0600
0600
0600
7FF0
0630
0630
0630
0C30
0C30
1830
3060
61C0
0000
ENDCHAR
STARTCHAR 30AC
ENCODING 12460
SWIDTH 840 0
DWIDTH 14 0
BBX 14 14 0 -2
BITMAP
0000
0634
0634
0634
7FF0
0630
0630
0630
0C30
0C30
1830
3060
61C0
0000
ENDCHAR
STARTCHAR 30AD
ENCODING 12461
SWIDTH 840 0
DWIDTH 14 0
BBX 14 14 0 -2
BITMAP
0000
0600
0600
06F0
0780
3D00
0300
0378
0780
7D80
0180
00C0
00C0
00C0
ENDCHAR
STARTCHAR 30AE
ENCODING 12462
SWIDTH 840 0
DWIDTH 14 0
BBX 14 14 0 -2
BITMAP
0000
0634
0634
06F4
0780
3D00
0300
0378
0780
7D80
0180
00C0
00C0
00C0
ENDCHAR
STARTCHAR 30AF
ENCODING 12463
SWIDTH 840 0
DWIDTH 14 0
BBX 14 14 0 -2
BITMAP
0000
0300
0300
03F0
0630
0C30
1860
3060
00C0
0180
0300
0E00
3800
0000
ENDCHAR
STARTCHAR 30B0
ENCODING 12464
SWIDTH 840 0
DWIDTH 14 0
BBX 14 14 0 -2
BITMAP
0000
0634
0634
07F4
0C60
1860
30C0
60C0
0180
0300
0600
1C00
7000
0000
ENDCHAR
STARTCHAR 30B1
ENCODING 12465
SWIDTH 840 0
DWIDTH 14 0
BBX 14 14 0 -2
BITMAP
0000
1800
1800
1800
1FF8
18C0
18C0
30C0
60C0
0180
0300
0600
1C00
0000
ENDCHAR
STARTCHAR 30B2
ENCODING 12466
SWIDTH 840 0
DWIDTH 14 0
BBX 14 14 0 -2
BITMAP
0034
1834
1834
1800
1FF8
18C0
18C0
30C0
60C0
0180
0300
0600
1C00
0000
ENDCHAR
STARTCHAR 30B3
ENCODING 12467
SWIDTH 840 0
DWIDTH 14 0
BBX 14 14 0 -2
BITMAP
0000
0000
0000
7FF0
0030
0030
0030
0030
0030
0030
7FF0
0030
0000
0000
ENDCHAR
STARTCHAR 30B4
ENCODING 12468
SWIDTH 840 0
DWIDTH 14 0
BBX 14 14 0 -2
BITMAP
0034
0034
0034
FFE0
0060
0060
0060
0060
0060
0060
FFE0
0060
0000
0000
ENDCHAR
STARTCHAR 30B5
ENCODING 12469
SWIDTH 840 0
DWIDTH 14 0
BBX 14 14 0 -2
BITMAP
0000
18C0
18C0
18C0
18C0
FFF8
18C0
18C0
18C0
18C0
0180
0300
0E00
0000
ENDCHAR
STARTCHAR 30B6
ENCODING 12470
SWIDTH 840 0
DWIDTH 14 0
BBX 14 14 0 -2
BITMAP
0000
0034
18D4
18D4
18C0
FFF8
18C0
18C0
18C0
18C0
0180
0300
0E00
0000
ENDCHAR
STARTCHAR 30B7
ENCODING 12471
SWIDTH 840 0
DWIDTH 14 0
BBX 14 14 0 -2
BITMAP
0000
0000
1C00
0600
0018
3818
0C30
0030
0060
00C0
0180
0700
3C00
0000
ENDCHAR
STARTCHAR 30B8
ENCODING 12472
SWIDTH 840 0
DWIDTH 14 0
BBX 14 14 0 -2
BITMAP
0000
0034
1C34
0634
0000
3818
0C18
0030
0060
00C0
0180
0700
3C00
0000
ENDCHAR
STARTCHAR 30B9
ENCODING 12473
SWIDTH 840 0
DWIDTH 14 0
BBX 14 14 0 -2
BITMAP
0000
0000
0000
7FC0
00C0
00C0
0180
0180
0380
06C0
0C60
3830
E030
0000
ENDCHAR
STARTCHAR 30BA
ENCODING 12474
SWIDTH 840 0
DWIDTH 14 0
BBX 14 14 0 -2
BITMAP
0000
0034
0034
7FD4
00C0
00C0
0180
0180
0380
06C0
0C60
3830
E030
0000
ENDCHAR
STARTCHAR 30BB
ENCODING 12475
SWIDTH 840 0
DWIDTH 14 0
BBX 14 14 0 -2
BITMAP
0000
0C00
0C00
0C00
0CF8
0F98
7C30
0C60
0CC0
0C00
0C00
0600
03F0
0000
ENDCHAR
STARTCHAR 30BC
ENCODING 12476
SWIDTH 840 0
DWIDTH 14 0
BBX 14 14 0 -2
BITMAP
0000
0C34
0C34
0C34
0CF8
0F98
7C30
0C60
0CC0
0C00
0C00
0600
03F8
0000
ENDCHAR
STARTCHAR 30BD
ENCODING 12477
SWIDTH 840 0
DWIDTH 14 0
BBX 14 14 0 -2
BITMAP
0000
0000
0030
3030
1830
0C30
0C60
0060
00C0
0180
0300
0E00
3800
0000
ENDCHAR
STARTCHAR 30BE
ENCODING 12478
SWIDTH 840 0
DWIDTH 14 0
BBX 14 14 0 -2
BITMAP
0000
0034
0034
3034
1860
0C60
0C60
00C0
00C0
0180
0300
0E00
3800
0000
ENDCHAR
STARTCHAR 30BF
ENCODING 12479
SWIDTH 840 0
DWIDTH 14 0
BBX 14 14 0 -2
BITMAP
0000
0300
0300
07F0
0C30
1830
7760
01A0
00C0
0180
0300
0E00
3800
0000
ENDCHAR
STARTCHAR 30C0
ENCODING 12480
SWIDTH 840 0
DWIDTH 14 0
BBX 14 14 0 -2
BITMAP
0034
0334
0334
07F0
0C30
1830
7760
01A0
00C0
0180
0300
0E00
3800
0000
ENDCHAR
STARTCHAR 30C1
ENCODING 12481
SWIDTH 840 0
DWIDTH 14 0
BBX 14 14 0 -2
BITMAP
0000
00C0
0380
3F00
0300
0300
FFF0
0300
0300
0300
0600
0C00
3800
0000
ENDCHAR
STARTCHAR 30C2
ENCODING 12482
SWIDTH 840 0
DWIDTH 14 0
BBX 14 14 0 -2
BITMAP
0034
00F4
03B4
3F00
0300
0300
FFF0
0300
0300
0300
0600
0C00
3800
0000
ENDCHAR
STARTCHAR 30C3
ENCODING 12483
SWIDTH 840 0
DWIDTH 14 0
BBX 14 14 0 -2
BITMAP
0000
0000
0000
0000
0000
0000
0C60
3660
1A60
18C0
00C0
0180
0700
0000
ENDCHAR
STARTCHAR 30C4
ENCODING 12484
SWIDTH 840 0
DWIDTH 14 0
BBX 14 14 0 -2
BITMAP
0000
0000
0618
3618
3318
1B18
1830
0030
0060
0060
00C0
0380
0E00
0000
ENDCHAR
STARTCHAR 30C5
ENCODING 12485
SWIDTH 840 0
DWIDTH 14 0
BBX 14 14 0 -2
BITMAP
0000
0034
1834
D834
CC60
6C60
60C0
00C0
0180
0180
0300
0E00
3800
0000
ENDCHAR
STARTCHAR 30C6
ENCODING 12486
SWIDTH 840 0
DWIDTH 14 0
BBX 14 14 0 -2
BITMAP
0000
0000
1FF0
0000
0000
0000
7FF8
0180
0180
0180
0300
0600
1C00
0000
ENDCHAR
STARTCHAR 30C7
ENCODING 12487
SWIDTH 840 0
DWIDTH 14 0
BBX 14 14 0 -2
BITMAP
0034
0034
1FF4
0000
0000
0000
7FF8
0180
0180
0180
0300
0600
1C00
0000
ENDCHAR
STARTCHAR 30C8
ENCODING 12488
SWIDTH 840 0
DWIDTH 14 0
BBX 14 14 0 -2
BITMAP
0000
0C00
0C00
0C00
0C00
0C00
0F00
0DC0
0C60
0C00
0C00
0C00
0C00
0C00
ENDCHAR
STARTCHAR 30C9
ENCODING 12489
SWIDTH 840 0
DWIDTH 14 0
BBX 14 14 0 -2
BITMAP
0000
18D0
18D0
18D0
1800
1800
1E00
1B80
18C0
1800
1800
1800
1800
1800
ENDCHAR
STARTCHAR 30CA
ENCODING 12490
SWIDTH 840 0
DWIDTH 14 0
BBX 14 14 0 -2
BITMAP
0000
0180
0180
0180
7FF8
0180
0180
0180
0300
0300
0600
0C00
3800
0000
ENDCHAR
STARTCHAR 30CB
ENCODING 12491
SWIDTH 840 0
DWIDTH 14 0
BBX 14 14 0 -2
BITMAP
0000
0000
0000
3FE0
0000
0000
0000
0000
0000
FFF8
0000
0000
0000
0000
ENDCHAR
STARTCHAR 30CC
ENCODING 12492
SWIDTH 840 0
DWIDTH 14 0
BBX 14 14 0 -2
BITMAP
0000
0000
3FE0
0060
0060
1CC0
0740
0180
0340
0660
0C30
3800
E000
0000
ENDCHAR
STARTCHAR 30CD
ENCODING 12493
SWIDTH 840 0
DWIDTH 14 0
BBX 14 14 0 -2
BITMAP
0000
0600
0300
3FE0
0060
00C0
0180
0300
0740
1D70
7318
0300
0300
0000
ENDCHAR
STARTCHAR 30CE
ENCODING 12494
SWIDTH 840 0
DWIDTH 14 0
BBX 14 14 0 -2
BITMAP
0000
0060
0060
0060
0060
00C0
00C0
0180
0180
0300
0600
1C00
7000
0000
ENDCHAR
STARTCHAR 30CF
ENCODING 12495
SWIDTH 840 0
DWIDTH 14 0
BBX 14 14 0 -2
BITMAP
0000
0000
0000
0000
1980
18C0
1860
1830
3030
3018
6018
C018
0018
0000
ENDCHAR
STARTCHAR 30D0
ENCODING 12496
SWIDTH 840 0
DWIDTH 14 0
BBX 14 14 0 -2
BITMAP
0000
0034
0034
0034
1980
18C0
1860
1830
3030
3018
6018
C018
0018
0000
ENDCHAR
STARTCHAR 30D1
ENCODING 12497
SWIDTH 840 0
DWIDTH 14 0
BBX 14 14 0 -2
BITMAP
0038
006C
006C
0038
1980
18C0
1860
1830
3030
3018
6018
C018
0018
0000
ENDCHAR
STARTCHAR 30D2
ENCODING 12498
SWIDTH 840 0
DWIDTH 14 0
BBX 14 14 0 -2
BITMAP
0000
0000
3000
3000
3000
31E0
3F00
3000
3000
3000
3000
1FF0
0000
0000
ENDCHAR
STARTCHAR 30D3
ENCODING 12499
SWIDTH 840 0
DWIDTH 14 0
BBX 14 14 0 -2
BITMAP
0000
0000
3068
3068
3068
33E0
3E00
3000
3000
3000
3000
1FF0
0000
0000
ENDCHAR
STARTCHAR 30D4
ENCODING 12500
SWIDTH 840 0
DWIDTH 14 0
BBX 14 14 0 -2
BITMAP
0000
0070
30D8
30D8
3070
33E0
3E00
3000
3000
3000
3000
1FF0
0000
0000
ENDCHAR
STARTCHAR 30D5
ENCODING 12501
SWIDTH 840 0
DWIDTH 14 0
BBX 14 14 0 -2
BITMAP
0000
0000
0000
7FF0
0030
0030
0060
0060
00C0
0180
0300
0E00
3800
0000
ENDCHAR
STARTCHAR 30D6
ENCODING 12502
SWIDTH 840 0
DWIDTH 14 0
BBX 14 14 0 -2
BITMAP
0000
0034
0034
FFF4
0060
0060
00C0
00C0
0180
0300
0600
1C00
7000
0000
ENDCHAR
STARTCHAR 30D7
ENCODING 12503
SWIDTH 840 0
DWIDTH 14 0
BBX 14 14 0 -2
BITMAP
0000
0038
006C
FFEC
0078
0060
00C0
00C0
0180
0300
0600
1C00
7000
0000
ENDCHAR
STARTCHAR 30D8
ENCODING 12504
SWIDTH 840 0
DWIDTH 14 0
BBX 14 14 0 -2
BITMAP
0000
0000
0000
0000
0E00
1B00
3180
60C0
C060
0030
001C
0000
0000
0000
ENDCHAR
STARTCHAR 30D9
ENCODING 12505
SWIDTH 840 0
DWIDTH 14 0
BBX 14 14 0 -2
BITMAP
0000
0000
0068
0068
0E68
1B00
3180
60C0
C060
0030
001C
0000
0000
0000
ENDCHAR
STARTCHAR 30DA
ENCODING 12506
SWIDTH 840 0
DWIDTH 14 0
BBX 14 14 0 -2
BITMAP
0000
0070
00D8
00D8
0E70
1B00
3180
60C0
C060
0030
001C
0000
0000
0000
ENDCHAR
STARTCHAR 30DB
ENCODING 12507
SWIDTH 840 0
DWIDTH 14 0
BBX 14 14 0 -2
BITMAP
0000
0300
0300
0300
7FF8
0300
0300
1B60
1B30
1B30
3318
3318
6300
0700
ENDCHAR
STARTCHAR 30DC
ENCODING 12508
SWIDTH 840 0
DWIDTH 14 0
BBX 14 14 0 -2
BITMAP
0000
0334
0334
0334
7FF8
0300
0300
1B60
1B30
1B30
3318
3318
6300
0700
ENDCHAR
STARTCHAR 30DD
ENCODING 12509
SWIDTH 840 0
DWIDTH 14 0
BBX 14 14 0 -2
BITMAP
0000
0338
036C
036C
7FF8
0300
0300
1B60
1B30
1B30
3318
3318
6300
0700
ENDCHAR
STARTCHAR 30DE
ENCODING 12510
SWIDTH 840 0
DWIDTH 14 0
BBX 14 14 0 -2
BITMAP
0000
0000
0000
7FF8
0030
0030
0060
00C0
1D80
0700
0180
00C0
0000
0000
ENDCHAR
STARTCHAR 30DF
ENCODING 12511
SWIDTH 840 0
DWIDTH 14 0
BBX 14 14 0 -2
BITMAP
0000
0C00
0700
01C0
0060
1800
0E00
0380
00C0
3000
1C00
0700
01C0
0060
ENDCHAR
STARTCHAR 30E0
ENCODING 12512
SWIDTH 840 0
DWIDTH 14 0
BBX 14 14 0 -2
BITMAP
0000
0300
0300
0300
0600
0600
0660
0C60
0C30
1870
1BD8
7C18
0018
0000
ENDCHAR
STARTCHAR 30E1
ENCODING 12513
SWIDTH 840 0
DWIDTH 14 0
BBX 14 14 0 -2
BITMAP
0000
0060
0060
0060
1C60
0740
01C0
01A0
01B0
0300
0600
1C00
7000
0000
ENDCHAR
STARTCHAR 30E2
ENCODING 12514
SWIDTH 840 0
DWIDTH 14 0
BBX 14 14 0 -2
BITMAP
0000
0000
3FE0
0600
0600
0600
7FF8
0600
0600
0600
0600
03F0
0000
0000
ENDCHAR
STARTCHAR 30E3
ENCODING 12515
SWIDTH 840 0
DWIDTH 14 0
BBX 14 14 0 -2
BITMAP
0000
0000
0000
0000
0000
0600
06F0
07B0
3E60
0340
0300
0180
0180
0180
ENDCHAR
STARTCHAR 30E4
ENCODING 12516
SWIDTH 840 0
DWIDTH 14 0
BBX 14 14 0 -2
BITMAP
0000
0C00
0C00
06F8
0F98
7A30
0660
0340
0300
0300
0180
0180
0180
0000
ENDCHAR
STARTCHAR 30E5
ENCODING 12517
SWIDTH 840 0
DWIDTH 14 0
BBX 14 14 0 -2
BITMAP
0000
0000
0000
0000
0000
0000
1FC0
00C0
00C0
0180
0180
3FF0
0000
0000
ENDCHAR
STARTCHAR 30E6
ENCODING 12518
SWIDTH 840 0
DWIDTH 14 0
BBX 14 14 0 -2
BITMAP
0000
0000
0000
0000
7FC0
00C0
00C0
0180
0180
0180
FFF8
0000
0000
0000
ENDCHAR
STARTCHAR 30E7
ENCODING 12519
SWIDTH 840 0
DWIDTH 14 0
BBX 14 14 0 -2
BITMAP
0000
0000
0000
0000
0000
1FC0
00C0
00C0
1FC0
00C0
00C0
00C0
1FC0
0000
ENDCHAR
STARTCHAR 30E8
ENCODING 12520
SWIDTH 840 0
DWIDTH 14 0
BBX 14 14 0 -2
BITMAP
0000
0000
7FE0
0060
0060
0060
3FE0
0060
0060
0060
0060
7FE0
0060
0000
ENDCHAR
STARTCHAR 30E9
ENCODING 12521
SWIDTH 840 0
DWIDTH 14 0
BBX 14 14 0 -2
BITMAP
0000
0000
3FE0
0000
0000
7FF0
0030
0030
0060
00C0
0180
0700
3C00
0000
ENDCHAR
STARTCHAR 30EA
ENCODING 12522
SWIDTH 840 0
DWIDTH 14 0
BBX 14 14 0 -2
BITMAP
0000
1860
1860
1860
1860
1860
1860
1860
00C0
00C0
0180
0300
0E00
0000
ENDCHAR
STARTCHAR 30EB
ENCODING 12523
SWIDTH 840 0
DWIDTH 14 0
BBX 14 14 0 -2
BITMAP
0000
0000
0180
0D80
0D80
0D80
0D98
0D98
0DB0
19B0
19A0
31C0
6000
0000
ENDCHAR
STARTCHAR 30EC
ENCODING 12524
SWIDTH 840 0
DWIDTH 14 0
BBX 14 14 0 -2
BITMAP
0000
1800
1800
1800
1800
1800
1800
1830
1830
1860
18C0
1B80
1E00
0000
ENDCHAR
STARTCHAR 30ED
ENCODING 12525
SWIDTH 840 0
DWIDTH 14 0
BBX 14 14 0 -2
BITMAP
0000
0000
0000
7FF0
6030
6030
6030
6030
6030
6030
7FF0
6030
0000
0000
ENDCHAR
STARTCHAR 30EE
ENCODING 12526
SWIDTH 840 0
DWIDTH 14 0
BBX 14 14 0 -2
BITMAP
0000
0000
0000
0000
0000
0000
1FF0
1830
1830
1860
0060
01C0
0700
0000
ENDCHAR
STARTCHAR 30EF
ENCODING 12527
SWIDTH 840 0
DWIDTH 14 0
BBX 14 14 0 -2
BITMAP
0000
0000
7FF0
6030
6030
6030
6030
0060
0060
00C0
0180
0700
1C00
0000
ENDCHAR
STARTCHAR 30F0
ENCODING 12528
SWIDTH 840 0
DWIDTH 14 0
BBX 14 14 0 -2
BITMAP
0000
0180
0180
0180
3FF0
1980
1980
1980
1980
7FF8
0180
0180
0180
0000
ENDCHAR
STARTCHAR 30F1
ENCODING 12529
SWIDTH 840 0
DWIDTH 14 0
BBX 14 14 0 -2
BITMAP
0000
0000
0000
7FE0
0660
06C0
0680
0600
0600
0600
FFF8
0000
0000
0000
ENDCHAR
STARTCHAR 30F2
ENCODING 12530
SWIDTH 840 0
DWIDTH 14 0
BBX 14 14 0 -2
BITMAP
0000
0000
3FF0
0030
0030
0030
1FE0
0060
00C0
0180
0300
0E00
3800
0000
ENDCHAR
STARTCHAR 30F3
ENCODING 12531
SWIDTH 840 0
DWIDTH 14 0
BBX 14 14 0 -2
BITMAP
0000
0000
0000
3800
0E18
0018
0030
0030
0060
00C0
0180
0700
3C00
0000
ENDCHAR
STARTCHAR 30F4
ENCODING 12532
SWIDTH 840 0
DWIDTH 14 0
BBX 14 14 0 -2
BITMAP
0000
0334
0334
0334
7FF0
6030
6030
6030
0060
0060
00C0
0380
0E00
0000
ENDCHAR
STARTCHAR 30F5
ENCODING 12533
SWIDTH 840 0
DWIDTH 14 0
BBX 14 14 0 -2
BITMAP
0000
0000
0000
0000
0600
0600
3FE0
0660
0660
0C60
0C60
1860
31C0
0000
ENDCHAR
STARTCHAR 30F6
ENCODING 12534
SWIDTH 840 0
DWIDTH 14 0
BBX 14 14 0 -2
BITMAP
0000
0000
0000
0000
0000
1800
1800
1FE0
1980
3180
6180
0300
0E00
0000
ENDCHAR
STARTCHAR 30FB
ENCODING 12539
SWIDTH 840 0
DWIDTH 14 0
BBX 14 14 0 -2
BITMAP
0000
0000
0000
0000
0000
0000
0300
0780
0300
0000
0000
0000
0000
0000
ENDCHAR
STARTCHAR 30FC
ENCODING 12540
SWIDTH 840 0
DWIDTH 14 0
BBX 14 14 0 -2
BITMAP
0000
0000
0000
0000
0000
0000
C000
7FF0
0000
0000
0000
0000
0000
0000
ENDCHAR
STARTCHAR 30FD
ENCODING 12541
SWIDTH 840 0
DWIDTH 14 0
BBX 14 14 0 -2
BITMAP
0000
0000
0000
0000
1C00
0700
0180
00C0
0060
0000
0000
0000
0000
0000
ENDCHAR
STARTCHAR 30FE
ENCODING 12542
SWIDTH 840 0
DWIDTH 14 0
BBX 14 14 0 -2
BITMAP
0000
0000
0060
01B0
1CC0
0700
0180
00C0
0060
0000
0000
0000
0000
0000
ENDCHAR
STARTCHAR 4E00
ENCODING 19968
SWIDTH 840 0
DWIDTH 14 0
BBX 14 14 0 -2
BITMAP
0000
0000
0000
0000
0000
0000
FFFC
0000
0000
0000
0000
0000
0000
0000
ENDCHAR
STARTCHAR 4E01
ENCODING 19969
SWIDTH 840 0
DWIDTH 14 0
BBX 14 14 0 -2
BITMAP
0000
FFFC
0300
0300
0300
0300
0300
0300
0300
0300
0300
0300
0300
0700
ENDCHAR
STARTCHAR 4E03
ENCODING 19971
SWIDTH 840 0
DWIDTH 14 0
BBX 14 14 0 -2
BITMAP
0C00
0C00
0C00
0C00
0C7C
0FC0
FC00
0C00
0C00
0C00
0C00
0C18
0C18
07F8
ENDCHAR
STARTCHAR 4E07
ENCODING 19975
SWIDTH 840 0
DWIDTH 14 0
BBX 14 14 0 -2
BITMAP
0000
FFFC
0600
0600
0600
07F0
0630
0630
0C30
0C30
1830
3030
6030
C0E0
ENDCHAR
STARTCHAR 4E08
ENCODING 19976
SWIDTH 840 0
DWIDTH 14 0
BBX 14 14 0 -2
BITMAP
0300
0300
0300
FFFC
0300
0300
3300
1B00
0D00
0700
0700
0DC0
3870
E01C
ENDCHAR
STARTCHAR 4E09
ENCODING 19977
SWIDTH 840 0
DWIDTH 14 0
BBX 14 14 0 -2
BITMAP
0000
7FF8
0000
0000
0000
0000
3FF0
0000
0000
0000
0000
0000
FFFC
0000
ENDCHAR
STARTCHAR 4E0A
ENCODING 19978
SWIDTH 840 0
DWIDTH 14 0
BBX 14 14 0 -2
BITMAP
0600
0600
0600
0600
0600
07F0
0600
0600
0600
0600
0600
0600
FFFC
0000
ENDCHAR
STARTCHAR 4E0B
ENCODING 19979
SWIDTH 840 0
DWIDTH 14 0
BBX 14 14 0 -2
BITMAP
0000
FFFC
0300
0300
0380
0340
0360
0330
0330
0300
0300
0300
0300
0300
ENDCHAR
STARTCHAR 4E0D
ENCODING 19981
SWIDTH 840 0
DWIDTH 14 0
BBX 14 14 0 -2
BITMAP
0000
FFFC
0180
0180
0300
0780
0D60
3B30
E318
030C
0300
0300
0300
0300
ENDCHAR
STARTCHAR 4E0E
ENCODING 19982
SWIDTH 840 0
DWIDTH 14 0
BBX 14 14 0 -2
BITMAP
0C00
0C00
0FF0
0C00
0C00
0FC0
00C0
00C0
FFFC
00C0
00C0
00C0
00C0
0780
ENDCHAR
STARTCHAR 4E10
ENCODING 19984
SWIDTH 840 0
DWIDTH 14 0
BBX 14 14 0 -2
BITMAP
0000
FFFC
0300
0300
63F8
6300
6300
7FF8
6018
0018
0018
0030
0030
00E0
ENDCHAR
STARTCHAR 4E11
ENCODING 19985
SWIDTH 840 0
DWIDTH 14 0
BBX 14 14 0 -2
BITMAP
0000
3FE0
0660
0660
0660
0660
7FF8
0C60
0C60
0C60
0C60
0C60
FFFC
0000
ENDCHAR
STARTCHAR 4E14
ENCODING 19988
SWIDTH 840 0
DWIDTH 14 0
BBX 14 14 0 -2
BITMAP
0000
1FE0
1860
1860
1860
1FE0
1860
1860
1FE0
1860
1860
1860
FFFC
0000
ENDCHAR
STARTCHAR 4E15
ENCODING 19989
SWIDTH 840 0
DWIDTH 14 0
BBX 14 14 0 -2
BITMAP
0000
7FF8
0180
0300
0780
0D60
1B30
7318
C30C
0300
0300
0000
7FF8
0000
ENDCHAR
STARTCHAR 4E16
ENCODING 19990
SWIDTH 840 0
DWIDTH 14 0
BBX 14 14 0 -2
BITMAP
3660
3660
3660
3660
FFFC
3660
3660
3660
37E0
3000
3000
3000
3FF8
0000
ENDCHAR
STARTCHAR 4E17
ENCODING 19991
SWIDTH 840 0
DWIDTH 14 0
BBX 14 14 0 -2
BITMAP
3330
3330
3330
3330
3330
FFFC
3330
3330
3330
3330
3330
3330
3FF0
0000
ENDCHAR
STARTCHAR 4E18
ENCODING 19992
SWIDTH 840 0
DWIDTH 14 0
BBX 14 14 0 -2
BITMAP
0060
01C0
1F00
1800
1800
1FF8
18C0
18C0
18C0
18C0
18C0
18C0
FFFC
0000
ENDCHAR
STARTCHAR 4E19
ENCODING 19993
SWIDTH 840 0
DWIDTH 14 0
BBX 14 14 0 -2
BITMAP
0000
FFFC
0300
0300
7FF8
6318
6318
6698
66D8
6C68
6868
6018
6018
6038
ENDCHAR
STARTCHAR 4E1E
ENCODING 19998
SWIDTH 840 0
DWIDTH 14 0
BBX 14 14 0 -2
BITMAP
0000
1FE0
00C0
0198
7D58
0D50
1B60
1B60
3330
6318
C70C
0000
7FF8
0000
ENDCHAR
STARTCHAR 4E21
ENCODING 20001
SWIDTH 840 0
DWIDTH 14 0
BBX 14 14 0 -2
BITMAP
0000
FFFC
0300
0300
7FF8
6318
6B68
6B68
6B68
6B68
6FE8
6018
6018
6038
ENDCHAR
STARTCHAR 4E26
ENCODING 20006
SWIDTH 840 0
DWIDTH 14 0
BBX 14 14 0 -2
BITMAP
1860
0C60
0CC0
FFFC
0CC0
0CC0
6CD8
34D8
34D0
34E0
0CC0
0CC0
FFFC
0000
ENDCHAR
STARTCHAR 4E2A
ENCODING 20010
SWIDTH 840 0
DWIDTH 14 0
BBX 14 14 0 -2
BITMAP
0300
0300
0680
0680
0CC0
1860
3330
6318
C30C
0300
0300
0300
0300
0300
ENDCHAR
STARTCHAR 4E2D
ENCODING 20013
SWIDTH 840 0
DWIDTH 14 0
BBX 14 14 0 -2
BITMAP
0300
0300
0300
7FF8
6318
6318
6318
6318
7FF8
0300
0300
0300
0300
0300
ENDCHAR
STARTCHAR 4E31
ENCODING 20017
SWIDTH 840 0
DWIDTH 14 0
BBX 14 14 0 -2
BITMAP
0D80
0D80
CD98
CD98
CD98
CD98
CD98
CD98
FDF8
0D80
1980
1980
3180
6180
ENDCHAR
STARTCHAR 4E32
ENCODING 20018
SWIDTH 840 0
DWIDTH 14 0
BBX 14 14 0 -2
BITMAP
0300
0300
3FF0
3330
3330
3FF0
0300
7FF8
6318
6318
7FF8
0300
0300
0300
ENDCHAR
STARTCHAR 4E36
ENCODING 20022
SWIDTH 840 0
DWIDTH 14 0
BBX 14 14 0 -2
BITMAP
0000
0000
0000
0000
0600
0300
0180
0180
0000
0000
0000
0000
0000
0000
ENDCHAR
STARTCHAR 4E38
ENCODING 20024
SWIDTH 840 0
DWIDTH 14 0
BBX 14 14 0 -2
BITMAP
0600
0600
0600
0600
FFC0
06C0
06C0
3AC0
0EC0
0D40
19CC
30CC
60CC
C07C
ENDCHAR
STARTCHAR 4E39
ENCODING 20025
SWIDTH 840 0
DWIDTH 14 0
BBX 14 14 0 -2
BITMAP
0000
1FE0
1860
1A60
1B60
1B60
1860
FFFC
1860
1860
3060
3060
6060
C0E0
ENDCHAR
STARTCHAR 4E3B
ENCODING 20027
SWIDTH 840 0
DWIDTH 14 0
BBX 14 14 0 -2
BITMAP
0600
0300
0300
7FF8
0300
0300
0300
3FF0
0300
0300
0300
0300
FFFC
0000
ENDCHAR
STARTCHAR 4E3C
ENCODING 20028
SWIDTH 840 0
DWIDTH 14 0
BBX 14 14 0 -2
BITMAP
0C60
0C60
0C60
7FFC
0C60
0D60
0DA0
0DA0
FFFC
0C60
1860
1860
3060
6060
ENDCHAR
STARTCHAR 4E3F
ENCODING 20031
SWIDTH 840 0
DWIDTH 14 0
BBX 14 14 0 -2
BITMAP
0060
0060
0060
0060
0060
0060
0060
0060
00C0
00C0
0180
0300
0E00
3800
ENDCHAR
STARTCHAR 4E42
ENCODING 20034
SWIDTH 840 0
DWIDTH 14 0
BBX 14 14 0 -2
BITMAP
0060
3060
3060
1860
18C0
18C0
0CC0
0D80
0680
0300
0680
0CC0
3870
E01C
ENDCHAR
STARTCHAR 4E43
ENCODING 20035
SWIDTH 840 0
DWIDTH 14 0
BBX 14 14 0 -2
BITMAP
0000
7FC0
0CC0
0CC0
0CC0
0CC0
0CF8
0C18
0C18
1818
1818
3018
6018
C0F0
ENDCHAR
STARTCHAR 4E45
ENCODING 20037
SWIDTH 840 0
DWIDTH 14 0
BBX 14 14 0 -2
BITMAP
0600
0600
0600
07E0
0C60
0C60
18C0
30C0
61C0
0360
0660
0C30
3818
E00C
ENDCHAR
STARTCHAR 4E4B
ENCODING 20043
SWIDTH 840 0
DWIDTH 14 0
BBX 14 14 0 -2
BITMAP
0300
0300
0300
7FF0
0030
0060
0060
00C0
0180
3300
3A00
3400
6700
C1FC
ENDCHAR
STARTCHAR 4E4D
ENCODING 20045
SWIDTH 840 0
DWIDTH 14 0
BBX 14 14 0 -2
BITMAP
0C00
0C00
0C00
1FFC
1B00
3300
63F8
C300
0300
03F8
0300
0300
0300
0300
ENDCHAR
STARTCHAR 4E4E
ENCODING 20046
SWIDTH 840 0
DWIDTH 14 0
BBX 14 14 0 -2
BITMAP
0070
7FC0
0330
3330
1B60
1B40
0300
FFFC
0300
0300
0300
0300
0300
0700
ENDCHAR
STARTCHAR 4E4F
ENCODING 20047
SWIDTH 840 0
DWIDTH 14 0
BBX 14 14 0 -2
BITMAP
0038
01E0
7F00
0300
0300
3FF0
0030
0060
00C0
1B80
1E00
3400
6700
C1FC
ENDCHAR
STARTCHAR 4E55
ENCODING 20053
SWIDTH 840 0
DWIDTH 14 0
BBX 14 14 0 -2
BITMAP
00F8
3F80
3180
3FFC
3180
3FFC
3180
37F8
3598
3598
6D98
6DB0
C180
0180
ENDCHAR
STARTCHAR 4E56
ENCODING 20054
SWIDTH 840 0
DWIDTH 14 0
BBX 14 14 0 -2
BITMAP
0070
3FC0
0300
0300
FFFC
0300
1B60
FB6C
1B70
1B60
3B6C
EB3C
0300
0300
ENDCHAR
STARTCHAR 4E57
ENCODING 20055
SWIDTH 840 0
DWIDTH 14 0
BBX 14 14 0 -2
BITMAP
00E0
3F80
0300
7FF8
1B60
FFFC
1B60
7FF8
0780
0D40
3B70
E31C
0300
0300
ENDCHAR
STARTCHAR 4E58
ENCODING 20056
SWIDTH 840 0
DWIDTH 14 0
BBX 14 14 0 -2
BITMAP
00E0
3F80
0300
FFFC
0D58
7D70
0D40
3D58
ED78
0780
0D40
3B70
E31C
0300
ENDCHAR
STARTCHAR 4E59
ENCODING 20057
SWIDTH 840 0
DWIDTH 14 0
BBX 14 14 0 -2
BITMAP
0000
7FE0
00C0
0180
0300
0600
0C00
1800
3000
6018
6018
6018
3FF8
0000
ENDCHAR
STARTCHAR 4E5D
ENCODING 20061
SWIDTH 840 0
DWIDTH 14 0
BBX 14 14 0 -2
BITMAP
0600
0600
0600
0600
FFC0
06C0
06C0
06C0
0CC0
0CC0
18CC
30CC
60CC
C07C
ENDCHAR
STARTCHAR 4E5E
ENCODING 20062
SWIDTH 840 0
DWIDTH 14 0
BBX 14 14 0 -2
BITMAP
1800
1800
1800
3FF8
3000
6000
DFC0
0300
0600
0C00
1800
3018
3018
1FF8
ENDCHAR
STARTCHAR 4E5F
ENCODING 20063
SWIDTH 840 0
DWIDTH 14 0
BBX 14 14 0 -2
BITMAP
0300
3300
3300
3370
33D0
3730
3B30
F330
3330
3330
3360
300C
300C
1FFC
ENDCHAR
STARTCHAR 4E62
ENCODING 20066
SWIDTH 840 0
DWIDTH 14 0
BBX 14 14 0 -2
BITMAP
3180
3180
3180
D580
D580
D580
D580
D580
D580
D580
D58C
FD8C
018C
00FC
ENDCHAR
STARTCHAR 4E71
ENCODING 20081
SWIDTH 840 0
DWIDTH 14 0
BBX 14 14 0 -2
BITMAP
06C0
1CC0
78C0
18C0
18C0
FF40
18C0
18C0
7EC0
66C0
66C0
66CC
7ECC
007C
ENDCHAR
STARTCHAR 4E73
ENCODING 20083
SWIDTH 840 0
DWIDTH 14 0
BBX 14 14 0 -2
BITMAP
0740
FCC0
3340
DB40
6AC0
6CC0
7F40
06C0
0CC0
0F40
FCC0
0CCC
0CCC
1C7C
ENDCHAR
STARTCHAR 4E7E
ENCODING 20094
SWIDTH 840 0
DWIDTH 14 0
BBX 14 14 0 -2
BITMAP
1980
1980
FFFC
1980
7F00
66F8
7E30
6660
7EC0
18C0
FF80
198C
198C
18FC
ENDCHAR
STARTCHAR 4E80
ENCODING 20096
SWIDTH 840 0
DWIDTH 14 0
BBX 14 14 0 -2
BITMAP
0600
07C0
1D80
FFE0
1B60
1FE0
1B60
3FF0
3330
3FF0
3330
3FF4
030C
01FC
ENDCHAR
STARTCHAR 4E82
ENCODING 20098
SWIDTH 840 0
DWIDTH 14 0
BBX 14 14 0 -2
BITMAP
0F40
FAC0
6B40
7F40
D6C0
18C0
FF40
D540
FD40
DD40
D540
DB4C
D54C
E77C
ENDCHAR
STARTCHAR 4E85
ENCODING 20101
SWIDTH 840 0
DWIDTH 14 0
BBX 14 14 0 -2
BITMAP
0300
0300
0300
0300
0300
0300
0300
0300
0300
0300
0300
0300
0300
0E00
ENDCHAR
STARTCHAR 4E86
ENCODING 20102
SWIDTH 840 0
DWIDTH 14 0
BBX 14 14 0 -2
BITMAP
0000
7FF0
0060
00C0
0380
0300
0300
0300
0300
0300
0300
0300
0300
0700
ENDCHAR
STARTCHAR 4E88
ENCODING 20104
SWIDTH 840 0
DWIDTH 14 0
BBX 14 14 0 -2
BITMAP
0000
3FF0
0660
0340
0380
FFFC
0318
0330
0360
0300
0300
0300
0300
0700
ENDCHAR
STARTCHAR 4E89
ENCODING 20105
SWIDTH 840 0
DWIDTH 14 0
BBX 14 14 0 -2
BITMAP
0300
07E0
1CC0
7180
3FF0
0330
FFFC
0330
0330
3FF0
0300
0300
0300
0700
ENDCHAR
STARTCHAR 4E8A
ENCODING 20106
SWIDTH 840 0
DWIDTH 14 0
BBX 14 14 0 -2
BITMAP
0300
0300
FFFC
3330
1B30
1B60
3FF0
0330
FFFC
0330
3FF0
0300
0300
0700
ENDCHAR
STARTCHAR 4E8B
ENCODING 20107
SWIDTH 840 0
DWIDTH 14 0
BBX 14 14 0 -2
BITMAP
0300
FFFC
0300
1FE0
1B60
1FE0
0300
3FF0
0330
FFFC
0330
3FF0
0300
0700
ENDCHAR
STARTCHAR 4E8C
ENCODING 20108
SWIDTH 840 0
DWIDTH 14 0
BBX 14 14 0 -2
BITMAP
0000
0000
7FF8
0000
0000
0000
0000
0000
0000
0000
0000
FFFC
0000
0000
ENDCHAR
STARTCHAR 4E8E
ENCODING 20110
SWIDTH 840 0
DWIDTH 14 0
BBX 14 14 0 -2
BITMAP
0000
7FF8
0300
0300
0300
0300
FFFC
0300
0300
0300
0300
0300
0300
0E00
ENDCHAR
STARTCHAR 4E91
ENCODING 20113
SWIDTH 840 0
DWIDTH 14 0
BBX 14 14 0 -2
BITMAP
0000
3FF0
0000
0000
0000
FFFC
0300
0300
0340
0660
0630
0CF0
7F98
0018
ENDCHAR
STARTCHAR 4E92
ENCODING 20114
SWIDTH 840 0
DWIDTH 14 0
BBX 14 14 0 -2
BITMAP
0000
7FF8
0600
0600
0FE0
0C60
0C60
0C60
1FE0
00C0
00C0
00C0
FFFC
0000
ENDCHAR
STARTCHAR 4E94
ENCODING 20116
SWIDTH 840 0
DWIDTH 14 0
BBX 14 14 0 -2
BITMAP
0000
7FF8
0600
0600
0600
0600
7FE0
0C60
0C60
0C60
1860
1860
FFFC
0000
ENDCHAR
STARTCHAR 4E95
ENCODING 20117
SWIDTH 840 0
DWIDTH 14 0
BBX 14 14 0 -2
BITMAP
0CC0
0CC0
0CC0
0CC0
7FF8
0CC0
0CC0
0CC0
FFFC
0CC0
18C0
18C0
30C0
60C0
ENDCHAR
STARTCHAR 4E98
ENCODING 20120
SWIDTH 840 0
DWIDTH 14 0
BBX 14 14 0 -2
BITMAP
0000
7FF8
0000
0000
1FE0
1860
1860
1FE0
1860
1860
1FE0
0000
0000
FFFC
ENDCHAR
STARTCHAR 4E99
ENCODING 20121
SWIDTH 840 0
DWIDTH 14 0
BBX 14 14 0 -2
BITMAP
0000
7FF8
0600
0600
0FE0
0D60
0DA0
0DA0
1A60
1B40
1B40
00C0
FFFC
0000
ENDCHAR
STARTCHAR 4E9B
ENCODING 20123
SWIDTH 840 0
DWIDTH 14 0
BBX 14 14 0 -2
BITMAP
1980
1980
69B8
6FE0
6980
698C
6E8C
F0FC
0000
3FF0
0000
0000
FFFC
0000
ENDCHAR
STARTCHAR 4E9C
ENCODING 20124
SWIDTH 840 0
DWIDTH 14 0
BBX 14 14 0 -2
BITMAP
0000
FFF8
0D80
0D80
7FF0
6DB0
6DB0
6DB0
7FF0
0D80
0D80
0D80
FFF8
0000
ENDCHAR
STARTCHAR 4E9E
ENCODING 20126
SWIDTH 840 0
DWIDTH 14 0
BBX 14 14 0 -2
BITMAP
0000
FFFC
0CC0
0CC0
0CC0
7CF8
6018
6018
7CF8
0CC0
0CC0
0CC0
FFFC
0000
ENDCHAR
STARTCHAR 4E9F
ENCODING 20127
SWIDTH 840 0
DWIDTH 14 0
BBX 14 14 0 -2
BITMAP
0000
FFFC
0600
0600
0FF8
7DD8
6DA8
6DB0
6DB0
7DA8
01CC
0700
FFFC
0000
ENDCHAR
STARTCHAR 4EA0
ENCODING 20128
SWIDTH 840 0
DWIDTH 14 0
BBX 14 14 0 -2
BITMAP
0000
0000
0000
0300
0300
0300
0300
FFFC
0000
0000
0000
0000
0000
0000
ENDCHAR
STARTCHAR 4EA1
ENCODING 20129
SWIDTH 840 0
DWIDTH 14 0
BBX 14 14 0 -2
BITMAP
0300
0300
0300
FFFC
3000
3000
3000
3000
3000
3000
3000
3000
1FF8
0000
ENDCHAR
STARTCHAR 4EA2
ENCODING 20130
SWIDTH 840 0
DWIDTH 14 0
BBX 14 14 0 -2
BITMAP
0300
0300
FFFC
0000
0000
0FC0
0CC0
0CC0
0CC0
0CC0
18C0
18CC
30CC
607C
ENDCHAR
STARTCHAR 4EA4
ENCODING 20132
SWIDTH 840 0
DWIDTH 14 0
BBX 14 14 0 -2
BITMAP
0300
0300
FFFC
0CC0
0C60
18D0
34D8
66D8
0680
0380
0380
06C0
1C70
F01C
ENDCHAR
STARTCHAR 4EA5
ENCODING 20133
SWIDTH 840 0
DWIDTH 14 0
BBX 14 14 0 -2
BITMAP
0300
0300
FFFC
0300
06C0
3AC0
0DB0
0760
06C0
1DC0
3360
0E30
3818
E018
ENDCHAR
STARTCHAR 4EA6
ENCODING 20134
SWIDTH 840 0
DWIDTH 14 0
BBX 14 14 0 -2
BITMAP
0300
0300
0300
FFFC
06C0
06C0
36D0
36D8
66CC
C6CC
0CC0
0CC0
18C0
31C0
ENDCHAR
STARTCHAR 4EA8
ENCODING 20136
SWIDTH 840 0
DWIDTH 14 0
BBX 14 14 0 -2
BITMAP
0300
FFFC
0000
1FE0
1860
1FE0
0000
3FE0
00C0
0380
0300
0300
0300
0700
ENDCHAR
STARTCHAR 4EAB
ENCODING 20139
SWIDTH 840 0
DWIDTH 14 0
BBX 14 14 0 -2
BITMAP
0300
FFFC
0000
1FE0
1860
1FE0
0000
3FE0
00C0
0380
FFFC
0300
0300
0700
ENDCHAR
STARTCHAR 4EAC
ENCODING 20140
SWIDTH 840 0
DWIDTH 14 0
BBX 14 14 0 -2
BITMAP
0300
0300
FFFC
0000
1FE0
1860
1860
1FE0
0300
1B60
1B30
3318
6318
0700
ENDCHAR
STARTCHAR 4EAD
ENCODING 20141
SWIDTH 840 0
DWIDTH 14 0
BBX 14 14 0 -2
BITMAP
0300
FFFC
0000
1FE0
1860
1FE0
0000
FFFC
C00C
DFF4
0300
0300
0300
0700
ENDCHAR
STARTCHAR 4EAE
ENCODING 20142
SWIDTH 840 0
DWIDTH 14 0
BBX 14 14 0 -2
BITMAP
0300
FFFC
0000
1FE0
1860
1FE0
0000
FFFC
C00C
CD8C
0D80
0D8C
398C
E0FC
ENDCHAR
STARTCHAR 4EB0
ENCODING 20144
SWIDTH 840 0
DWIDTH 14 0
BBX 14 14 0 -2
BITMAP
0300
0300
FFFC
0000
3FF0
3030
3FF0
3030
3FF0
1B60
1B30
3318
6318
0700
ENDCHAR
STARTCHAR 4EB3
ENCODING 20147
SWIDTH 840 0
DWIDTH 14 0
BBX 14 14 0 -2
BITMAP
0300
FFFC
0000
1FE0
1860
1FE0
0000
FFFC
C1CC
DF0C
03F8
7F00
030C
01FC
ENDCHAR
STARTCHAR 4EB6
ENCODING 20150
SWIDTH 840 0
DWIDTH 14 0
BBX 14 14 0 -2
BITMAP
0300
0300
FFFC
37D0
34D0
37D0
3FF0
1860
1FE0
1860
1FE0
0000
FFFC
0000
ENDCHAR
STARTCHAR 4EBA
ENCODING 20154
SWIDTH 840 0
DWIDTH 14 0
BBX 14 14 0 -2
BITMAP
0300
0300
0300
0300
0300
0300
0780
0680
0CC0
0CC0
1860
3030
6018
C00C
ENDCHAR
STARTCHAR 4EC0
ENCODING 20160
SWIDTH 840 0
DWIDTH 14 0
BBX 14 14 0 -2
BITMAP
0CC0
0CC0
0CC0
18C0
18C0
3FFC
68C0
D8C0
18C0
18C0
18C0
18C0
18C0
18C0
ENDCHAR
STARTCHAR 4EC1
ENCODING 20161
SWIDTH 840 0
DWIDTH 14 0
BBX 14 14 0 -2
BITMAP
1800
1800
1BF8
3000
3000
7000
D000
3000
3000
3000
3000
37FC
3000
3000
ENDCHAR
STARTCHAR 4EC2
ENCODING 20162
SWIDTH 840 0
DWIDTH 14 0
BBX 14 14 0 -2
BITMAP
1980
1980
1980
3180
3FF8
7198
D198
3198
3198
3318
3318
3618
3418
3870
ENDCHAR
STARTCHAR 4EC4
ENCODING 20164
SWIDTH 840 0
DWIDTH 14 0
BBX 14 14 0 -2
BITMAP
0000
3FFC
3000
3180
3180
3180
3180
3340
3340
3660
6660
6C30
D818
300C
ENDCHAR
STARTCHAR 4EC6
ENCODING 20166
SWIDTH 840 0
DWIDTH 14 0
BBX 14 14 0 -2
BITMAP
0CC0
0CC0
0CC0
18C0
18E0
38D0
68D8
D8CC
18CC
18C0
18C0
18C0
18C0
18C0
ENDCHAR
STARTCHAR 4EC7
ENCODING 20167
SWIDTH 840 0
DWIDTH 14 0
BBX 14 14 0 -2
BITMAP
1B00
1B00
1B00
3300
33E0
7F60
D360
3360
3360
3360
366C
366C
346C
383C
ENDCHAR
STARTCHAR 4ECA
ENCODING 20170
SWIDTH 840 0
DWIDTH 14 0
BBX 14 14 0 -2
BITMAP
0300
0300
0680
0CC0
3870
EFDC
0000
0000
3FE0
0060
00C0
00C0
0180
0700
ENDCHAR
STARTCHAR 4ECB
ENCODING 20171
SWIDTH 840 0
DWIDTH 14 0
BBX 14 14 0 -2
BITMAP
0300
0300
0680
0CC0
3870
ECDC
0CC0
0CC0
0CC0
0CC0
18C0
18C0
30C0
60C0
ENDCHAR
STARTCHAR 4ECD
ENCODING 20173
SWIDTH 840 0
DWIDTH 14 0
BBX 14 14 0 -2
BITMAP
1800
1FE0
1B60
3360
3360
7360
D378
3368
3318
3318
3618
3618
3418
3870
ENDCHAR
STARTCHAR 4ECE
ENCODING 20174
SWIDTH 840 0
DWIDTH 14 0
BBX 14 14 0 -2
BITMAP
1860
1860
1860
1860
1860
1860
1860
18E0
1CD0
36D0
36B0
3398
6318
C60C
ENDCHAR
STARTCHAR 4ECF
ENCODING 20175
SWIDTH 840 0
DWIDTH 14 0
BBX 14 14 0 -2
BITMAP
1980
1980
1980
1980
3180
3180
7180
D300
3360
3330
3618
36F8
3F8C
300C
ENDCHAR
STARTCHAR 4ED4
ENCODING 20180
SWIDTH 840 0
DWIDTH 14 0
BBX 14 14 0 -2
BITMAP
1800
1BF8
1830
3060
30C0
70C0
D0C0
37FC
30C0
30C0
30C0
30C0
30C0
31C0
ENDCHAR
STARTCHAR 4ED5
ENCODING 20181
SWIDTH 840 0
DWIDTH 14 0
BBX 14 14 0 -2
BITMAP
18C0
18C0
18C0
30C0
30C0
77FC
D0C0
30C0
30C0
30C0
30C0
30C0
37F8
3000
ENDCHAR
STARTCHAR 4ED6
ENCODING 20182
SWIDTH 840 0
DWIDTH 14 0
BBX 14 14 0 -2
BITMAP
18C0
18C0
1AC0
36D8
36F8
77D8
DED8
36D8
36D8
36D8
36C0
360C
360C
33FC
ENDCHAR
STARTCHAR 4ED7
ENCODING 20183
SWIDTH 840 0
DWIDTH 14 0
BBX 14 14 0 -2
BITMAP
18C0
18C0
18C0
37FC
30C0
76C0
D6C0
3340
33C0
3180
31C0
3360
3630
341C
ENDCHAR
STARTCHAR 4ED8
ENCODING 20184
SWIDTH 840 0
DWIDTH 14 0
BBX 14 14 0 -2
BITMAP
0C30
0C30
0C30
1830
1BFC
3830
6B30
D9B0
19B0
1830
1830
1830
1830
1870
ENDCHAR
STARTCHAR 4ED9
ENCODING 20185
SWIDTH 840 0
DWIDTH 14 0
BBX 14 14 0 -2
BITMAP
18C0
18C0
18C0
36D8
36D8
76D8
D6D8
36D8
36D8
36D8
36D8
36D8
37F8
3000
ENDCHAR
STARTCHAR 4EDD
ENCODING 20189
SWIDTH 840 0
DWIDTH 14 0
BBX 14 14 0 -2
BITMAP
0300
0300
0680
0CC0
1860
3030
E01C
1FE0
0300
0300
0300
0300
FFFC
0000
ENDCHAR
STARTCHAR 4EDE
ENCODING 20190
SWIDTH 840 0
DWIDTH 14 0
BBX 14 14 0 -2
BITMAP
1800
1FF8
1998
3198
3198
7198
D698
3698
3598
3198
3318
3318
3618
3470
ENDCHAR
STARTCHAR 4EDF
ENCODING 20191
SWIDTH 840 0
DWIDTH 14 0
BBX 14 14 0 -2
BITMAP
1818
1870
1BC0
30C0
30C0
70C0
DFFC
30C0
30C0
30C0
30C0
30C0
30C0
30C0
ENDCHAR
STARTCHAR 4EE3
ENCODING 20195
SWIDTH 840 0
DWIDTH 14 0
BBX 14 14 0 -2
BITMAP
0DB0
0D98
0D98
1980
19FC
3F40
68C0
D8C0
1860
1860
1834
1834
181C
180C
ENDCHAR
STARTCHAR 4EE4
ENCODING 20196
SWIDTH 840 0
DWIDTH 14 0
BBX 14 14 0 -2
BITMAP
0300
0300
0680
0CC0
3870
EFEC
0000
3FF0
0330
0330
0330
03E0
0300
0300
ENDCHAR
STARTCHAR 4EE5
ENCODING 20197
SWIDTH 840 0
DWIDTH 14 0
BBX 14 14 0 -2
BITMAP
3030
3030
3630
3330
31B0
31B0
3030
3030
3030
3070
3668
38D8
E38C
0E0C
ENDCHAR
STARTCHAR 4EED
ENCODING 20205
SWIDTH 840 0
DWIDTH 14 0
BBX 14 14 0 -2
BITMAP
1800
1FF8
1998
3198
3198
7598
D698
3398
3198
3368
333C
3618
3418
3870
ENDCHAR
STARTCHAR 4EEE
ENCODING 20206
SWIDTH 840 0
DWIDTH 14 0
BBX 14 14 0 -2
BITMAP
1800
1BFC
1A00
3600
37F8
7698
D698
36D0
36D0
3660
3460
34D0
3B98
360C
ENDCHAR
STARTCHAR 4EF0
ENCODING 20208
SWIDTH 840 0
DWIDTH 14 0
BBX 14 14 0 -2
BITMAP
18C0
1980
1B78
36D8
36D8
76D8
D6D8
36D8
36D8
37D8
3EF0
30C0
30C0
30C0
ENDCHAR
STARTCHAR 4EF2
ENCODING 20210
SWIDTH 840 0
DWIDTH 14 0
BBX 14 14 0 -2
BITMAP
18C0
18C0
18C0
37FC
34CC
74CC
D4CC
34CC
37FC
30C0
30C0
30C0
30C0
30C0
ENDCHAR
STARTCHAR 4EF6
ENCODING 20214
SWIDTH 840 0
DWIDTH 14 0
BBX 14 14 0 -2
BITMAP
18C0
1B40
1B40
37F8
36C0
74C0
D0C0
37FC
30C0
30C0
30C0
30C0
30C0
30C0
ENDCHAR
STARTCHAR 4EF7
ENCODING 20215
SWIDTH 840 0
DWIDTH 14 0
BBX 14 14 0 -2
BITMAP
1980
1980
19C0
3340
3360
7630
D568
3B6C
3360
3360
3660
3660
3460
3860
ENDCHAR
STARTCHAR 4EFB
ENCODING 20219
SWIDTH 840 0
DWIDTH 14 0
BBX 14 14 0 -2
BITMAP
1838
1BE0
18C0
30C0
30C0
70C0
D7FC
30C0
30C0
30C0
30C0
30C0
37F8
3000
ENDCHAR
STARTCHAR 4F01
ENCODING 20225
SWIDTH 840 0
DWIDTH 14 0
BBX 14 14 0 -2
BITMAP
0300
0300
0680
0CC0
3B70
E31C
0300
1B00
1BF0
1B00
1B00
1B00
FFFC
0000
ENDCHAR
STARTCHAR 4F09
ENCODING 20233
SWIDTH 840 0
DWIDTH 14 0
BBX 14 14 0 -2
BITMAP
18C0
18C0
1FFC
3000
3000
73E0
D360
3360
3360
3360
3660
366C
346C
383C
ENDCHAR
STARTCHAR 4F0A
ENCODING 20234
SWIDTH 840 0
DWIDTH 14 0
BBX 14 14 0 -2
BITMAP
1800
1BF8
18D8
30D8
37FC
70D8
D0D8
37F8
30C0
30C0
3180
3180
3300
3600
ENDCHAR
STARTCHAR 4F0D
ENCODING 20237
SWIDTH 840 0
DWIDTH 14 0
BBX 14 14 0 -2
BITMAP
1800
1FF8
1980
3180
3180
7180
D7F0
3330
3330
3330
3330
3330
3FFC
3000
ENDCHAR
STARTCHAR 4F0E
ENCODING 20238
SWIDTH 840 0
DWIDTH 14 0
BBX 14 14 0 -2
BITMAP
18C0
18C0
18C0
37FC
30C0
70C0
D7F8
3318
3330
31B0
31A0
30C0
33B0
361C
ENDCHAR
STARTCHAR 4F0F
ENCODING 20239
SWIDTH 840 0
DWIDTH 14 0
BBX 14 14 0 -2
BITMAP
18C0
18D0
18D8
30D8
30C0
77FC
D0C0
30C0
30C0
31A0
31A0
3330
3618
380C
ENDCHAR
STARTCHAR 4F10
ENCODING 20240
SWIDTH 840 0
DWIDTH 14 0
BBX 14 14 0 -2
BITMAP
0CD0
0CD8
0CD8
18C0
18FC
3FD8
68D8
D8D0
1870
1860
18EC
19B4
1B1C
180C
ENDCHAR
STARTCHAR 4F11
ENCODING 20241
SWIDTH 840 0
DWIDTH 14 0
BBX 14 14 0 -2
BITMAP
18C0
18C0
18C0
30C0
37FC
70C0
D1E0
31E0
3350
3350
36D8
34CC
30C0
30C0
ENDCHAR
STARTCHAR 4F1A
ENCODING 20250
SWIDTH 840 0
DWIDTH 14 0
BBX 14 14 0 -2
BITMAP
0300
0300
0680
0CC0
3870
EFDC
0000
0000
7FF8
06C0
0660
0DD0
7F18
0018
ENDCHAR
STARTCHAR 4F1C
ENCODING 20252
SWIDTH 840 0
DWIDTH 14 0
BBX 14 14 0 -2
BITMAP
1980
1980
1FE0
31A0
336C
736C
D63C
34C0
30C0
37FC
30C0
30C0
30C0
30C0
ENDCHAR
STARTCHAR 4F1D
ENCODING 20253
SWIDTH 840 0
DWIDTH 14 0
BBX 14 14 0 -2
BITMAP
1800
1BF8
1800
3000
3000
77FC
D180
3180
31A0
3330
3318
3678
3FCC
300C
ENDCHAR
STARTCHAR 4F2F
ENCODING 20271
SWIDTH 840 0
DWIDTH 14 0
BBX 14 14 0 -2
BITMAP
18C0
18C0
18C0
3180
37F8
7618
D618
3618
37F8
3618
3618
3618
37F8
3000
ENDCHAR
STARTCHAR 4F30
ENCODING 20272
SWIDTH 840 0
DWIDTH 14 0
BBX 14 14 0 -2
BITMAP
18C0
18C0
18C0
37FC
30C0
70C0
D0C0
37F8
3618
3618
3618
3618
37F8
3000
ENDCHAR
STARTCHAR 4F34
ENCODING 20276
SWIDTH 840 0
DWIDTH 14 0
BBX 14 14 0 -2
BITMAP
18C0
1AD8
1B58
3350
30C0
77F8
D0C0
30C0
37FC
30C0
30C0
30C0
30C0
30C0
ENDCHAR
STARTCHAR 4F36
ENCODING 20278
SWIDTH 840 0
DWIDTH 14 0
BBX 14 14 0 -2
BITMAP
0CC0
0CC0
0DA0
19A0
1B30
3BF8
6C0C
DBF8
18D8
18D8
18D8
18F0
18C0
18C0
ENDCHAR
STARTCHAR 4F38
ENCODING 20280
SWIDTH 840 0
DWIDTH 14 0
BBX 14 14 0 -2
BITMAP
18C0
18C0
1BF8
36D8
36D8
77F8
D6D8
36D8
37F8
30C0
30C0
30C0
30C0
30C0
ENDCHAR
STARTCHAR 4F3A
ENCODING 20282
SWIDTH 840 0
DWIDTH 14 0
BBX 14 14 0 -2
BITMAP
1800
1FF8
1818
37E8
3018
7018
D7D8
36D8
36D8
36D8
37D8
3018
3018
3038
ENDCHAR
STARTCHAR 4F3C
ENCODING 20284
SWIDTH 840 0
DWIDTH 14 0
BBX 14 14 0 -2
BITMAP
1830
1A30
1B30
36B0
36D0
76D0
D630
3630
3630
3630
36B0
3768
3CCC
318C
ENDCHAR
STARTCHAR 4F3D
ENCODING 20285
SWIDTH 840 0
DWIDTH 14 0
BBX 14 14 0 -2
BITMAP
1A00
1A00
1A78
3FA8
36A8
76A8
D6A8
36A8
36A8
36A8
35A8
35A8
3BB8
3000
ENDCHAR
STARTCHAR 4F43
ENCODING 20291
SWIDTH 840 0
DWIDTH 14 0
BBX 14 14 0 -2
BITMAP
1800
1BF8
1AD8
36D8
36D8
76D8
D7F8
36D8
36D8
36D8
36D8
36D8
37F8
3000
ENDCHAR
STARTCHAR 4F46
ENCODING 20294
SWIDTH 840 0
DWIDTH 14 0
BBX 14 14 0 -2
BITMAP
1800
1BF0
1A30
3630
3630
77F0
D630
3630
3630
37F0
3000
3000
3FFC
3000
ENDCHAR
STARTCHAR 4F47
ENCODING 20295
SWIDTH 840 0
DWIDTH 14 0
BBX 14 14 0 -2
BITMAP
18C0
18C0
1FFC
340C
340C
7000
D7FC
30C0
30C0
30C0
30C0
30C0
30C0
31C0
ENDCHAR
STARTCHAR 4F4D
ENCODING 20301
SWIDTH 840 0
DWIDTH 14 0
BBX 14 14 0 -2
BITMAP
1980
1980
1980
3180
3FFC
7030
D630
3330
3330
3360
3360
30C0
3FFC
3000
ENDCHAR
STARTCHAR 4F4E
ENCODING 20302
SWIDTH 840 0
DWIDTH 14 0
BBX 14 14 0 -2
BITMAP
1838
1BE0
1AC0
36C0
36C0
77FC
D660
3660
3660
37B0
3C34
301C
37FC
300C
ENDCHAR
STARTCHAR 4F4F
ENCODING 20303
SWIDTH 840 0
DWIDTH 14 0
BBX 14 14 0 -2
BITMAP
1980
18C0
18C0
37FC
30C0
70C0
D0C0
37F8
30C0
30C0
30C0
30C0
37FC
3000
ENDCHAR
STARTCHAR 4F50
ENCODING 20304
SWIDTH 840 0
DWIDTH 14 0
BBX 14 14 0 -2
BITMAP
1980
1980
1980
37FC
3180
7180
D180
33F8
3360
3660
3460
3860
37FC
3000
ENDCHAR
STARTCHAR 4F51
ENCODING 20305
SWIDTH 840 0
DWIDTH 14 0
BBX 14 14 0 -2
BITMAP
1980
1980
1980
37FC
3300
7300
D600
37F8
3518
3B18
3318
3318
33F8
3000
ENDCHAR
STARTCHAR 4F53
ENCODING 20307
SWIDTH 840 0
DWIDTH 14 0
BBX 14 14 0 -2
BITMAP
18C0
18C0
18C0
30C0
37FC
71E0
D1E0
3350
3350
36D8
35F4
30C0
30C0
30C0
ENDCHAR
STARTCHAR 4F55
ENCODING 20309
SWIDTH 840 0
DWIDTH 14 0
BBX 14 14 0 -2
BITMAP
1800
1FFC
1818
3018
37D8
76D8
D6D8
36D8
36D8
37D8
3018
3018
3018
3038
ENDCHAR
STARTCHAR 4F57
ENCODING 20311
SWIDTH 840 0
DWIDTH 14 0
BBX 14 14 0 -2
BITMAP
18C0
18C0
1FFC
340C
358C
7180
D198
31B0
31E0
3180
3180
318C
318C
30FC
ENDCHAR
STARTCHAR 4F59
ENCODING 20313
SWIDTH 840 0
DWIDTH 14 0
BBX 14 14 0 -2
BITMAP
0300
0300
0680
0CC0
3870
EFEC
0300
0300
7FF8
1B60
1B30
3318
6318
0700
ENDCHAR
STARTCHAR 4F5A
ENCODING 20314
SWIDTH 840 0
DWIDTH 14 0
BBX 14 14 0 -2
BITMAP
18C0
1AC0
1AC0
36C0
37F8
74C0
D8C0
3FFC
31C0
31A0
3360
3630
3418
380C
ENDCHAR
STARTCHAR 4F5B
ENCODING 20315
SWIDTH 840 0
DWIDTH 14 0
BBX 14 14 0 -2
BITMAP
19A0
19A0
1FF8
31A8
31A8
77F8
D5A0
35A0
37FC
35AC
336C
336C
3678
3460
ENDCHAR
STARTCHAR 4F5C
ENCODING 20316
SWIDTH 840 0
DWIDTH 14 0
BBX 14 14 0 -2
BITMAP
1B00
1B00
1B00
37FC
3680
7580
D9F8
3180
3180
31F8
3180
3180
3180
3180
ENDCHAR
STARTCHAR 4F5D
ENCODING 20317
SWIDTH 840 0
DWIDTH 14 0
BBX 14 14 0 -2
BITMAP
1B00
1B00
1B00
37F8
3618
7418
D7D8
36D8
36D8
36D8
37D8
3018
3018
3070
ENDCHAR
STARTCHAR 4F5E
ENCODING 20318
SWIDTH 840 0
DWIDTH 14 0
BBX 14 14 0 -2
BITMAP
1800
1BF8
1800
3000
37FC
7180
D180
37FC
3330
3330
37E0
3070
31D8
370C
ENDCHAR
STARTCHAR 4F69
ENCODING 20329
SWIDTH 840 0
DWIDTH 14 0
BBX 14 14 0 -2
BITMAP
1800
1FF0
1C30
3430
37F0
75B0
D7F0
36B0
36B0
36B0
36F4
3A9C
399C
318C
ENDCHAR
STARTCHAR 4F6F
ENCODING 20335
SWIDTH 840 0
DWIDTH 14 0
BBX 14 14 0 -2
BITMAP
1A30
1B30
1B60
37FC
30C0
70C0
D7F8
30C0
30C0
37FC
30C0
30C0
30C0
30C0
ENDCHAR
STARTCHAR 4F70
ENCODING 20336
SWIDTH 840 0
DWIDTH 14 0
BBX 14 14 0 -2
BITMAP
1800
1FFC
18C0
3180
37F8
7618
D618
3618
37F8
3618
3618
3618
37F8
3000
ENDCHAR
STARTCHAR 4F73
ENCODING 20339
SWIDTH 840 0
DWIDTH 14 0
BBX 14 14 0 -2
BITMAP
18C0
18C0
18C0
37F8
30C0
70C0
D7FC
30C0
30C0
37F8
30C0
30C0
37FC
3000
ENDCHAR
STARTCHAR 4F75
ENCODING 20341
SWIDTH 840 0
DWIDTH 14 0
BBX 14 14 0 -2
BITMAP
1A30
1B30
1B60
37F8
3360
7360
D360
3FFC
3360
3360
3660
3660
3460
3860
ENDCHAR
STARTCHAR 4F76
ENCODING 20342
SWIDTH 840 0
DWIDTH 14 0
BBX 14 14 0 -2
BITMAP
18C0
18C0
18C0
3FFC
30C0
70C0
D7F8
3000
37F8
3618
3618
3618
37F8
3000
ENDCHAR
STARTCHAR 4F7B
ENCODING 20347
SWIDTH 840 0
DWIDTH 14 0
BBX 14 14 0 -2
BITMAP
19A0
19A0
19A8
35A8
36B0
76A0
D1B0
33A8
36AC
3DAC
3360
336C
366C
343C
ENDCHAR
STARTCHAR 4F7C
ENCODING 20348
SWIDTH 840 0
DWIDTH 14 0
BBX 14 14 0 -2
BITMAP
18C0
18C0
1FFC
3360
3330
7668
D568
3360
31C0
31C0
31C0
3360
3630
381C
ENDCHAR
STARTCHAR 4F7F
ENCODING 20351
SWIDTH 840 0
DWIDTH 14 0
BBX 14 14 0 -2
BITMAP
18C0
18C0
1FFC
30C0
37F8
76D8
D6D8
37F8
36C0
3340
3180
31C0
3770
3C1C
ENDCHAR
STARTCHAR 4F83
ENCODING 20355
SWIDTH 840 0
DWIDTH 14 0
BBX 14 14 0 -2
BITMAP
1800
1BF8
1A18
3618
3618
77F8
D000
36B0
36B0
36B0
36B0
35B4
35B4
381C
ENDCHAR
STARTCHAR 4F86
ENCODING 20358
SWIDTH 840 0
DWIDTH 14 0
BBX 14 14 0 -2
BITMAP
0300
0300
FFFC
1B60
1B60
1D70
3758
6798
0780
0D40
3B70
E31C
0300
0300
ENDCHAR
STARTCHAR 4F88
ENCODING 20360
SWIDTH 840 0
DWIDTH 14 0
BBX 14 14 0 -2
BITMAP
1980
19F8
1B18
36B0
34E0
70C0
D3A0
36FC
318C
3758
3070
3060
31C0
3700
ENDCHAR
STARTCHAR 4F8B
ENCODING 20363
SWIDTH 840 0
DWIDTH 14 0
BBX 14 14 0 -2
BITMAP
1818
1FE8
1A68
3668
37A8
75A8
D5A8
3AA8
33A8
3368
3368
3618
3418
3838
ENDCHAR
STARTCHAR 4F8D
ENCODING 20365
SWIDTH 840 0
DWIDTH 14 0
BBX 14 14 0 -2
BITMAP
18C0
18C0
1BF8
30C0
30C0
77FC
D030
3030
37FC
3630
3330
3330
3030
3070
ENDCHAR
STARTCHAR 4F8F
ENCODING 20367
SWIDTH 840 0
DWIDTH 14 0
BBX 14 14 0 -2
BITMAP
18C0
1B40
1B40
37F8
36C0
74C0
DFFC
31E0
31E0
3350
3350
36D8
34CC
30C0
ENDCHAR
STARTCHAR 4F91
ENCODING 20369
SWIDTH 840 0
DWIDTH 14 0
BBX 14 14 0 -2
BITMAP
1980
1980
1FFC
3180
3300
73F8
D718
35F8
3B18
33F8
3318
3318
3318
3338
ENDCHAR
STARTCHAR 4F96
ENCODING 20374
SWIDTH 840 0
DWIDTH 14 0
BBX 14 14 0 -2
BITMAP
0300
0300
0680
0CC0
3FF0
E01C
3FF0
36B0
36B0
3FF0
36B0
36B0
36B0
36B0
ENDCHAR
STARTCHAR 4F98
ENCODING 20376
SWIDTH 840 0
DWIDTH 14 0
BBX 14 14 0 -2
BITMAP
18C0
18C0
1FFC
340C
343C
70E0
D7C0
30C0
30FC
37C0
30C0
30CC
30CC
307C
ENDCHAR
STARTCHAR 4F9B
ENCODING 20379
SWIDTH 840 0
DWIDTH 14 0
BBX 14 14 0 -2
BITMAP
1B60
1B60
1B60
3360
37F8
7360
D360
3360
3FFC
3000
3360
3330
3618
3418
ENDCHAR
STARTCHAR 4F9D
ENCODING 20381
SWIDTH 840 0
DWIDTH 14 0
BBX 14 14 0 -2
BITMAP
18C0
18C0
18C0
37FC
3180
71D8
D358
3750
3560
3360
3330
3350
3398
360C
ENDCHAR
STARTCHAR 4FA0
ENCODING 20384
SWIDTH 840 0
DWIDTH 14 0
BBX 14 14 0 -2
BITMAP
18C0
18C0
18C0
37FC
36D8
7358
D350
3FFC
30C0
31A0
31A0
3330
3618
340C
ENDCHAR
STARTCHAR 4FA1
ENCODING 20385
SWIDTH 840 0
DWIDTH 14 0
BBX 14 14 0 -2
BITMAP
1800
1FFC
19A0
31A0
31A0
77F8
D6A8
36A8
36A8
36A8
36A8
36A8
37F8
3000
ENDCHAR
STARTCHAR 4FAB
ENCODING 20395
SWIDTH 840 0
DWIDTH 14 0
BBX 14 14 0 -2
BITMAP
18C0
18C0
1FFC
3600
3600
73F8
D180
37FC
3330
3330
37E0
3070
31D8
370C
ENDCHAR
STARTCHAR 4FAD
ENCODING 20397
SWIDTH 840 0
DWIDTH 14 0
BBX 14 14 0 -2
BITMAP
1800
1BF8
1A18
3618
37F8
7660
D660
36B0
34D0
34D8
380C
3380
30E0
3030
ENDCHAR
STARTCHAR 4FAE
ENCODING 20398
SWIDTH 840 0
DWIDTH 14 0
BBX 14 14 0 -2
BITMAP
1B00
1B00
1BFC
3600
37F0
7550
D350
3FFC
36D0
36D0
37FC
3430
3030
30E0
ENDCHAR
STARTCHAR 4FAF
ENCODING 20399
SWIDTH 840 0
DWIDTH 14 0
BBX 14 14 0 -2
BITMAP
1BF0
1830
1830
37FC
3300
7300
D3F8
36C0
34C0
37FC
30E0
31B0
3718
3C0C
ENDCHAR
STARTCHAR 4FB5
ENCODING 20405
SWIDTH 840 0
DWIDTH 14 0
BBX 14 14 0 -2
BITMAP
1800
1BF0
1830
37F0
3030
77F0
D000
3FFC
380C
3BF4
3360
31C0
3770
3C1C
ENDCHAR
STARTCHAR 4FB6
ENCODING 20406
SWIDTH 840 0
DWIDTH 14 0
BBX 14 14 0 -2
BITMAP
1800
1BF0
1A30
3630
3630
77F0
D180
3300
37F8
3418
3418
3418
37F8
3000
ENDCHAR
STARTCHAR 4FBF
ENCODING 20415
SWIDTH 840 0
DWIDTH 14 0
BBX 14 14 0 -2
BITMAP
1800
1FFC
18C0
37F8
36D8
77F8
D6D8
37F8
36D8
3340
3180
31C0
3370
361C
ENDCHAR
STARTCHAR 4FC2
ENCODING 20418
SWIDTH 840 0
DWIDTH 14 0
BBX 14 14 0 -2
BITMAP
1838
19E0
1FB0
31B0
3760
71D0
D1B8
33EC
3740
30D0
36D8
36CC
34CC
30C0
ENDCHAR
STARTCHAR 4FC3
ENCODING 20419
SWIDTH 840 0
DWIDTH 14 0
BBX 14 14 0 -2
BITMAP
1800
1BF8
1A18
3618
37F8
70C0
D0C0
36C0
36F8
36C0
36C0
3740
35C0
387C
ENDCHAR
STARTCHAR 4FC4
ENCODING 20420
SWIDTH 840 0
DWIDTH 14 0
BBX 14 14 0 -2
BITMAP
18E0
1BA8
1F6C
336C
3360
7FFC
D360
33A8
3368
3730
3D30
3374
375C
330C
ENDCHAR
STARTCHAR 4FCA
ENCODING 20426
SWIDTH 840 0
DWIDTH 14 0
BBX 14 14 0 -2
BITMAP
1980
19B0
1B38
37EC
3360
736C
D6BC
35F0
3330
3760
35C0
31C0
3770
3C1C
ENDCHAR
STARTCHAR 4FCE
ENCODING 20430
SWIDTH 840 0
DWIDTH 14 0
BBX 14 14 0 -2
BITMAP
3000
33F0
3330
3B30
6D30
6DF0
D330
3330
3BF0
3530
6D30
6330
DFFC
0000
ENDCHAR
STARTCHAR 4FD0
ENCODING 20432
SWIDTH 840 0
DWIDTH 14 0
BBX 14 14 0 -2
BITMAP
18D8
1BA8
1F68
3368
3368
7FE8
D368
3768
37A8
3568
3568
3B18
3318
3338
ENDCHAR
STARTCHAR 4FD1
ENCODING 20433
SWIDTH 840 0
DWIDTH 14 0
BBX 14 14 0 -2
BITMAP
1800
1BF8
19B0
30E0
37F8
76D8
D6D8
37F8
36D8
36D8
37F8
36D8
36D8
36D8
ENDCHAR
STARTCHAR 4FD4
ENCODING 20436
SWIDTH 840 0
DWIDTH 14 0
BBX 14 14 0 -2
BITMAP
1800
1BF8
1A18
37F8
3618
77F8
D618
37F8
36A8
31A0
3360
336C
366C
343C
ENDCHAR
STARTCHAR 4FD7
ENCODING 20439
SWIDTH 840 0
DWIDTH 14 0
BBX 14 14 0 -2
BITMAP
1B60
1B30
1A18
3598
3180
7340
D360
3630
37F8
3A34
3630
3630
37F0
3000
ENDCHAR
STARTCHAR 4FD8
ENCODING 20440
SWIDTH 840 0
DWIDTH 14 0
BBX 14 14 0 -2
BITMAP
1818
1870
1BD0
36D8
36CC
740C
D7F8
3070
30C0
37FC
30C0
30C0
30C0
31C0
ENDCHAR
STARTCHAR 4FDA
ENCODING 20442
SWIDTH 840 0
DWIDTH 14 0
BBX 14 14 0 -2
BITMAP
1800
1BF8
1AD8
36D8
37F8
76D8
D6D8
37F8
30C0
37F8
30C0
30C0
37FC
3000
ENDCHAR
STARTCHAR 4FDB
ENCODING 20443
SWIDTH 840 0
DWIDTH 14 0
BBX 14 14 0 -2
BITMAP
1980
19F0
1B60
36C0
37F8
76D8
D6D8
37F8
30E0
31A0
31A0
336C
366C
343C
ENDCHAR
STARTCHAR 4FDD
ENCODING 20445
SWIDTH 840 0
DWIDTH 14 0
BBX 14 14 0 -2
BITMAP
1800
1BF8
1A18
3618
37F8
70C0
D0C0
37FC
31E0
3350
36D8
34CC
30C0
30C0
ENDCHAR
STARTCHAR 4FDF
ENCODING 20447
SWIDTH 840 0
DWIDTH 14 0
BBX 14 14 0 -2
BITMAP
1980
19A0
19B0
3378
37D8
7300
D3F8
36C0
34C0
3FFC
30C0
31A0
3330
361C
ENDCHAR
STARTCHAR 4FE1
ENCODING 20449
SWIDTH 840 0
DWIDTH 14 0
BBX 14 14 0 -2
BITMAP
1800
1BF0
1800
37FC
3000
77F8
D000
37F8
3000
37F8
3618
3618
37F8
3000
ENDCHAR
STARTCHAR 4FE3
ENCODING 20451
SWIDTH 840 0
DWIDTH 14 0
BBX 14 14 0 -2
BITMAP
1800
1BF8
1A18
3618
37F8
7000
D7F8
30C0
30C0
37FC
30E0
31B0
3718
3C0C
ENDCHAR
STARTCHAR 4FE4
ENCODING 20452
SWIDTH 840 0
DWIDTH 14 0
BBX 14 14 0 -2
BITMAP
1B30
19B0
19A0
37F8
30D8
77F8
D6C0
37FC
36CC
31CC
334C
36D8
34C0
30C0
ENDCHAR
STARTCHAR 4FE5
ENCODING 20453
SWIDTH 840 0
DWIDTH 14 0
BBX 14 14 0 -2
BITMAP
18C0
18C0
1FFC
30C0
37F8
76D8
D7F8
36D8
37F8
30C0
37FC
30C0
30C0
30C0
ENDCHAR
STARTCHAR 4FEE
ENCODING 20462
SWIDTH 840 0
DWIDTH 14 0
BBX 14 14 0 -2
BITMAP
1980
1980
1DFC
3530
36A0
75E0
D77C
34C0
35B0
34E0
3598
3430
30E0
3780
ENDCHAR
STARTCHAR 4FEF
ENCODING 20463
SWIDTH 840 0
DWIDTH 14 0
BBX 14 14 0 -2
BITMAP
18C0
18C0
1FFC
3598
3598
7598
D5FC
3558
3768
3568
3518
3B18
3B18
3338
ENDCHAR
STARTCHAR 4FF3
ENCODING 20467
SWIDTH 840 0
DWIDTH 14 0
BBX 14 14 0 -2
BITMAP
19A0
19A0
19A0
37BC
31A0
71A0
D7BC
31A0
31A0
37BC
31A0
3360
3660
3460
ENDCHAR
STARTCHAR 4FF5
ENCODING 20469
SWIDTH 840 0
DWIDTH 14 0
BBX 14 14 0 -2
BITMAP
18C0
18C0
1FFC
30C0
37F8
70C0
D7FC
31C0
3358
3770
3560
3350
3398
360C
ENDCHAR
STARTCHAR 4FF6
ENCODING 20470
SWIDTH 840 0
DWIDTH 14 0
BBX 14 14 0 -2
BITMAP
1A00
1A00
1AF8
3798
36D8
76D8
DFD8
3668
3770
36B0
36B0
3A68
36D8
368C
ENDCHAR
STARTCHAR 4FF8
ENCODING 20472
SWIDTH 840 0
DWIDTH 14 0
BBX 14 14 0 -2
BITMAP
18C0
18C0
1BF8
30C0
37F8
71A0
D7FC
3350
37F8
34CC
37F8
30C0
30C0
30C0
ENDCHAR
STARTCHAR 4FFA
ENCODING 20474
SWIDTH 840 0
DWIDTH 14 0
BBX 14 14 0 -2
BITMAP
1980
1980
1FF8
3340
36A0
75B8
DFF4
35B0
37F0
35B0
37F0
318C
318C
30FC
ENDCHAR
STARTCHAR 4FFE
ENCODING 20478
SWIDTH 840 0
DWIDTH 14 0
BBX 14 14 0 -2
BITMAP
18C0
1980
1BF8
36D8
37F8
76D8
D7F8
30C0
31A0
3360
37FC
3060
3060
3060
ENDCHAR
STARTCHAR 5005
ENCODING 20485
SWIDTH 840 0
DWIDTH 14 0
BBX 14 14 0 -2
BITMAP
18C0
18C0
1FFC
3330
3330
7370
D6D8
34D8
30C0
37FC
30C0
30C0
30C0
30C0
ENDCHAR
STARTCHAR 5006
ENCODING 20486
SWIDTH 840 0
DWIDTH 14 0
BBX 14 14 0 -2
BITMAP
1800
1FFC
18C0
30C0
37FC
74CC
D774
3554
3554
36EC
35DC
34CC
34CC
34DC
ENDCHAR
STARTCHAR 5009
ENCODING 20489
SWIDTH 840 0
DWIDTH 14 0
BBX 14 14 0 -2
BITMAP
0300
0680
0CC0
3FF0
E01C
1FE0
1860
1FE0
1860
1FE0
3000
3FF0
6830
1FF0
ENDCHAR
STARTCHAR 500B
ENCODING 20491
SWIDTH 840 0
DWIDTH 14 0
BBX 14 14 0 -2
BITMAP
1800
1FF8
1D98
3598
37F8
7598
D5E8
3568
3568
35E8
3418
3418
37F8
3000
ENDCHAR
STARTCHAR 500D
ENCODING 20493
SWIDTH 840 0
DWIDTH 14 0
BBX 14 14 0 -2
BITMAP
18C0
18C0
1FFC
3630
3330
7360
DFFC
3000
37F8
3618
3618
3618
37F8
3000
ENDCHAR
STARTCHAR 500F
ENCODING 20495
SWIDTH 840 0
DWIDTH 14 0
BBX 14 14 0 -2
BITMAP
1980
1980
19F8
35B0
36E0
75E0
D73C
34D0
34D8
37FC
34C0
35A0
3330
361C
ENDCHAR
STARTCHAR 5011
ENCODING 20497
SWIDTH 840 0
DWIDTH 14 0
BBX 14 14 0 -2
BITMAP
1800
1FBC
1DAC
37BC
35AC
77BC
D40C
340C
340C
340C
340C
340C
340C
341C
ENDCHAR
STARTCHAR 5012
ENCODING 20498
SWIDTH 840 0
DWIDTH 14 0
BBX 14 14 0 -2
BITMAP
1818
1FE8
1B68
33A8
36E8
7FE8
D368
3368
37E8
3368
3368
33D8
3E18
3038
ENDCHAR
STARTCHAR 5014
ENCODING 20500
SWIDTH 840 0
DWIDTH 14 0
BBX 14 14 0 -2
BITMAP
1800
1BFC
1A0C
37FC
3660
76A8
D6A8
36A8
36F8
376C
356C
356C
3BFC
330C
ENDCHAR
STARTCHAR 5016
ENCODING 20502
SWIDTH 840 0
DWIDTH 14 0
BBX 14 14 0 -2
BITMAP
18C0
18C0
1BF8
30C0
30C0
77FC
D330
3360
37FC
30C0
30C0
37F8
30C0
30C0
ENDCHAR
STARTCHAR 5019
ENCODING 20505
SWIDTH 840 0
DWIDTH 14 0
BBX 14 14 0 -2
BITMAP
1BF0
1830
1C30
37FC
7580
D5F8
3560
3660
37FC
34E0
34D0
35B0
3318
360C
ENDCHAR
STARTCHAR 501A
ENCODING 20506
SWIDTH 840 0
DWIDTH 14 0
BBX 14 14 0 -2
BITMAP
18C0
18C0
1FFC
31A0
3330
7630
DFFC
3018
37D8
36D8
36D8
37D8
3618
3038
ENDCHAR
STARTCHAR 501F
ENCODING 20511
SWIDTH 840 0
DWIDTH 14 0
BBX 14 14 0 -2
BITMAP
1B60
1B60
1B60
37F8
3360
7360
DFFC
3000
37F0
3630
37F0
3630
3630
37F0
ENDCHAR
STARTCHAR 5021
ENCODING 20513
SWIDTH 840 0
DWIDTH 14 0
BBX 14 14 0 -2
BITMAP
1800
1BF0
1A30
37F0
3630
77F0
D000
37F8
3418
37F8
3418
3418
37F8
3000
ENDCHAR
STARTCHAR 5023
ENCODING 20515
SWIDTH 840 0
DWIDTH 14 0
BBX 14 14 0 -2
BITMAP
1A60
1A60
1A60
3FA0
36FC
76D8
D7D8
36A8
36A8
36B0
35B0
35B0
39D8
370C
ENDCHAR
STARTCHAR 5024
ENCODING 20516
SWIDTH 840 0
DWIDTH 14 0
BBX 14 14 0 -2
BITMAP
18C0
18C0
1FFC
30C0
35F0
7530
D5F0
3530
35F0
3530
35F0
3400
37FC
3000
ENDCHAR
STARTCHAR 5025
ENCODING 20517
SWIDTH 840 0
DWIDTH 14 0
BBX 14 14 0 -2
BITMAP
18C0
18C0
1FFC
35AC
35A0
71AC
D33C
3600
37F8
30C0
30C0
30C0
37FC
3000
ENDCHAR
STARTCHAR 5026
ENCODING 20518
SWIDTH 840 0
DWIDTH 14 0
BBX 14 14 0 -2
BITMAP
18C0
1AD8
1B50
37F8
30C0
77FC
D1A0
33F0
3668
35EC
3360
3318
3318
31F8
ENDCHAR
STARTCHAR 5028
ENCODING 20520
SWIDTH 840 0
DWIDTH 14 0
BBX 14 14 0 -2
BITMAP
1800
1BF8
1A18
3618
37F8
76C0
D6C0
37FC
36C0
35F8
3518
3B18
33F8
3000
ENDCHAR
STARTCHAR 5029
ENCODING 20521
SWIDTH 840 0
DWIDTH 14 0
BBX 14 14 0 -2
BITMAP
18C0
1BF8
18C0
37F8
30C0
77FC
D000
37F8
36D8
36D8
37F8
3618
3618
3638
ENDCHAR
STARTCHAR 502A
ENCODING 20522
SWIDTH 840 0
DWIDTH 14 0
BBX 14 14 0 -2
BITMAP
1980
1B78
1A18
3618
37B8
7618
D618
37F8
31A0
31A0
3360
336C
366C
343C
ENDCHAR
STARTCHAR 502B
ENCODING 20523
SWIDTH 840 0
DWIDTH 14 0
BBX 14 14 0 -2
BITMAP
18C0
18C0
19A0
3330
37F8
740C
DBF8
36A8
36A8
37F8
36A8
36A8
36A8
3638
ENDCHAR
STARTCHAR 502C
ENCODING 20524
SWIDTH 840 0
DWIDTH 14 0
BBX 14 14 0 -2
BITMAP
18C0
18C0
18FC
30C0
37F8
7618
D7F8
3618
37F8
30C0
37FC
30C0
30C0
30C0
ENDCHAR
STARTCHAR 502D
ENCODING 20525
SWIDTH 840 0
DWIDTH 14 0
BBX 14 14 0 -2
BITMAP
1838
1BE0
18C0
37FC
31E0
7350
D6D8
30C0
37FC
31B0
33D0
3060
31D0
3718
ENDCHAR
STARTCHAR 5036
ENCODING 20534
SWIDTH 840 0
DWIDTH 14 0
BBX 14 14 0 -2
BITMAP
1800
1BF0
1A30
3630
37F0
7630
D7F0
3630
37F0
3000
3FFC
3360
3630
3C18
ENDCHAR
STARTCHAR 5039
ENCODING 20537
SWIDTH 840 0
DWIDTH 14 0
BBX 14 14 0 -2
BITMAP
1980
1980
1B40
3660
37F0
7998
D7F0
35B0
37F0
35B0
3340
3360
3630
3418
ENDCHAR
STARTCHAR 5043
ENCODING 20547
SWIDTH 840 0
DWIDTH 14 0
BBX 14 14 0 -2
BITMAP
1800
1FFC
1DF8
3518
35F8
7518
D5F8
34C0
37FC
35B0
34E0
35D8
37FC
3400
ENDCHAR
STARTCHAR 5047
ENCODING 20551
SWIDTH 840 0
DWIDTH 14 0
BBX 14 14 0 -2
BITMAP
1800
1FB8
1D98
3598
37B8
7598
D400
3778
34D8
3468
3770
3430
3468
35CC
ENDCHAR
STARTCHAR 5048
ENCODING 20552
SWIDTH 840 0
DWIDTH 14 0
BBX 14 14 0 -2
BITMAP
1800
1BF0
1A30
37F0
3630
77F0
D600
37F8
3598
3DD8
3568
3618
37E8
3070
ENDCHAR
STARTCHAR 5049
ENCODING 20553
SWIDTH 840 0
DWIDTH 14 0
BBX 14 14 0 -2
BITMAP
18C0
1BF0
19B0
37FC
3000
77F0
D630
37F0
3060
37F8
3660
3FFC
3060
3060
ENDCHAR
STARTCHAR 504F
ENCODING 20559
SWIDTH 840 0
DWIDTH 14 0
BBX 14 14 0 -2
BITMAP
1800
1FF8
1800
37F0
3630
77F0
D600
37F8
36A8
36A8
3BF8
36A8
36A8
3638
ENDCHAR
STARTCHAR 5050
ENCODING 20560
SWIDTH 840 0
DWIDTH 14 0
BBX 14 14 0 -2
BITMAP
18C0
1FFC
19B0
30E0
33B0
77FC
D630
36E0
3798
3670
36CC
3418
3470
3BC0
ENDCHAR
STARTCHAR 5055
ENCODING 20565
SWIDTH 840 0
DWIDTH 14 0
BBX 14 14 0 -2
BITMAP
1A60
1A6C
1BE8
3670
3660
77AC
DEDC
3180
37F8
3618
37F8
3618
37F8
3000
ENDCHAR
STARTCHAR 5056
ENCODING 20566
SWIDTH 840 0
DWIDTH 14 0
BBX 14 14 0 -2
BITMAP
18C0
18C0
1BF8
30D8
30D0
77FC
D0E0
31B0
37F8
3D18
33F8
3318
33F8
3000
ENDCHAR
STARTCHAR 505A
ENCODING 20570
SWIDTH 840 0
DWIDTH 14 0
BBX 14 14 0 -2
BITMAP
1860
1A60
1A60
3660
3FFC
76D8
D6D8
37A8
35B0
35B0
35B0
37A8
30D8
318C
ENDCHAR
STARTCHAR 505C
ENCODING 20572
SWIDTH 840 0
DWIDTH 14 0
BBX 14 14 0 -2
BITMAP
18C0
1FFC
1800
33F0
3330
73F0
D000
37FC
340C
37F8
30C0
30C0
30C0
31C0
ENDCHAR
STARTCHAR 5065
ENCODING 20581
SWIDTH 840 0
DWIDTH 14 0
BBX 14 14 0 -2
BITMAP
1860
19F8
1E68
37FC
3668
75F8
DF60
33F8
3560
35FC
3660
3760
35C0
387C
ENDCHAR
STARTCHAR 506C
ENCODING 20588
SWIDTH 840 0
DWIDTH 14 0
BBX 14 14 0 -2
BITMAP
1B00
1B00
1BF8
36A8
35A8
7B68
D6E8
35B0
3180
3350
3558
350C
3B34
31F0
ENDCHAR
STARTCHAR 5072
ENCODING 20594
SWIDTH 840 0
DWIDTH 14 0
BBX 14 14 0 -2
BITMAP
1800
1BF8
1AD8
36D8
37F8
76D8
D6D8
37F8
30C0
3360
3568
350C
3B34
31F0
ENDCHAR
STARTCHAR 5074
ENCODING 20596
SWIDTH 840 0
DWIDTH 14 0
BBX 14 14 0 -2
BITMAP
1818
1FA8
1DA8
35A8
37A8
75A8
D5A8
37A8
35A8
35A8
37A8
3718
3598
3838
ENDCHAR
STARTCHAR 5075
ENCODING 20597
SWIDTH 840 0
DWIDTH 14 0
BBX 14 14 0 -2
BITMAP
1980
1980
19F8
3180
37F0
7630
D7F0
3630
37F0
3630
37F0
3360
3630
3818
ENDCHAR
STARTCHAR 5076
ENCODING 20598
SWIDTH 840 0
DWIDTH 14 0
BBX 14 14 0 -2
BITMAP
1800
1BF0
1AB0
37F0
36B0
77F0
D180
37F8
35A8
35F8
3738
3418
3418
3438
ENDCHAR
STARTCHAR 5078
ENCODING 20600
SWIDTH 840 0
DWIDTH 14 0
BBX 14 14 0 -2
BITMAP
1BC0
18C0
19A0
3330
37F8
780C
D7A8
35A8
36A8
35D0
36D0
35A8
35A8
35A8
ENDCHAR
STARTCHAR 507D
ENCODING 20605
SWIDTH 840 0
DWIDTH 14 0
BBX 14 14 0 -2
BITMAP
1AC0
1B40
1B40
37F0
31B0
71B0
D3F8
3318
37FC
3554
3DAC
368C
360C
3038
ENDCHAR
STARTCHAR 5080
ENCODING 20608
SWIDTH 840 0
DWIDTH 14 0
BBX 14 14 0 -2
BITMAP
18C0
1980
1BF8
36D8
37F8
76D8
D7F8
36D8
31D0
31D0
3368
337C
36CC
347C
ENDCHAR
STARTCHAR 5085
ENCODING 20613
SWIDTH 840 0
DWIDTH 14 0
BBX 14 14 0 -2
BITMAP
18D0
1FFC
18C0
37F8
36D8
77F8
D6D8
37F8
36D8
3030
3FFC
3330
31B0
3070
ENDCHAR
STARTCHAR 508D
ENCODING 20621
SWIDTH 840 0
DWIDTH 14 0
BBX 14 14 0 -2
BITMAP
18C0
18C0
1FFC
3330
31A0
77FC
D4CC
3FFC
30C0
31F8
3198
3318
3618
3870
ENDCHAR
STARTCHAR 5091
ENCODING 20625
SWIDTH 840 0
DWIDTH 14 0
BBX 14 14 0 -2
BITMAP
1B18
1B18
1BFC
36A8
35A8
737C
D6D8
34D8
3FFC
31E0
3350
36D8
34CC
30C0
ENDCHAR
STARTCHAR 5098
ENCODING 20632
SWIDTH 840 0
DWIDTH 14 0
BBX 14 14 0 -2
BITMAP
0300
0680
0D40
3B70
EB6C
1B60
3550
6BA8
1B60
3550
6798
FFFC
0300
0300
ENDCHAR
STARTCHAR 5099
ENCODING 20633
SWIDTH 840 0
DWIDTH 14 0
BBX 14 14 0 -2
BITMAP
1B60
1B60
1FF8
3360
37FC
7400
D7F8
36D8
37F8
36D8
37F8
3AD8
36D8
3638
ENDCHAR
STARTCHAR 509A
ENCODING 20634
SWIDTH 840 0
DWIDTH 14 0
BBX 14 14 0 -2
BITMAP
1B60
1B60
1B60
3FFC
3558
75D8
D5A8
3B68
3370
3330
36B0
36A8
34D8
398C
ENDCHAR
STARTCHAR 50AC
ENCODING 20652
SWIDTH 840 0
DWIDTH 14 0
BBX 14 14 0 -2
BITMAP
18C0
1AD8
1AD8
37F8
36B8
7360
D7FC
3660
3BF8
3660
37F8
3660
3660
37FC
ENDCHAR
STARTCHAR 50AD
ENCODING 20653
SWIDTH 840 0
DWIDTH 14 0
BBX 14 14 0 -2
BITMAP
30C0
37FC
34C0
6FF8
6CD8
EFFC
6CD8
6FF8
6CC0
6FF8
6AD8
6BF8
76D8
66D8
ENDCHAR
STARTCHAR 50B2
ENCODING 20658
SWIDTH 840 0
DWIDTH 14 0
BBX 14 14 0 -2
BITMAP
1A60
1A60
1FA0
36FC
3FD8
76D8
D6A8
3FA8
3670
37B0
36B0
35A8
35D8
3B8C
ENDCHAR
STARTCHAR 50B3
ENCODING 20659
SWIDTH 840 0
DWIDTH 14 0
BBX 14 14 0 -2
BITMAP
18C0
1FFC
18C0
37F8
36D8
77F8
D7F8
30D8
37FC
3030
3FFC
3630
3330
3070
ENDCHAR
STARTCHAR 50B4
ENCODING 20660
SWIDTH 840 0
DWIDTH 14 0
BBX 14 14 0 -2
BITMAP
1800
1FFC
1C00
35F0
35B0
75F0
D400
35F8
3568
3568
35F8
3400
37FC
3000
ENDCHAR
STARTCHAR 50B5
ENCODING 20661
SWIDTH 840 0
DWIDTH 14 0
BBX 14 14 0 -2
BITMAP
18C0
1FF8
18C0
37F8
30C0
7FFC
D630
37F0
3630
37F0
3630
37F0
3730
3C18
ENDCHAR
STARTCHAR 50B7
ENCODING 20663
SWIDTH 840 0
DWIDTH 14 0
BBX 14 14 0 -2
BITMAP
1B00
1BFC
1B30
35F0
3B30
73F0
D000
3FFC
3600
37F8
35A8
3B68
36D8
31B0
ENDCHAR
STARTCHAR 50BE
ENCODING 20670
SWIDTH 840 0
DWIDTH 14 0
BBX 14 14 0 -2
BITMAP
1800
1BFC
1830
3460
3578
7558
D6F8
34D8
34F8
3558
3578
3770
30D8
338C
ENDCHAR
STARTCHAR 50C2
ENCODING 20674
SWIDTH 840 0
DWIDTH 14 0
BBX 14 14 0 -2
BITMAP
18C0
1BF8
1AD8
37FC
36D8
77F8
D7F8
36D8
37F8
3180
3FFC
33B0
30F0
3798
ENDCHAR
STARTCHAR 50C5
ENCODING 20677
SWIDTH 840 0
DWIDTH 14 0
BBX 14 14 0 -2
BITMAP
1B30
1B30
1FFC
3330
37F8
76D8
D7F8
30C0
37F8
30C0
37F8
30C0
37FC
3000
ENDCHAR
STARTCHAR 50C9
ENCODING 20681
SWIDTH 840 0
DWIDTH 14 0
BBX 14 14 0 -2
BITMAP
0300
0680
0CC0
3FF0
E01C
3EF0
36B0
36B0
3EF0
1860
1C60
36D0
6698
C318
ENDCHAR
STARTCHAR 50CA
ENCODING 20682
SWIDTH 840 0
DWIDTH 14 0
BBX 14 14 0 -2
BITMAP
1800
1FFC
1B60
37F8
3568
77F8
D180
3FFC
3360
37F8
3A6C
37E0
3618
33F8
ENDCHAR
STARTCHAR 50CD
ENCODING 20685
SWIDTH 840 0
DWIDTH 14 0
BBX 14 14 0 -2
BITMAP
33A0
3E60
3660
7FF8
6FA8
EAA8
6FA8
6AA8
6FA8
6668
6FA8
6668
67D8
6DB8
ENDCHAR
STARTCHAR 50CF
ENCODING 20687
SWIDTH 840 0
DWIDTH 14 0
BBX 14 14 0 -2
BITMAP
1980
1BF0
1E60
37F8
36D8
77F8
D0C0
3398
36D0
3360
36B0
3368
366C
31C0
ENDCHAR
STARTCHAR 50D1
ENCODING 20689
SWIDTH 840 0
DWIDTH 14 0
BBX 14 14 0 -2
BITMAP
1870
1BC0
1980
3FFC
3360
77F0
D568
3BEC
37F8
3418
35E8
3568
35E8
3438
ENDCHAR
STARTCHAR 50D5
ENCODING 20693
SWIDTH 840 0
DWIDTH 14 0
BBX 14 14 0 -2
BITMAP
19A0
1AA8
1BB0
37FC
3330
71A0
D7FC
30C0
37F8
30C0
37FC
31A0
3730
3C1C
ENDCHAR
STARTCHAR 50D6
ENCODING 20694
SWIDTH 840 0
DWIDTH 14 0
BBX 14 14 0 -2
BITMAP
18C0
1FFC
18C0
37F8
3000
77F8
D618
37F8
3330
3FFC
3000
37F8
3618
37F8
ENDCHAR
STARTCHAR 50DA
ENCODING 20698
SWIDTH 840 0
DWIDTH 14 0
BBX 14 14 0 -2
BITMAP
18C0
18C0
1FFC
35AC
3738
77F8
D534
33F0
3330
33F0
36D8
36CC
34CC
31C0
ENDCHAR
STARTCHAR 50DE
ENCODING 20702
SWIDTH 840 0
DWIDTH 14 0
BBX 14 14 0 -2
BITMAP
1838
1FF0
1AD8
34CC
37F0
7630
D7F8
3618
37FC
36D4
356C
35AC
3A8C
3638
ENDCHAR
STARTCHAR 50E3
ENCODING 20707
SWIDTH 840 0
DWIDTH 14 0
BBX 14 14 0 -2
BITMAP
1B60
1B60
1FF8
3360
3FFC
7770
D6B0
35D8
3BF4
3630
37F0
3630
37F0
3000
ENDCHAR
STARTCHAR 50E5
ENCODING 20709
SWIDTH 840 0
DWIDTH 14 0
BBX 14 14 0 -2
BITMAP
18C0
1BF8
18C0
37FC
3330
77BC
D330
33BC
3600
37FC
31A0
31A0
336C
363C
ENDCHAR
STARTCHAR 50E7
ENCODING 20711
SWIDTH 840 0
DWIDTH 14 0
BBX 14 14 0 -2
BITMAP
1B30
19A0
1BF8
36D8
37F8
76D8
D7F8
3000
33F0
3330
33F0
3330
33F0
3000
ENDCHAR
STARTCHAR 50ED
ENCODING 20717
SWIDTH 840 0
DWIDTH 14 0
BBX 14 14 0 -2
BITMAP
1B30
1FFC
1D50
3550
37FC
7770
D5B4
3B5C
37F8
3618
37F8
3618
37F8
3618
ENDCHAR
STARTCHAR 50EE
ENCODING 20718
SWIDTH 840 0
DWIDTH 14 0
BBX 14 14 0 -2
BITMAP
18C0
1FF8
1B60
3FFC
3000
77F8
D6D8
37F8
36D8
37F8
30C0
37F8
30C0
37FC
ENDCHAR
STARTCHAR 50F5
ENCODING 20725
SWIDTH 840 0
DWIDTH 14 0
BBX 14 14 0 -2
BITMAP
1800
1FFC
1AD8
37F8
36D8
77F8
D000
37FC
36D8
37F8
36D8
37F8
3000
37FC
ENDCHAR
STARTCHAR 50F9
ENCODING 20729
SWIDTH 840 0
DWIDTH 14 0
BBX 14 14 0 -2
BITMAP
1800
1FFC
1B60
37F8
3568
77F8
D630
37F0
3630
37F0
3630
37F0
3370
3618
ENDCHAR
STARTCHAR 50FB
ENCODING 20731
SWIDTH 840 0
DWIDTH 14 0
BBX 14 14 0 -2
BITMAP
1830
1BB0
1AFC
36A8
36A8
77A8
D6FC
3630
37B0
36FC
3AB0
36B0
37B0
3030
ENDCHAR
STARTCHAR 5100
ENCODING 20736
SWIDTH 840 0
DWIDTH 14 0
BBX 14 14 0 -2
BITMAP
1B30
19A0
1FFC
30C0
37F8
70C0
D7FC
37A8
336C
3FFC
33A8
3730
336C
370C
ENDCHAR
STARTCHAR 5101
ENCODING 20737
SWIDTH 840 0
DWIDTH 14 0
BBX 14 14 0 -2
BITMAP
1B60
1B60
1BFC
36C0
37F8
7AC0
D7F8
36C0
37FC
3000
37BC
35AC
35EC
341C
ENDCHAR
STARTCHAR 5102
ENCODING 20738
SWIDTH 840 0
DWIDTH 14 0
BBX 14 14 0 -2
BITMAP
19A0
1BF8
1AA8
37F8
36A8
77F8
D000
37F8
35E0
37FC
3558
3B70
3BD0
371C
ENDCHAR
STARTCHAR 5104
ENCODING 20740
SWIDTH 840 0
DWIDTH 14 0
BBX 14 14 0 -2
BITMAP
18C0
1BF8
19A0
37FC
3000
73F0
D330
33F0
3330
33F0
3558
356C
3B34
31F0
ENDCHAR
STARTCHAR 5109
ENCODING 20745
SWIDTH 840 0
DWIDTH 14 0
BBX 14 14 0 -2
BITMAP
18C0
18C0
19A0
3330
37FC
7000
D7B8
36A8
36A8
37B8
3330
33B8
36EC
34CC
ENDCHAR
STARTCHAR 5112
ENCODING 20754
SWIDTH 840 0
DWIDTH 14 0
BBX 14 14 0 -2
BITMAP
1800
1FFC
18C0
3FFC
38CC
7B5C
D000
37FC
30C0
37F8
36A8
36A8
36A8
36B8
ENDCHAR
STARTCHAR 5114
ENCODING 20756
SWIDTH 840 0
DWIDTH 14 0
BBX 14 14 0 -2
BITMAP
18C0
1FFC
18C0
37F8
3000
77FC
D7E8
30C0
3FFC
3018
37FC
3558
3768
3038
ENDCHAR
STARTCHAR 5115
ENCODING 20757
SWIDTH 840 0
DWIDTH 14 0
BBX 14 14 0 -2
BITMAP
3180
3FFC
3358
7EB8
6AA8
EAB8
6EE8
7634
67F0
6630
67F0
6630
6C30
6830
ENDCHAR
STARTCHAR 5116
ENCODING 20758
SWIDTH 840 0
DWIDTH 14 0
BBX 14 14 0 -2
BITMAP
1860
1FE0
1D60
37BC
35C0
7780
D578
37C0
3000
37F8
36A8
36A8
3FFC
3000
ENDCHAR
STARTCHAR 5118
ENCODING 20760
SWIDTH 840 0
DWIDTH 14 0
BBX 14 14 0 -2
BITMAP
3180
37F0
31B0
6FFC
6FF0
E180
7FFC
6AD8
736C
6FF0
6D50
6D50
7FFC
6000
ENDCHAR
STARTCHAR 511A
ENCODING 20762
SWIDTH 840 0
DWIDTH 14 0
BBX 14 14 0 -2
BITMAP
1B60
1FFC
1B60
37F8
36A8
77F8
D000
37FC
34CC
39F8
37B0
30E0
31C0
3700
ENDCHAR
STARTCHAR 511F
ENCODING 20767
SWIDTH 840 0
DWIDTH 14 0
BBX 14 14 0 -2
BITMAP
1A98
1B50
1FFC
35EC
356C
77F0
D630
37F0
3630
37F0
3630
37F0
3730
3C18
ENDCHAR
STARTCHAR 5121
ENCODING 20769
SWIDTH 840 0
DWIDTH 14 0
BBX 14 14 0 -2
BITMAP
1800
1BF8
1AD8
37F8
36D8
77F8
D618
3000
37FC
3554
37FC
3554
37FC
34CC
ENDCHAR
STARTCHAR 512A
ENCODING 20778
SWIDTH 840 0
DWIDTH 14 0
BBX 14 14 0 -2
BITMAP
1800
1FFC
18C0
33F0
33F0
7330
DFFC
3B54
36E8
35F4
33A0
36C0
33B0
3E1C
ENDCHAR
STARTCHAR 5132
ENCODING 20786
SWIDTH 840 0
DWIDTH 14 0
BBX 14 14 0 -2
BITMAP
1860
1F60
19F8
3F68
3070
77FC
D060
3778
31D8
3778
3558
3558
3778
3000
ENDCHAR
STARTCHAR 5137
ENCODING 20791
SWIDTH 840 0
DWIDTH 14 0
BBX 14 14 0 -2
BITMAP
1FBC
1800
1FBC
35B4
30C0
77FC
D5A0
37F8
35A8
37F8
35EC
3B78
3BEC
373C
ENDCHAR
STARTCHAR 513A
ENCODING 20794
SWIDTH 840 0
DWIDTH 14 0
BBX 14 14 0 -2
BITMAP
3568
3FA8
3568
377C
66D0
6FD0
EAFC
6FD0
66D0
6FFC
66D0
6FD0
6D7C
69C0
ENDCHAR
STARTCHAR 513B
ENCODING 20795
SWIDTH 840 0
DWIDTH 14 0
BBX 14 14 0 -2
BITMAP
1B50
1FFC
1D38
33F0
37F8
7758
D6E8
37F8
30C0
37F8
30C0
37FC
36A8
35AC
ENDCHAR
STARTCHAR 513C
ENCODING 20796
SWIDTH 840 0
DWIDTH 14 0
BBX 14 14 0 -2
BITMAP
37B8
36A8
37B8
6000
6FFC
EBA0
6B60
6FFC
6AE8
6BA8
6BB0
76D0
77A8
61CC
ENDCHAR
STARTCHAR 513F
ENCODING 20799
SWIDTH 840 0
DWIDTH 14 0
BBX 14 14 0 -2
BITMAP
0CC0
0CC0
0CC0
0CC0
0CC0
0CC0
0CC0
0CC0
0CC0
18C0
18C0
30CC
60CC
C07C
ENDCHAR
STARTCHAR 5140
ENCODING 20800
SWIDTH 840 0
DWIDTH 14 0
BBX 14 14 0 -2
BITMAP
0000
FFFC
0CC0
0CC0
0CC0
0CC0
0CC0
0CC0
0CC0
18C0
18C0
30CC
60CC
C07C
ENDCHAR
STARTCHAR 5141
ENCODING 20801
SWIDTH 840 0
DWIDTH 14 0
BBX 14 14 0 -2
BITMAP
0600
06C0
0C70
18E8
FF8C
0D80
0D80
0D80
1980
1980
3180
318C
618C
C0FC
ENDCHAR
STARTCHAR 5143
ENCODING 20803
SWIDTH 840 0
DWIDTH 14 0
BBX 14 14 0 -2
BITMAP
0000
3FF0
0000
0000
0000
FFFC
0D80
0D80
0D80
1980
198C
318C
618C
C0FC
ENDCHAR
STARTCHAR 5144
ENCODING 20804
SWIDTH 840 0
DWIDTH 14 0
BBX 14 14 0 -2
BITMAP
0000
3FE0
3060
3060
3060
3FE0
0D00
0D00
0D00
1B00
1B18
3318
6318
C1F8
ENDCHAR
STARTCHAR 5145
ENCODING 20805
SWIDTH 840 0
DWIDTH 14 0
BBX 14 14 0 -2
BITMAP
0300
0300
FFFC
06C0
0660
0CF0
7F98
06C0
06C0
0CC0
0CC0
18CC
30CC
E07C
ENDCHAR
STARTCHAR 5146
ENCODING 20806
SWIDTH 840 0
DWIDTH 14 0
BBX 14 14 0 -2
BITMAP
0D80
0D80
0DB0
6DB0
35A0
35C0
0D80
0EA0
1DB0
F9B0
1980
318C
618C
C0FC
ENDCHAR
STARTCHAR 5147
ENCODING 20807
SWIDTH 840 0
DWIDTH 14 0
BBX 14 14 0 -2
BITMAP
0180
61B0
6D30
6730
66B0
6DB0
6830
7FF0
0D80
0D80
1980
198C
318C
E0FC
ENDCHAR
STARTCHAR 5148
ENCODING 20808
SWIDTH 840 0
DWIDTH 14 0
BBX 14 14 0 -2
BITMAP
0300
1B00
1B00
1FF0
3300
6300
FFFC
0680
0680
0D80
0D80
198C
318C
E0FC
ENDCHAR
STARTCHAR 5149
ENCODING 20809
SWIDTH 840 0
DWIDTH 14 0
BBX 14 14 0 -2
BITMAP
0300
0300
3330
1B30
1B60
0300
FFFC
0D80
0D80
0D80
1980
198C
318C
E0FC
ENDCHAR
STARTCHAR 514B
ENCODING 20811
SWIDTH 840 0
DWIDTH 14 0
BBX 14 14 0 -2
BITMAP
0300
0300
FFFC
0300
3FF0
3030
3030
3FF0
0680
0680
0680
0D8C
398C
E0FC
ENDCHAR
STARTCHAR 514C
ENCODING 20812
SWIDTH 840 0
DWIDTH 14 0
BBX 14 14 0 -2
BITMAP
03C0
0CC0
1860
3030
EFEC
1860
1860
1860
1FE0
0680
0680
0D8C
198C
70FC
ENDCHAR
STARTCHAR 514D
ENCODING 20813
SWIDTH 840 0
DWIDTH 14 0
BBX 14 14 0 -2
BITMAP
0C00
0FC0
1980
3300
FFF0
3330
3330
3FF0
0680
0680
0D80
198C
318C
E0FC
ENDCHAR
STARTCHAR 514E
ENCODING 20814
SWIDTH 840 0
DWIDTH 14 0
BBX 14 14 0 -2
BITMAP
0070
01C0
7F00
0300
3FF0
3330
3330
3330
3FF0
0740
0D60
1B6C
330C
E1FC
ENDCHAR
STARTCHAR 5150
ENCODING 20816
SWIDTH 840 0
DWIDTH 14 0
BBX 14 14 0 -2
BITMAP
0000
37F0
3630
3630
37F0
3630
3630
37F0
3180
0D80
0D80
198C
318C
E0FC
ENDCHAR
STARTCHAR 5152
ENCODING 20818
SWIDTH 840 0
DWIDTH 14 0
BBX 14 14 0 -2
BITMAP
0600
7DF8
6018
6018
7EF8
6018
6018
7FF8
0D80
0D80
0D80
198C
318C
E0FC
ENDCHAR
STARTCHAR 5154
ENCODING 20820
SWIDTH 840 0
DWIDTH 14 0
BBX 14 14 0 -2
BITMAP
0600
07E0
0CC0
3980
FFF0
3330
3330
3FF0
0700
0740
0D60
1B6C
330C
E1FC
ENDCHAR
STARTCHAR 515A
ENCODING 20826
SWIDTH 840 0
DWIDTH 14 0
BBX 14 14 0 -2
BITMAP
0300
3330
1B60
FFFC
C00C
DFEC
1860
1860
1FE0
0680
0680
0D8C
398C
E0FC
ENDCHAR
STARTCHAR 515C
ENCODING 20828
SWIDTH 840 0
DWIDTH 14 0
BBX 14 14 0 -2
BITMAP
0180
1B00
77F8
6CD8
6FD8
6CD8
77D8
6018
0D80
0D80
0D80
198C
318C
E0FC
ENDCHAR
STARTCHAR 5162
ENCODING 20834
SWIDTH 840 0
DWIDTH 14 0
BBX 14 14 0 -2
BITMAP
1860
1860
FFFC
1860
7EF8
6698
6698
7EF8
34D0
34D0
3550
6EB4
6DB4
C31C
ENDCHAR
STARTCHAR 5165
ENCODING 20837
SWIDTH 840 0
DWIDTH 14 0
BBX 14 14 0 -2
BITMAP
1F00
0300
0300
0300
0300
0300
0780
0680
0CC0
0CC0
1860
3030
6018
C00C
ENDCHAR
STARTCHAR 5168
ENCODING 20840
SWIDTH 840 0
DWIDTH 14 0
BBX 14 14 0 -2
BITMAP
0300
0300
0680
0CC0
3870
E01C
3FF0
0300
0300
1FE0
0300
0300
FFFC
0000
ENDCHAR
STARTCHAR 5169
ENCODING 20841
SWIDTH 840 0
DWIDTH 14 0
BBX 14 14 0 -2
BITMAP
0000
FFFC
0300
0300
7FF8
6318
6D68
6D68
6D68
6B58
77B8
6318
6318
6338
ENDCHAR
STARTCHAR 516A
ENCODING 20842
SWIDTH 840 0
DWIDTH 14 0
BBX 14 14 0 -2
BITMAP
0F00
0680
0CC0
3870
EFEC
0000
7ED8
66D8
7AB0
6F60
7AB0
6EB0
66D8
6ED8
ENDCHAR
STARTCHAR 516B
ENCODING 20843
SWIDTH 840 0
DWIDTH 14 0
BBX 14 14 0 -2
BITMAP
0FC0
00C0
00C0
0CC0
0CC0
0CC0
0CC0
1860
1860
1860
3030
3030
6018
C00C
ENDCHAR
STARTCHAR 516C
ENCODING 20844
SWIDTH 840 0
DWIDTH 14 0
BBX 14 14 0 -2
BITMAP
03C0
0CC0
0C60
1860
1830
3318
630C
C300
06C0
0660
0630
0CF0
7F98
0018
ENDCHAR
STARTCHAR 516D
ENCODING 20845
SWIDTH 840 0
DWIDTH 14 0
BBX 14 14 0 -2
BITMAP
0300
0300
0300
FFFC
0000
0000
0CC0
0C60
1830
1830
3018
6018
C018
0000
ENDCHAR
STARTCHAR 516E
ENCODING 20846
SWIDTH 840 0
DWIDTH 14 0
BBX 14 14 0 -2
BITMAP
03C0
0CC0
1860
3030
EFEC
0C00
0C00
0FE0
1860
1860
0060
00C0
00C0
0380
ENDCHAR
STARTCHAR 5171
ENCODING 20849
SWIDTH 840 0
DWIDTH 14 0
BBX 14 14 0 -2
BITMAP
18C0
18C0
18C0
18C0
FFF8
18C0
18C0
18C0
FFFC
0000
18C0
1860
3030
6030
ENDCHAR
STARTCHAR 5175
ENCODING 20853
SWIDTH 840 0
DWIDTH 14 0
BBX 14 14 0 -2
BITMAP
01E0
1F00
1800
1800
1FF8
18C0
18C0
18C0
18C0
FFFC
0000
0CC0
3870
E018
ENDCHAR
STARTCHAR 5176
ENCODING 20854
SWIDTH 840 0
DWIDTH 14 0
BBX 14 14 0 -2
BITMAP
0CC0
0CC0
7FF8
0CC0
0FC0
0CC0
0FC0
0CC0
0CC0
FFFC
0000
0CC0
3870
E018
ENDCHAR
STARTCHAR 5177
ENCODING 20855
SWIDTH 840 0
DWIDTH 14 0
BBX 14 14 0 -2
BITMAP
0000
1FE0
1860
1860
1FE0
1860
1FE0
1860
1FE0
0000
FFFC
0CE0
3830
E018
ENDCHAR
STARTCHAR 5178
ENCODING 20856
SWIDTH 840 0
DWIDTH 14 0
BBX 14 14 0 -2
BITMAP
0680
0680
0680
3FF0
36B0
36B0
3FF0
36B0
36B0
FFFC
0000
0CC0
3870
E018
ENDCHAR
STARTCHAR 517C
ENCODING 20860
SWIDTH 840 0
DWIDTH 14 0
BBX 14 14 0 -2
BITMAP
1860
0CC0
FFFC
0D80
7FF0
0DB0
FFFC
0DB0
7FF0
0DC0
3DB0
ED9C
0D80
0D80
ENDCHAR
STARTCHAR 5180
ENCODING 20864
SWIDTH 840 0
DWIDTH 14 0
BBX 14 14 0 -2
BITMAP
0CD8
7CF0
0CCC
3FFC
EB60
1FE0
1B60
1FE0
0CC0
7FF8
0CC0
FFFC
1860
7030
ENDCHAR
STARTCHAR 5182
ENCODING 20866
SWIDTH 840 0
DWIDTH 14 0
BBX 14 14 0 -2
BITMAP
0000
7FF8
6018
6018
6018
6018
6018
6018
6018
6018
6018
6018
6018
6038
ENDCHAR
STARTCHAR 5185
ENCODING 20869
SWIDTH 840 0
DWIDTH 14 0
BBX 14 14 0 -2
BITMAP
0300
0300
0300
7FF8
6318
6318
6698
66D8
6C68
6868
6018
6018
6018
6038
ENDCHAR
STARTCHAR 5186
ENCODING 20870
SWIDTH 840 0
DWIDTH 14 0
BBX 14 14 0 -2
BITMAP
0000
7FF8
6318
6318
6318
6318
6318
7FF8
6018
6018
6018
6018
6018
6038
ENDCHAR
STARTCHAR 5189
ENCODING 20873
SWIDTH 840 0
DWIDTH 14 0
BBX 14 14 0 -2
BITMAP
0300
0300
0300
3FF0
3330
3330
3FF0
3330
3330
FFFC
3030
3030
3030
3070
ENDCHAR
STARTCHAR 518A
ENCODING 20874
SWIDTH 840 0
DWIDTH 14 0
BBX 14 14 0 -2
BITMAP
0000
3FF0
36B0
36B0
36B0
36B0
36B0
FFFC
36B0
36B0
36B0
36B0
36B0
3070
ENDCHAR
STARTCHAR 518C
ENCODING 20876
SWIDTH 840 0
DWIDTH 14 0
BBX 14 14 0 -2
BITMAP
0000
3EF8
36D8
36D8
36D8
36D8
FFFC
36D8
36D8
36D8
36D8
6698
6698
CF38
ENDCHAR
STARTCHAR 518D
ENCODING 20877
SWIDTH 840 0
DWIDTH 14 0
BBX 14 14 0 -2
BITMAP
0000
7FF8
0300
3FF0
3330
3330
3FF0
3330
3330
FFFC
3030
3030
3030
3070
ENDCHAR
STARTCHAR 518F
ENCODING 20879
SWIDTH 840 0
DWIDTH 14 0
BBX 14 14 0 -2
BITMAP
0000
7FF8
6D98
6D98
69B8
68F8
7018
6FD8
6CD8
6CD8
6CD8
6FD8
6018
6038
ENDCHAR
STARTCHAR 5190
ENCODING 20880
SWIDTH 840 0
DWIDTH 14 0
BBX 14 14 0 -2
BITMAP
0000
7FF8
6018
7FE8
6018
7FE8
6018
3FF0
3030
3FF0
3030
3FF0
3030
3070
ENDCHAR
STARTCHAR 5191
ENCODING 20881
SWIDTH 840 0
DWIDTH 14 0
BBX 14 14 0 -2
BITMAP
0300
7FF8
6318
7FF8
6318
7FF8
0000
3FF0
3030
37D0
3030
37D0
3030
3070
ENDCHAR
STARTCHAR 5192
ENCODING 20882
SWIDTH 840 0
DWIDTH 14 0
BBX 14 14 0 -2
BITMAP
0000
7FF8
6018
7FF8
6018
7FF8
1FE0
1860
1FE0
1860
1FE0
1860
1FE0
0000
ENDCHAR
STARTCHAR 5193
ENCODING 20883
SWIDTH 840 0
DWIDTH 14 0
BBX 14 14 0 -2
BITMAP
0CC0
7FF8
0CC0
3FF0
0CC0
FFFC
0300
3FF0
3330
3FF0
3330
FFFC
3030
3070
ENDCHAR
STARTCHAR 5195
ENCODING 20885
SWIDTH 840 0
DWIDTH 14 0
BBX 14 14 0 -2
BITMAP
0000
3FF0
3030
3FF0
3030
3FF0
0FC0
3980
FFF0
3330
3FF0
068C
1D8C
F0FC
ENDCHAR
STARTCHAR 5196
ENCODING 20886
SWIDTH 840 0
DWIDTH 14 0
BBX 14 14 0 -2
BITMAP
0000
0000
0000
0000
FFFC
C00C
C00C
0000
0000
0000
0000
0000
0000
0000
ENDCHAR
STARTCHAR 5197
ENCODING 20887
SWIDTH 840 0
DWIDTH 14 0
BBX 14 14 0 -2
BITMAP
0000
FFF8
C018
C018
0F80
0D80
0D80
0D80
0D80
1980
1980
3198
6198
C0F8
ENDCHAR
STARTCHAR 5199
ENCODING 20889
SWIDTH 840 0
DWIDTH 14 0
BBX 14 14 0 -2
BITMAP
0000
FFFC
CC0C
CC0C
0FF0
0C00
0FC0
0CC0
00C0
FFFC
00C0
00C0
0180
0700
ENDCHAR
STARTCHAR 51A0
ENCODING 20896
SWIDTH 840 0
DWIDTH 14 0
BBX 14 14 0 -2
BITMAP
0000
FFFC
C00C
FE34
0030
03FC
FF30
35B0
35B0
3430
3430
6C74
6C0C
C7FC
ENDCHAR
STARTCHAR 51A2
ENCODING 20898
SWIDTH 840 0
DWIDTH 14 0
BBX 14 14 0 -2
BITMAP
0000
FFFC
C00C
DFF8
0600
0ED8
3B58
EB50
1DA0
75A0
0EB0
1D98
718C
0700
ENDCHAR
STARTCHAR 51A4
ENCODING 20900
SWIDTH 840 0
DWIDTH 14 0
BBX 14 14 0 -2
BITMAP
0000
FFFC
C60C
CFCC
3980
FFF0
3330
3330
3FF0
0700
0740
0D6C
3B6C
E1FC
ENDCHAR
STARTCHAR 51A5
ENCODING 20901
SWIDTH 840 0
DWIDTH 14 0
BBX 14 14 0 -2
BITMAP
0000
FFFC
C00C
DFEC
1860
1FE0
1860
1FE0
0300
FFFC
0000
0CC0
3870
E018
ENDCHAR
STARTCHAR 51A6
ENCODING 20902
SWIDTH 840 0
DWIDTH 14 0
BBX 14 14 0 -2
BITMAP
0000
FFFC
C0CC
DEC0
00FC
00C0
FFF8
3598
34D0
3470
34E8
6D9C
6C0C
C7FC
ENDCHAR
STARTCHAR 51A8
ENCODING 20904
SWIDTH 840 0
DWIDTH 14 0
BBX 14 14 0 -2
BITMAP
0000
FFFC
C00C
DFF4
0000
1FE0
1860
1FE0
0000
3FF0
3330
3FF0
3330
3FF0
ENDCHAR
STARTCHAR 51A9
ENCODING 20905
SWIDTH 840 0
DWIDTH 14 0
BBX 14 14 0 -2
BITMAP
0000
FFFC
C60C
DDF4
3030
3EF0
3030
3FF0
0C00
3FF8
EAD8
6D68
6D68
C070
ENDCHAR
STARTCHAR 51AA
ENCODING 20906
SWIDTH 840 0
DWIDTH 14 0
BBX 14 14 0 -2
BITMAP
0000
FFFC
CCCC
FFF8
1FE0
1860
1FE0
1860
FFFC
1B60
3FF0
EB6C
1B60
0300
ENDCHAR
STARTCHAR 51AB
ENCODING 20907
SWIDTH 840 0
DWIDTH 14 0
BBX 14 14 0 -2
BITMAP
0000
0C00
0600
0300
0300
0000
0000
0000
0180
0300
0600
0600
0C00
0C00
ENDCHAR
STARTCHAR 51AC
ENCODING 20908
SWIDTH 840 0
DWIDTH 14 0
BBX 14 14 0 -2
BITMAP
0300
0300
07F0
1C60
76C0
0380
0740
1C70
F71C
0180
0000
0F00
01C0
0060
ENDCHAR
STARTCHAR 51B0
ENCODING 20912
SWIDTH 840 0
DWIDTH 14 0
BBX 14 14 0 -2
BITMAP
00C0
00C0
60C0
30CC
37EC
01E8
01F0
3360
3350
66D0
6CD8
D8CC
C0C0
01C0
ENDCHAR
STARTCHAR 51B1
ENCODING 20913
SWIDTH 840 0
DWIDTH 14 0
BBX 14 14 0 -2
BITMAP
0000
1FFC
6600
3600
37F0
0630
0630
3630
37F0
6630
6030
C030
DFFC
0000
ENDCHAR
STARTCHAR 51B2
ENCODING 20914
SWIDTH 840 0
DWIDTH 14 0
BBX 14 14 0 -2
BITMAP
00C0
00C0
60C0
37F8
36D8
06D8
06D8
36D8
37F8
66D8
60C0
C0C0
C0C0
00C0
ENDCHAR
STARTCHAR 51B3
ENCODING 20915
SWIDTH 840 0
DWIDTH 14 0
BBX 14 14 0 -2
BITMAP
0180
0180
6180
37F0
31B0
01B0
01B0
3FFC
31C0
6360
6360
C630
CC18
180C
ENDCHAR
STARTCHAR 51B4
ENCODING 20916
SWIDTH 840 0
DWIDTH 14 0
BBX 14 14 0 -2
BITMAP
0000
07F8
6330
3330
3330
0330
1FFC
3070
3070
60D0
61B0
C730
DC30
0070
ENDCHAR
STARTCHAR 51B5
ENCODING 20917
SWIDTH 840 0
DWIDTH 14 0
BBX 14 14 0 -2
BITMAP
0000
07F8
6618
3618
3618
0618
07F8
31A0
31A0
6360
6360
C66C
CC6C
183C
ENDCHAR
STARTCHAR 51B6
ENCODING 20918
SWIDTH 840 0
DWIDTH 14 0
BBX 14 14 0 -2
BITMAP
0180
0180
6180
31A0
3330
0378
0FCC
3000
37F8
6618
6618
C618
C7F8
0000
ENDCHAR
STARTCHAR 51B7
ENCODING 20919
SWIDTH 840 0
DWIDTH 14 0
BBX 14 14 0 -2
BITMAP
0180
0180
6340
3360
3630
0DE8
180C
37F8
3198
6198
6198
C1F0
C180
0180
ENDCHAR
STARTCHAR 51BD
ENCODING 20925
SWIDTH 840 0
DWIDTH 14 0
BBX 14 14 0 -2
BITMAP
0018
1FD8
6668
3668
37A8
0DA8
0DA8
3AA8
3768
6368
6668
C618
CC18
1838
ENDCHAR
STARTCHAR 51C4
ENCODING 20932
SWIDTH 840 0
DWIDTH 14 0
BBX 14 14 0 -2
BITMAP
0180
1FFC
C180
67F0
61B0
1FFC
01B0
37F0
3180
6FFC
6360
C7E0
C1D0
1F18
ENDCHAR
STARTCHAR 51C5
ENCODING 20933
SWIDTH 840 0
DWIDTH 14 0
BBX 14 14 0 -2
BITMAP
0000
0FF8
6D98
3598
37F8
0D98
0D98
35E8
3568
6D68
6DE8
CC18
CFF8
0000
ENDCHAR
STARTCHAR 51C6
ENCODING 20934
SWIDTH 840 0
DWIDTH 14 0
BBX 14 14 0 -2
BITMAP
0330
0330
6660
37FC
3660
0E60
1BF8
3660
3660
67F8
6660
C660
C660
07FC
ENDCHAR
STARTCHAR 51C9
ENCODING 20937
SWIDTH 840 0
DWIDTH 14 0
BBX 14 14 0 -2
BITMAP
00C0
00C0
6FFC
3000
37F8
0618
0618
37F8
30C0
66D0
66D8
CCCC
D8CC
01C0
ENDCHAR
STARTCHAR 51CB
ENCODING 20939
SWIDTH 840 0
DWIDTH 14 0
BBX 14 14 0 -2
BITMAP
0000
0FF8
CD98
6D98
6FE8
0D98
37F8
3418
6DE8
6D68
CD68
DBE8
1818
3038
ENDCHAR
STARTCHAR 51CC
ENCODING 20940
SWIDTH 840 0
DWIDTH 14 0
BBX 14 14 0 -2
BITMAP
00C0
00C0
67F8
30C0
37FC
01A0
336C
36BC
61F0
6330
CEA0
C0C0
03B0
1E1C
ENDCHAR
STARTCHAR 51CD
ENCODING 20941
SWIDTH 840 0
DWIDTH 14 0
BBX 14 14 0 -2
BITMAP
00C0
00C0
6FFC
30C0
37F8
06D8
1BF8
1AD8
37F8
31E0
6350
66D8
6CCC
00C0
ENDCHAR
STARTCHAR 51D6
ENCODING 20950
SWIDTH 840 0
DWIDTH 14 0
BBX 14 14 0 -2
BITMAP
0330
6360
37F8
36C0
0FF0
3AC0
37F0
66C0
67F8
0300
FFFC
0300
0300
0300
ENDCHAR
STARTCHAR 51DB
ENCODING 20955
SWIDTH 840 0
DWIDTH 14 0
BBX 14 14 0 -2
BITMAP
00C0
0FFC
6000
37F8
36E8
06A8
06E8
37F8
33F0
6000
6FFC
C350
C6D8
0CD8
ENDCHAR
STARTCHAR 51DC
ENCODING 20956
SWIDTH 840 0
DWIDTH 14 0
BBX 14 14 0 -2
BITMAP
00C0
0FFC
6000
37F8
36E8
06A8
06E8
37F8
33F0
60C0
6FFC
C350
C6D8
0CD8
ENDCHAR
STARTCHAR 51DD
ENCODING 20957
SWIDTH 840 0
DWIDTH 14 0
BBX 14 14 0 -2
BITMAP
1800
1BFC
DE18
69B0
6FB0
0CFC
37B8
3AD0
66DC
7FD0
CED0
CD70
D9B0
331C
ENDCHAR
STARTCHAR 51E0
ENCODING 20960
SWIDTH 840 0
DWIDTH 14 0
BBX 14 14 0 -2
BITMAP
0000
0FC0
0CC0
0CC0
0CC0
0CC0
0CC0
0CC0
0CC0
18C0
18C0
30CC
60CC
C07C
ENDCHAR
STARTCHAR 51E1
ENCODING 20961
SWIDTH 840 0
DWIDTH 14 0
BBX 14 14 0 -2
BITMAP
0000
1FC0
18C0
18C0
18C0
1AC0
1B40
1B40
1B40
18C0
30C0
30CC
60CC
C07C
ENDCHAR
STARTCHAR 51E6
ENCODING 20966
SWIDTH 840 0
DWIDTH 14 0
BBX 14 14 0 -2
BITMAP
0000
19F0
19B0
1EB0
36B0
36B0
76B0
DAB0
1DB0
0DB4
1D34
361C
6380
C0FC
ENDCHAR
STARTCHAR 51E7
ENCODING 20967
SWIDTH 840 0
DWIDTH 14 0
BBX 14 14 0 -2
BITMAP
0000
3FF0
3330
3330
37D0
3550
3550
3550
3550
3550
35D4
631C
631C
C30C
ENDCHAR
STARTCHAR 51E9
ENCODING 20969
SWIDTH 840 0
DWIDTH 14 0
BBX 14 14 0 -2
BITMAP
0000
3FF0
3330
3330
3330
3FF0
3330
37B0
3750
3550
3574
6B6C
731C
C30C
ENDCHAR
STARTCHAR 51EA
ENCODING 20970
SWIDTH 840 0
DWIDTH 14 0
BBX 14 14 0 -2
BITMAP
0000
3FF0
3030
3330
3330
3530
35D0
3530
3530
3530
3534
7FEC
601C
C00C
ENDCHAR
STARTCHAR 51ED
ENCODING 20973
SWIDTH 840 0
DWIDTH 14 0
BBX 14 14 0 -2
BITMAP
1838
1BE0
30C0
37FC
70C0
D0C0
37F8
3000
0FC0
0CC0
0CC0
18CC
30CC
607C
ENDCHAR
STARTCHAR 51F0
ENCODING 20976
SWIDTH 840 0
DWIDTH 14 0
BBX 14 14 0 -2
BITMAP
0000
3FF0
3330
37D0
34D0
37D0
34D0
37D0
3030
3FF0
3334
6FDC
631C
DFEC
ENDCHAR
STARTCHAR 51F1
ENCODING 20977
SWIDTH 840 0
DWIDTH 14 0
BBX 14 14 0 -2
BITMAP
1800
6AF0
6AB0
7EB0
01B0
FEB0
01B0
7EB0
66B0
7EB0
6DB0
35B4
3F34
E61C
ENDCHAR
STARTCHAR 51F5
ENCODING 20981
SWIDTH 840 0
DWIDTH 14 0
BBX 14 14 0 -2
BITMAP
6018
6018
6018
6018
6018
6018
6018
6018
6018
6018
6018
6018
7FF8
6018
ENDCHAR
STARTCHAR 51F6
ENCODING 20982
SWIDTH 840 0
DWIDTH 14 0
BBX 14 14 0 -2
BITMAP
00C0
00C0
C0D8
D998
CE98
C318
C398
C6D8
CC68
D868
D018
C018
FFF8
0000
ENDCHAR
STARTCHAR 51F8
ENCODING 20984
SWIDTH 840 0
DWIDTH 14 0
BBX 14 14 0 -2
BITMAP
0000
0FC0
0CC0
0CC0
0CC0
0CC0
7CF8
6018
6018
6018
6018
6018
7FF8
0000
ENDCHAR
STARTCHAR 51F9
ENCODING 20985
SWIDTH 840 0
DWIDTH 14 0
BBX 14 14 0 -2
BITMAP
0000
7CF8
6CD8
6CD8
6CD8
6CD8
6CD8
6FD8
6018
6018
6018
6018
7FF8
0000
ENDCHAR
STARTCHAR 51FA
ENCODING 20986
SWIDTH 840 0
DWIDTH 14 0
BBX 14 14 0 -2
BITMAP
0300
3330
3330
3330
3330
3FF0
0300
6318
6318
6318
6318
6318
7FF8
0000
ENDCHAR
STARTCHAR 51FD
ENCODING 20989
SWIDTH 840 0
DWIDTH 14 0
BBX 14 14 0 -2
BITMAP
0000
7FF0
0600
C618
CF68
D368
DBD8
DB58
CD68
DB68
C718
C018
FFF8
0000
ENDCHAR
STARTCHAR 51FE
ENCODING 20990
SWIDTH 840 0
DWIDTH 14 0
BBX 14 14 0 -2
BITMAP
1FE0
00C0
C198
C318
DDF8
D5B8
D568
D568
DD58
D5B8
C318
CE18
FFF8
0000
ENDCHAR
STARTCHAR 5200
ENCODING 20992
SWIDTH 840 0
DWIDTH 14 0
BBX 14 14 0 -2
BITMAP
0000
7FF8
0318
0318
0318
0318
0618
0618
0618
0C18
0C18
1818
3018
6070
ENDCHAR
STARTCHAR 5203
ENCODING 20995
SWIDTH 840 0
DWIDTH 14 0
BBX 14 14 0 -2
BITMAP
0000
FFF8
0618
0618
0618
0618
3E18
0F18
0D98
18D8
1818
3018
6018
C0F0
ENDCHAR
STARTCHAR 5204
ENCODING 20996
SWIDTH 840 0
DWIDTH 14 0
BBX 14 14 0 -2
BITMAP
0000
FFF0
0630
0630
6630
3630
1A30
0E30
0DB0
0CF0
183C
3030
6060
C3C0
ENDCHAR
STARTCHAR 5206
ENCODING 20998
SWIDTH 840 0
DWIDTH 14 0
BBX 14 14 0 -2
BITMAP
0FC0
00C0
18C0
1860
3060
3030
7FE8
C66C
0660
0660
0C60
0C60
1860
31C0
ENDCHAR
STARTCHAR 5207
ENCODING 20999
SWIDTH 840 0
DWIDTH 14 0
BBX 14 14 0 -2
BITMAP
3000
33F8
30D8
3758
3CD8
F0D8
30D8
30D8
36D8
3698
1E98
0318
0E18
3870
ENDCHAR
STARTCHAR 5208
ENCODING 21000
SWIDTH 840 0
DWIDTH 14 0
BBX 14 14 0 -2
BITMAP
0618
06D8
06D8
66D8
36D8
1CD8
0CD8
0ED8
1AD8
1B58
3358
3018
6018
C038
ENDCHAR
STARTCHAR 520A
ENCODING 21002
SWIDTH 840 0
DWIDTH 14 0
BBX 14 14 0 -2
BITMAP
0018
FF58
18D8
18D8
18D8
18D8
FF58
18D8
18D8
18D8
18D8
1818
1818
1838
ENDCHAR
STARTCHAR 520B
ENCODING 21003
SWIDTH 840 0
DWIDTH 14 0
BBX 14 14 0 -2
BITMAP
0318
0ED8
7CD8
0CD8
0CD8
0CD8
FFD8
0CD8
0CD8
0CD8
18D8
1818
3018
6038
ENDCHAR
STARTCHAR 520E
ENCODING 21006
SWIDTH 840 0
DWIDTH 14 0
BBX 14 14 0 -2
BITMAP
3018
3068
3068
3FA8
6AA8
6AA8
DAA8
36A8
35A8
6DA8
19A8
3318
0318
0E38
ENDCHAR
STARTCHAR 5211
ENCODING 21009
SWIDTH 840 0
DWIDTH 14 0
BBX 14 14 0 -2
BITMAP
0018
7FD8
36D8
36D8
36D8
36D8
FFD8
36D8
36D8
36D8
36D8
6618
6618
C638
ENDCHAR
STARTCHAR 5214
ENCODING 21012
SWIDTH 840 0
DWIDTH 14 0
BBX 14 14 0 -2
BITMAP
1818
18D8
18D8
7F58
1B58
1B58
1B58
FFD8
18D8
1CD8
36D8
3318
6318
C038
ENDCHAR
STARTCHAR 5217
ENCODING 21015
SWIDTH 840 0
DWIDTH 14 0
BBX 14 14 0 -2
BITMAP
0018
FF58
18D8
18D8
1ED8
36D8
36D8
6AD8
CED8
0CD8
0CD8
1818
3018
6038
ENDCHAR
STARTCHAR 521D
ENCODING 21021
SWIDTH 840 0
DWIDTH 14 0
BBX 14 14 0 -2
BITMAP
1800
1BF8
18D8
FED8
0CD8
0D58
1B58
3ED8
6AD8
DB58
1998
1998
1B18
1A70
ENDCHAR
STARTCHAR 5224
ENCODING 21028
SWIDTH 840 0
DWIDTH 14 0
BBX 14 14 0 -2
BITMAP
1818
DB58
6B58
6AD8
18D8
FF58
18D8
18D8
FF58
18D8
18D8
1818
1818
1838
ENDCHAR
STARTCHAR 5225
ENCODING 21029
SWIDTH 840 0
DWIDTH 14 0
BBX 14 14 0 -2
BITMAP
0018
7F58
6358
6358
6358
7F58
18D8
18D8
1F58
1B58
3358
3318
6318
CE38
ENDCHAR
STARTCHAR 5227
ENCODING 21031
SWIDTH 840 0
DWIDTH 14 0
BBX 14 14 0 -2
BITMAP
1800
1BF8
18D8
7ED8
18D8
18D8
FF58
18D8
1CD8
36D8
3698
FB98
0318
0670
ENDCHAR
STARTCHAR 5229
ENCODING 21033
SWIDTH 840 0
DWIDTH 14 0
BBX 14 14 0 -2
BITMAP
0318
0ED8
7CD8
0CD8
0CD8
FF58
1CD8
1ED8
3558
3558
6CD8
CC18
0C18
0C38
ENDCHAR
STARTCHAR 522A
ENCODING 21034
SWIDTH 840 0
DWIDTH 14 0
BBX 14 14 0 -2
BITMAP
0018
7FA8
6AA8
6AA8
6AA8
6AA8
FFE8
6AA8
6AA8
6AA8
6AA8
6A98
6A98
63B8
ENDCHAR
STARTCHAR 522E
ENCODING 21038
SWIDTH 840 0
DWIDTH 14 0
BBX 14 14 0 -2
BITMAP
0318
0ED8
7CD8
0CD8
0CD8
FFD8
0CD8
0CD8
7F58
6358
6358
6318
7F18
0038
ENDCHAR
STARTCHAR 5230
ENCODING 21040
SWIDTH 840 0
DWIDTH 14 0
BBX 14 14 0 -2
BITMAP
0018
FFD8
18D8
1CD8
36D8
FD58
1B58
18D8
FF58
18D8
18D8
1F18
F018
0038
ENDCHAR
STARTCHAR 5233
ENCODING 21043
SWIDTH 840 0
DWIDTH 14 0
BBX 14 14 0 -2
BITMAP
1818
18D8
FF58
34D8
66D8
DD58
00D8
FF58
30D8
3ED8
66D8
0618
0618
1C38
ENDCHAR
STARTCHAR 5236
ENCODING 21046
SWIDTH 840 0
DWIDTH 14 0
BBX 14 14 0 -2
BITMAP
3418
34D8
3F58
6CD8
CCD8
FFD8
0CD8
7F58
6D58
6D58
6D58
6ED8
6C18
0C38
ENDCHAR
STARTCHAR 5237
ENCODING 21047
SWIDTH 840 0
DWIDTH 14 0
BBX 14 14 0 -2
BITMAP
0018
7F58
6358
6358
7F58
6CD8
6CD8
7F58
7558
D558
D558
3718
3418
0C38
ENDCHAR
STARTCHAR 5238
ENCODING 21048
SWIDTH 840 0
DWIDTH 14 0
BBX 14 14 0 -2
BITMAP
0300
3330
1B60
7FF8
0680
FFFC
0CC0
3870
EFEC
0660
0660
0C60
1860
71C0
ENDCHAR
STARTCHAR 5239
ENCODING 21049
SWIDTH 840 0
DWIDTH 14 0
BBX 14 14 0 -2
BITMAP
0618
06D8
7CD8
0ED8
3B58
ECD8
0CD8
FF58
1CD8
1ED8
3558
6D18
CC18
0C38
ENDCHAR
STARTCHAR 523A
ENCODING 21050
SWIDTH 840 0
DWIDTH 14 0
BBX 14 14 0 -2
BITMAP
0C18
0CD8
FFD8
0CD8
7F58
6D58
6D58
6F58
1CD8
1ED8
3558
6D18
CC18
0C38
ENDCHAR
STARTCHAR 523B
ENCODING 21051
SWIDTH 840 0
DWIDTH 14 0
BBX 14 14 0 -2
BITMAP
0C18
0C18
FFD8
18D8
1AD8
76D8
1CD8
0D58
1B58
36D8
6E18
1B18
3318
E038
ENDCHAR
STARTCHAR 5243
ENCODING 21059
SWIDTH 840 0
DWIDTH 14 0
BBX 14 14 0 -2
BITMAP
6618
36D8
34D8
FF58
1B58
FF58
D8D8
FF58
DB58
3B58
6ED8
D818
1818
1838
ENDCHAR
STARTCHAR 5244
ENCODING 21060
SWIDTH 840 0
DWIDTH 14 0
BBX 14 14 0 -2
BITMAP
0018
FF58
6AD8
6AD8
D4D8
D4D8
6AD8
6AD8
00D8
FF58
18D8
1818
1F18
F838
ENDCHAR
STARTCHAR 5247
ENCODING 21063
SWIDTH 840 0
DWIDTH 14 0
BBX 14 14 0 -2
BITMAP
0018
7ED8
66D8
66D8
7ED8
66D8
7ED8
66D8
66D8
7ED8
34D8
3618
6618
C038
ENDCHAR
STARTCHAR 524A
ENCODING 21066
SWIDTH 840 0
DWIDTH 14 0
BBX 14 14 0 -2
BITMAP
1818
DB58
6B58
6AD8
18D8
7ED8
66D8
7ED8
66D8
7ED8
66D8
6618
6618
6E38
ENDCHAR
STARTCHAR 524B
ENCODING 21067
SWIDTH 840 0
DWIDTH 14 0
BBX 14 14 0 -2
BITMAP
1818
18D8
18D8
FF58
18D8
7ED8
66D8
66D8
7ED8
34D8
3418
343C
6C0C
C7FC
ENDCHAR
STARTCHAR 524C
ENCODING 21068
SWIDTH 840 0
DWIDTH 14 0
BBX 14 14 0 -2
BITMAP
1818
18D8
FF58
18D8
FF58
DB58
DB58
FF58
1CD8
3AD8
3B58
6B18
D818
1838
ENDCHAR
STARTCHAR 524D
ENCODING 21069
SWIDTH 840 0
DWIDTH 14 0
BBX 14 14 0 -2
BITMAP
1860
0C60
0CC0
FFFC
0000
7ED8
66D8
66D8
7ED8
66D8
7ED8
66D8
6618
6E38
ENDCHAR
STARTCHAR 524F
ENCODING 21071
SWIDTH 840 0
DWIDTH 14 0
BBX 14 14 0 -2
BITMAP
6600
3600
35F8
FED8
34D8
3558
35D8
FF58
34E8
34D8
359C
6D98
6D18
CE70
ENDCHAR
STARTCHAR 5254
ENCODING 21076
SWIDTH 840 0
DWIDTH 14 0
BBX 14 14 0 -2
BITMAP
0018
7F58
6358
7F58
6358
7F58
30D8
3F58
6B58
DB58
3558
6D18
1B18
3638
ENDCHAR
STARTCHAR 5256
ENCODING 21078
SWIDTH 840 0
DWIDTH 14 0
BBX 14 14 0 -2
BITMAP
0C18
0CD8
7FD8
3358
1B58
1AD8
FFD8
00D8
3F58
3358
3358
3318
3F18
0038
ENDCHAR
STARTCHAR 525B
ENCODING 21083
SWIDTH 840 0
DWIDTH 14 0
BBX 14 14 0 -2
BITMAP
0018
7FA8
76A8
6AA8
6DA8
7FA8
6DA8
75A8
75A8
75A8
7FA8
6198
6198
63B8
ENDCHAR
STARTCHAR 525E
ENCODING 21086
SWIDTH 840 0
DWIDTH 14 0
BBX 14 14 0 -2
BITMAP
0C18
0CD8
FFD8
1CD8
36D8
66D8
FFD8
0358
7D58
6D58
6D58
7D18
0318
0738
ENDCHAR
STARTCHAR 5263
ENCODING 21091
SWIDTH 840 0
DWIDTH 14 0
BBX 14 14 0 -2
BITMAP
0C18
0C18
1AD8
3358
FFD8
0CD8
7F58
6D58
7F58
6CD8
1AD8
1B18
3318
E038
ENDCHAR
STARTCHAR 5264
ENCODING 21092
SWIDTH 840 0
DWIDTH 14 0
BBX 14 14 0 -2
BITMAP
0C18
0CD8
FFD8
3358
1ED8
3BD8
F358
3F58
3358
3F58
3358
3318
6318
C338
ENDCHAR
STARTCHAR 5265
ENCODING 21093
SWIDTH 840 0
DWIDTH 14 0
BBX 14 14 0 -2
BITMAP
0018
7ED8
06D8
7ED8
06D8
FFD8
0CD8
6D58
3558
36D8
3D58
ED98
0C18
1C38
ENDCHAR
STARTCHAR 5269
ENCODING 21097
SWIDTH 840 0
DWIDTH 14 0
BBX 14 14 0 -2
BITMAP
0198
7F68
0C68
FFE8
3568
F5E8
3568
7568
DDE8
1E68
3568
6D98
CD98
0C38
ENDCHAR
STARTCHAR 526A
ENCODING 21098
SWIDTH 840 0
DWIDTH 14 0
BBX 14 14 0 -2
BITMAP
1860
0CC0
FFFC
7ED8
6AD8
76D8
6AD8
6AD8
6E38
0000
FFF8
0618
1C18
F0F0
ENDCHAR
STARTCHAR 526F
ENCODING 21103
SWIDTH 840 0
DWIDTH 14 0
BBX 14 14 0 -2
BITMAP
0018
FF58
00D8
7ED8
66D8
7ED8
00D8
FF58
DB58
FF58
DB58
DB18
FF18
C338
ENDCHAR
STARTCHAR 5270
ENCODING 21104
SWIDTH 840 0
DWIDTH 14 0
BBX 14 14 0 -2
BITMAP
0318
3E68
0C68
7FA8
3568
FFE8
3568
3568
7FA8
1E68
3568
6D18
CC18
0C38
ENDCHAR
STARTCHAR 5271
ENCODING 21105
SWIDTH 840 0
DWIDTH 14 0
BBX 14 14 0 -2
BITMAP
1800
1BF8
34D8
36D8
7ED8
DB58
7ED8
6AD8
6AE8
7ED8
359C
3698
6718
C670
ENDCHAR
STARTCHAR 5272
ENCODING 21106
SWIDTH 840 0
DWIDTH 14 0
BBX 14 14 0 -2
BITMAP
1818
FF58
DB58
FF58
18D8
7ED8
18D8
FF58
00D8
7ED8
66D8
6618
6618
7E38
ENDCHAR
STARTCHAR 5273
ENCODING 21107
SWIDTH 840 0
DWIDTH 14 0
BBX 14 14 0 -2
BITMAP
3618
36D8
FFD8
36D8
34D8
1AD8
3358
3FD8
60D8
DF58
3358
3318
3F18
0038
ENDCHAR
STARTCHAR 5274
ENCODING 21108
SWIDTH 840 0
DWIDTH 14 0
BBX 14 14 0 -2
BITMAP
1818
6AD8
6AD8
7ED8
00D8
FF58
00D8
7ED8
66D8
7ED8
66D8
3418
3E18
F038
ENDCHAR
STARTCHAR 5275
ENCODING 21109
SWIDTH 840 0
DWIDTH 14 0
BBX 14 14 0 -2
BITMAP
0C18
0ED8
1B58
35D8
7F58
D358
3F58
3358
3F58
30D8
7F58
7318
DF18
0038
ENDCHAR
STARTCHAR 527D
ENCODING 21117
SWIDTH 840 0
DWIDTH 14 0
BBX 14 14 0 -2
BITMAP
0018
FF58
34D8
FF58
D558
FF58
00D8
7ED8
00D8
FF58
6AD8
6B18
DB18
3838
ENDCHAR
STARTCHAR 527F
ENCODING 21119
SWIDTH 840 0
DWIDTH 14 0
BBX 14 14 0 -2
BITMAP
6D98
DB68
6DA8
7FA8
6DA8
7FA8
6DA8
7FA8
0C68
FFE8
1E68
3518
ED98
0C38
ENDCHAR
STARTCHAR 5283
ENCODING 21123
SWIDTH 840 0
DWIDTH 14 0
BBX 14 14 0 -2
BITMAP
1818
7F58
1B58
FFD8
1B58
7F58
18D8
FFD8
6B58
7F58
6B58
7F18
0F18
F838
ENDCHAR
STARTCHAR 5287
ENCODING 21127
SWIDTH 840 0
DWIDTH 14 0
BBX 14 14 0 -2
BITMAP
0C18
0FA8
7FE8
6EA8
7BA8
7FA8
6EA8
7DA8
6F68
7B68
6EA8
7A98
C618
1C38
ENDCHAR
STARTCHAR 5288
ENCODING 21128
SWIDTH 840 0
DWIDTH 14 0
BBX 14 14 0 -2
BITMAP
0060
7E60
66F8
7ED0
63FC
7E60
76F8
DE60
3060
7FF8
0318
0618
1C18
70F0
ENDCHAR
STARTCHAR 5289
ENCODING 21129
SWIDTH 840 0
DWIDTH 14 0
BBX 14 14 0 -2
BITMAP
180C
77AC
76AC
6AAC
7DAC
EDAC
1A6C
3F6C
EDAC
7FAC
356C
1E0C
0F8C
F81C
ENDCHAR
STARTCHAR 528D
ENCODING 21133
SWIDTH 840 0
DWIDTH 14 0
BBX 14 14 0 -2
BITMAP
0C18
0CD8
1AD8
3358
7F58
C0D8
7F58
6D58
7F58
36D8
3AD8
3518
6D98
D9B8
ENDCHAR
STARTCHAR 5291
ENCODING 21137
SWIDTH 840 0
DWIDTH 14 0
BBX 14 14 0 -2
BITMAP
0C18
FFE8
1AA8
FF68
6EA8
6EE8
7F68
D368
3F68
3368
3F68
3318
6318
C338
ENDCHAR
STARTCHAR 5292
ENCODING 21138
SWIDTH 840 0
DWIDTH 14 0
BBX 14 14 0 -2
BITMAP
0C00
0DF8
1A68
3368
7F68
C0E8
7FA8
6DA8
7F68
3668
36D8
6D58
6D98
DB70
ENDCHAR
STARTCHAR 5294
ENCODING 21140
SWIDTH 840 0
DWIDTH 14 0
BBX 14 14 0 -2
BITMAP
0C00
0DF8
1A68
33A8
7FA8
C0E8
7F68
6D68
7F78
3668
36DC
6D58
6D98
DB70
ENDCHAR
STARTCHAR 529B
ENCODING 21147
SWIDTH 840 0
DWIDTH 14 0
BBX 14 14 0 -2
BITMAP
0600
0600
0600
0600
FFF8
0618
0618
0618
0C18
0C18
1818
3018
6018
C070
ENDCHAR
STARTCHAR 529F
ENCODING 21151
SWIDTH 840 0
DWIDTH 14 0
BBX 14 14 0 -2
BITMAP
0180
0180
0180
FD80
37F8
3198
3198
3198
3198
3518
3B18
E318
0618
0C70
ENDCHAR
STARTCHAR 52A0
ENCODING 21152
SWIDTH 840 0
DWIDTH 14 0
BBX 14 14 0 -2
BITMAP
1800
1800
1800
18FC
FF4C
1B4C
1B4C
1B4C
1B4C
1B4C
334C
337C
6300
CE00
ENDCHAR
STARTCHAR 52A3
ENCODING 21155
SWIDTH 840 0
DWIDTH 14 0
BBX 14 14 0 -2
BITMAP
0300
1B60
1B30
3368
674C
038C
0E80
F980
1FF8
0318
0618
0C18
3818
E070
ENDCHAR
STARTCHAR 52A9
ENCODING 21161
SWIDTH 840 0
DWIDTH 14 0
BBX 14 14 0 -2
BITMAP
00C0
7CC0
6CC0
6FF8
7CD8
6CD8
6CD8
7CD8
6CD8
6CD8
6E98
7998
E318
0670
ENDCHAR
STARTCHAR 52AA
ENCODING 21162
SWIDTH 840 0
DWIDTH 14 0
BBX 14 14 0 -2
BITMAP
1800
1BF8
FE98
36D8
36D0
7C60
0ED0
7B1C
0300
7FF0
0330
0630
1C30
71E0
ENDCHAR
STARTCHAR 52AB
ENCODING 21163
SWIDTH 840 0
DWIDTH 14 0
BBX 14 14 0 -2
BITMAP
18C0
18C0
18C0
7EC0
1BF8
18D8
FF58
18D8
1CD8
36D8
3698
FB98
0318
0670
ENDCHAR
STARTCHAR 52AC
ENCODING 21164
SWIDTH 840 0
DWIDTH 14 0
BBX 14 14 0 -2
BITMAP
30C0
30C0
30C0
3EC0
67F8
66D8
FAD8
6AD8
6AD8
6AD8
7A98
6698
0718
1E70
ENDCHAR
STARTCHAR 52AD
ENCODING 21165
SWIDTH 840 0
DWIDTH 14 0
BBX 14 14 0 -2
BITMAP
00C0
FEC0
36C0
36C0
37F8
66D8
DCD8
00D8
7ED8
66D8
6698
6698
7F18
0670
ENDCHAR
STARTCHAR 52B1
ENCODING 21169
SWIDTH 840 0
DWIDTH 14 0
BBX 14 14 0 -2
BITMAP
03A0
3E60
3060
3060
3FFC
346C
346C
376C
356C
356C
354C
6B4C
6B8C
D738
ENDCHAR
STARTCHAR 52B4
ENCODING 21172
SWIDTH 840 0
DWIDTH 14 0
BBX 14 14 0 -2
BITMAP
3630
1B30
1B60
FFFC
C00C
C30C
0300
7FF0
0330
0630
0630
0C30
3830
E0E0
ENDCHAR
STARTCHAR 52B5
ENCODING 21173
SWIDTH 840 0
DWIDTH 14 0
BBX 14 14 0 -2
BITMAP
0300
1B60
1B30
3FF8
6318
0680
FFFC
0EC0
1A60
3FF0
E66C
0C60
1860
31C0
ENDCHAR
STARTCHAR 52B9
ENCODING 21177
SWIDTH 840 0
DWIDTH 14 0
BBX 14 14 0 -2
BITMAP
18C0
18C0
18C0
FF40
35F8
36D8
6758
D6D8
1CD8
0CD8
1A98
3698
6318
C670
ENDCHAR
STARTCHAR 52BC
ENCODING 21180
SWIDTH 840 0
DWIDTH 14 0
BBX 14 14 0 -2
BITMAP
18C0
18C0
18C0
FF40
1BF8
18D8
7ED8
00D8
7ED8
66D8
6698
6698
7F18
0670
ENDCHAR
STARTCHAR 52BE
ENCODING 21182
SWIDTH 840 0
DWIDTH 14 0
BBX 14 14 0 -2
BITMAP
18C0
18C0
FF40
30C0
35F8
ECD8
38D8
1AD8
36D8
6CD8
1D98
3698
6318
C670
ENDCHAR
STARTCHAR 52C1
ENCODING 21185
SWIDTH 840 0
DWIDTH 14 0
BBX 14 14 0 -2
BITMAP
00C0
FF40
6AC0
6AC0
D5F8
D4D8
6AD8
6AD8
00D8
FF58
18D8
1998
1E98
FB70
ENDCHAR
STARTCHAR 52C3
ENCODING 21187
SWIDTH 840 0
DWIDTH 14 0
BBX 14 14 0 -2
BITMAP
18C0
18C0
7F40
18C0
FFF8
C358
FED8
0CD8
18D8
1ED8
F998
1998
1B18
3A70
ENDCHAR
STARTCHAR 52C5
ENCODING 21189
SWIDTH 840 0
DWIDTH 14 0
BBX 14 14 0 -2
BITMAP
18C0
18C0
FF40
18C0
7FF8
6AD8
6AD8
7ED8
3CD8
3AD8
6A98
D998
1B18
1A70
ENDCHAR
STARTCHAR 52C7
ENCODING 21191
SWIDTH 840 0
DWIDTH 14 0
BBX 14 14 0 -2
BITMAP
0000
3FE0
0DC0
0700
3FF0
3330
3FF0
3330
3FF0
0300
FFF8
0618
1C18
F0F0
ENDCHAR
STARTCHAR 52C9
ENCODING 21193
SWIDTH 840 0
DWIDTH 14 0
BBX 14 14 0 -2
BITMAP
18C0
18C0
3EC0
6CC0
FFF8
6AD8
6AD8
7ED8
6D98
1D98
3518
3674
6C0C
C7FC
ENDCHAR
STARTCHAR 52CD
ENCODING 21197
SWIDTH 840 0
DWIDTH 14 0
BBX 14 14 0 -2
BITMAP
18C0
18C0
FF40
00C0
7FF8
66D8
66D8
7ED8
18D8
6CD8
6A98
6A98
DB18
3A70
ENDCHAR
STARTCHAR 52D2
ENCODING 21202
SWIDTH 840 0
DWIDTH 14 0
BBX 14 14 0 -2
BITMAP
34C0
34C0
FF40
34C0
3DF8
18D8
7ED8
6AD8
7ED8
18D8
FF98
1998
1B18
1A70
ENDCHAR
STARTCHAR 52D5
ENCODING 21205
SWIDTH 840 0
DWIDTH 14 0
BBX 14 14 0 -2
BITMAP
0EC0
78C0
18C0
FFF8
18D8
7ED8
6AD8
7ED8
6AD8
7ED8
1998
7E98
1F18
F670
ENDCHAR
STARTCHAR 52D7
ENCODING 21207
SWIDTH 840 0
DWIDTH 14 0
BBX 14 14 0 -2
BITMAP
0000
3FF0
3030
3FF0
3030
3FF0
7EC0
66C0
7FF8
66D8
7ED8
6698
7F98
E370
ENDCHAR
STARTCHAR 52D8
ENCODING 21208
SWIDTH 840 0
DWIDTH 14 0
BBX 14 14 0 -2
BITMAP
36C0
36C0
FF40
36F8
3ED8
36D8
3ED8
36D8
FFD8
6CD8
6D58
7798
7F98
0370
ENDCHAR
STARTCHAR 52D9
ENCODING 21209
SWIDTH 840 0
DWIDTH 14 0
BBX 14 14 0 -2
BITMAP
0180
7E80
0DFC
3BB0
1AD0
FE60
1AD0
3B5C
3CC0
6BF8
D8D8
1998
1B18
3A70
ENDCHAR
STARTCHAR 52DD
ENCODING 21213
SWIDTH 840 0
DWIDTH 14 0
BBX 14 14 0 -2
BITMAP
00C0
7ED8
6D50
6FF8
6CC0
7FFC
6DA0
6D50
7ED8
6FF4
6DB0
6DB0
6D30
DEE0
ENDCHAR
STARTCHAR 52DE
ENCODING 21214
SWIDTH 840 0
DWIDTH 14 0
BBX 14 14 0 -2
BITMAP
1860
1C70
6AA8
6AA8
DB60
34D0
6698
7FFC
6618
DFF0
0630
0C30
1830
70E0
ENDCHAR
STARTCHAR 52DF
ENCODING 21215
SWIDTH 840 0
DWIDTH 14 0
BBX 14 14 0 -2
BITMAP
0CC0
FFFC
0CC0
1FE0
1860
1FE0
1860
1FE0
FFFC
0D40
3FF0
E36C
0E60
39C0
ENDCHAR
STARTCHAR 52E0
ENCODING 21216
SWIDTH 840 0
DWIDTH 14 0
BBX 14 14 0 -2
BITMAP
00C0
FF40
6B40
DD40
6BF8
DD58
3AD8
E358
1B58
74D8
1A98
7598
1B18
7670
ENDCHAR
STARTCHAR 52E2
ENCODING 21218
SWIDTH 840 0
DWIDTH 14 0
BBX 14 14 0 -2
BITMAP
18C0
7EC0
1BF0
FF50
35D0
6B50
FEF0
19B4
FF1C
0300
7FF0
0630
1C30
71E0
ENDCHAR
STARTCHAR 52E3
ENCODING 21219
SWIDTH 840 0
DWIDTH 14 0
BBX 14 14 0 -2
BITMAP
18C0
FF40
18C0
7EC0
19F8
FF58
66D8
7ED8
66D8
7ED8
66D8
7E98
3698
E370
ENDCHAR
STARTCHAR 52E4
ENCODING 21220
SWIDTH 840 0
DWIDTH 14 0
BBX 14 14 0 -2
BITMAP
34C0
FF40
34C0
7EC0
6BF8
6AD8
7ED8
18D8
7ED8
18D8
7ED8
1998
1E98
FB70
ENDCHAR
STARTCHAR 52E6
ENCODING 21222
SWIDTH 840 0
DWIDTH 14 0
BBX 14 14 0 -2
BITMAP
6AC0
D4C0
6AC0
7EC0
6BF8
7ED8
6AD8
7ED8
18D8
FED8
3D98
6A98
DB18
1A70
ENDCHAR
STARTCHAR 52E7
ENCODING 21223
SWIDTH 840 0
DWIDTH 14 0
BBX 14 14 0 -2
BITMAP
30C0
30C0
7F40
69F8
DF58
34D8
7F58
ECD8
7F58
6CD8
7F58
6D98
7F98
0370
ENDCHAR
STARTCHAR 52F2
ENCODING 21234
SWIDTH 840 0
DWIDTH 14 0
BBX 14 14 0 -2
BITMAP
06C0
7CC0
18C0
FFF8
6AD8
7ED8
6AD8
FF58
1998
1F98
FB70
0000
6D98
C6CC
ENDCHAR
STARTCHAR 52F3
ENCODING 21235
SWIDTH 840 0
DWIDTH 14 0
BBX 14 14 0 -2
BITMAP
0EC0
78C0
FF40
18C0
FFF8
EB58
DD58
FF58
18D8
FF58
18D8
FE98
7A98
D570
ENDCHAR
STARTCHAR 52F5
ENCODING 21237
SWIDTH 840 0
DWIDTH 14 0
BBX 14 14 0 -2
BITMAP
0060
7FA0
6D60
7FA0
6D78
6FA8
6AA8
6FA8
6AA8
6FA8
7FE8
7768
7FD8
D1D8
ENDCHAR
STARTCHAR 52F8
ENCODING 21240
SWIDTH 840 0
DWIDTH 14 0
BBX 14 14 0 -2
BITMAP
34C0
FF40
34C0
F740
D5F8
F758
6CD8
7F58
6CD8
FED8
6CD8
7E98
6D98
7F70
ENDCHAR
STARTCHAR 52F9
ENCODING 21241
SWIDTH 840 0
DWIDTH 14 0
BBX 14 14 0 -2
BITMAP
1800
1800
1800
1FF8
3018
3018
6018
C018
0018
0018
0018
0018
0030
00E0
ENDCHAR
STARTCHAR 52FA
ENCODING 21242
SWIDTH 840 0
DWIDTH 14 0
BBX 14 14 0 -2
BITMAP
1800
1800
1800
1FF8
3018
3018
6C18
C618
0318
0318
0018
0018
0018
0070
ENDCHAR
STARTCHAR 52FE
ENCODING 21246
SWIDTH 840 0
DWIDTH 14 0
BBX 14 14 0 -2
BITMAP
1800
1800
1800
3FF8
3618
6618
C618
0718
0D98
0DD8
7ED8
0018
0018
0070
ENDCHAR
STARTCHAR 52FF
ENCODING 21247
SWIDTH 840 0
DWIDTH 14 0
BBX 14 14 0 -2
BITMAP
1800
1800
1800
1FF8
36D8
36D8
66D8
CCD8
0CD8
1998
3198
0318
0618
0070
ENDCHAR
STARTCHAR 5301
ENCODING 21249
SWIDTH 840 0
DWIDTH 14 0
BBX 14 14 0 -2
BITMAP
1800
1800
1800
1FF0
1B30
3530
3730
6330
C6D0
0670
0C3C
1830
3060
01C0
ENDCHAR
STARTCHAR 5302
ENCODING 21250
SWIDTH 840 0
DWIDTH 14 0
BBX 14 14 0 -2
BITMAP
1800
1800
1800
3FF8
3018
6818
DB98
1E18
1818
18D8
18D8
0FD8
0018
0070
ENDCHAR
STARTCHAR 5305
ENCODING 21253
SWIDTH 840 0
DWIDTH 14 0
BBX 14 14 0 -2
BITMAP
1800
1800
1800
3FF8
3018
7F98
C198
0198
3F98
31B0
3000
300C
300C
1FFC
ENDCHAR
STARTCHAR 5306
ENCODING 21254
SWIDTH 840 0
DWIDTH 14 0
BBX 14 14 0 -2
BITMAP
1800
1800
1800
1FF8
36D8
36D8
6ED8
CDD8
0CD8
19A8
3198
0318
0630
00E0
ENDCHAR
STARTCHAR 5308
ENCODING 21256
SWIDTH 840 0
DWIDTH 14 0
BBX 14 14 0 -2
BITMAP
1800
1800
1800
1FF8
3018
3318
7B58
D758
3758
35D8
38D8
3FD8
30D8
0070
ENDCHAR
STARTCHAR 530D
ENCODING 21261
SWIDTH 840 0
DWIDTH 14 0
BBX 14 14 0 -2
BITMAP
1800
1800
3FF8
36D8
7FE8
C618
3FD8
36D8
3FD8
36D8
3FD8
36D8
36D8
0070
ENDCHAR
STARTCHAR 530F
ENCODING 21263
SWIDTH 840 0
DWIDTH 14 0
BBX 14 14 0 -2
BITMAP
18C0
18C0
FF40
35F8
3698
7FE8
C1A8
FEA8
31E8
3EB0
6680
068C
068C
1CFC
ENDCHAR
STARTCHAR 5310
ENCODING 21264
SWIDTH 840 0
DWIDTH 14 0
BBX 14 14 0 -2
BITMAP
1800
1800
3FF8
3018
7FD8
D998
1F98
0018
3FD8
36D8
3FD8
36D8
3FD8
0070
ENDCHAR
STARTCHAR 5315
ENCODING 21269
SWIDTH 840 0
DWIDTH 14 0
BBX 14 14 0 -2
BITMAP
3000
3000
3018
3030
3060
31C0
3700
3C00
F000
3000
300C
300C
180C
0FFC
ENDCHAR
STARTCHAR 5316
ENCODING 21270
SWIDTH 840 0
DWIDTH 14 0
BBX 14 14 0 -2
BITMAP
0D80
0D80
0D98
1998
19B0
39A0
69C0
D980
1980
1980
1980
198C
198C
18FC
ENDCHAR
STARTCHAR 5317
ENCODING 21271
SWIDTH 840 0
DWIDTH 14 0
BBX 14 14 0 -2
BITMAP
0D80
0D80
0D98
0D98
FDB0
0DA0
0DC0
0D80
0D80
3D80
ED80
0D8C
0D8C
0CFC
ENDCHAR
STARTCHAR 5319
ENCODING 21273
SWIDTH 840 0
DWIDTH 14 0
BBX 14 14 0 -2
BITMAP
00C0
3F40
3340
3F58
3358
3F50
00E0
FFC0
0CC0
374C
34CC
3C7C
6E00
C3FC
ENDCHAR
STARTCHAR 531A
ENCODING 21274
SWIDTH 840 0
DWIDTH 14 0
BBX 14 14 0 -2
BITMAP
0000
7FF8
6000
6000
6000
6000
6000
6000
6000
6000
6000
6000
7FFC
0000
ENDCHAR
STARTCHAR 531D
ENCODING 21277
SWIDTH 840 0
DWIDTH 14 0
BBX 14 14 0 -2
BITMAP
0000
7FFC
6180
6180
6FF0
6DB0
6DB0
6DB0
6DB0
6DB0
6DE0
6180
7FFC
0000
ENDCHAR
STARTCHAR 5320
ENCODING 21280
SWIDTH 840 0
DWIDTH 14 0
BBX 14 14 0 -2
BITMAP
0000
7FF8
6060
61C0
6F00
6C00
6FF8
6CC0
6CC0
68C0
68C0
70C0
7FFC
0000
ENDCHAR
STARTCHAR 5321
ENCODING 21281
SWIDTH 840 0
DWIDTH 14 0
BBX 14 14 0 -2
BITMAP
0000
7FFC
6000
6FF8
6180
6180
6FF0
6180
6180
6180
6FF8
6000
7FFC
0000
ENDCHAR
STARTCHAR 5323
ENCODING 21283
SWIDTH 840 0
DWIDTH 14 0
BBX 14 14 0 -2
BITMAP
0000
7FF8
6000
6FF0
6DB0
6FF0
6DB0
6DB0
6FF0
6180
6180
6180
7FFC
0000
ENDCHAR
STARTCHAR 532A
ENCODING 21290
SWIDTH 840 0
DWIDTH 14 0
BBX 14 14 0 -2
BITMAP
0000
7FFC
6340
6340
6F78
6340
6F78
6340
6F78
66C0
66C0
6CC0
7FFC
6000
ENDCHAR
STARTCHAR 532F
ENCODING 21295
SWIDTH 840 0
DWIDTH 14 0
BBX 14 14 0 -2
BITMAP
0000
7FF8
69B0
6DA0
75F8
6B60
6BF8
6360
6DF8
6D60
6BF8
6800
7FFC
0000
ENDCHAR
STARTCHAR 5331
ENCODING 21297
SWIDTH 840 0
DWIDTH 14 0
BBX 14 14 0 -2
BITMAP
0000
7FFC
6180
6FF0
6DB0
7FFC
6C30
6FF0
6FF0
6C30
6FF0
6C38
7FFC
0000
ENDCHAR
STARTCHAR 5333
ENCODING 21299
SWIDTH 840 0
DWIDTH 14 0
BBX 14 14 0 -2
BITMAP
0000
7FF8
6180
6340
6FF0
7818
6F70
6D50
6F70
6660
6D50
6B98
7FFC
0000
ENDCHAR
STARTCHAR 5338
ENCODING 21304
SWIDTH 840 0
DWIDTH 14 0
BBX 14 14 0 -2
BITMAP
0000
FFFC
3000
3000
3000
3000
3000
3000
3000
3000
3000
1800
0FF8
0000
ENDCHAR
STARTCHAR 5339
ENCODING 21305
SWIDTH 840 0
DWIDTH 14 0
BBX 14 14 0 -2
BITMAP
0000
7FF8
66C0
66C0
66C0
66C0
66C0
6CD8
6CD8
6878
7000
6000
7FFC
6000
ENDCHAR
STARTCHAR 533A
ENCODING 21306
SWIDTH 840 0
DWIDTH 14 0
BBX 14 14 0 -2
BITMAP
0000
7FF8
6060
6060
60C0
6CC0
6780
6180
6340
6660
6C60
6800
7FFC
0000
ENDCHAR
STARTCHAR 533B
ENCODING 21307
SWIDTH 840 0
DWIDTH 14 0
BBX 14 14 0 -2
BITMAP
0000
7FF8
6600
6600
6FF0
6D80
6980
7FF8
6340
6360
6630
6C30
6000
7FFC
ENDCHAR
STARTCHAR 533F
ENCODING 21311
SWIDTH 840 0
DWIDTH 14 0
BBX 14 14 0 -2
BITMAP
0000
7FFC
66C0
6FF0
66C0
6300
7FF8
6600
6FF0
6A30
77F0
6000
7FFC
0000
ENDCHAR
STARTCHAR 5340
ENCODING 21312
SWIDTH 840 0
DWIDTH 14 0
BBX 14 14 0 -2
BITMAP
0000
FFF8
6000
67E0
6660
67E0
6000
6F78
6B58
6B58
6F78
6000
7FFC
0000
ENDCHAR
STARTCHAR 5341
ENCODING 21313
SWIDTH 840 0
DWIDTH 14 0
BBX 14 14 0 -2
BITMAP
0300
0300
0300
0300
0300
0300
FFFC
0300
0300
0300
0300
0300
0300
0300
ENDCHAR
STARTCHAR 5343
ENCODING 21315
SWIDTH 840 0
DWIDTH 14 0
BBX 14 14 0 -2
BITMAP
0060
01C0
3F00
0300
0300
0300
FFFC
0300
0300
0300
0300
0300
0300
0300
ENDCHAR
STARTCHAR 5345
ENCODING 21317
SWIDTH 840 0
DWIDTH 14 0
BBX 14 14 0 -2
BITMAP
3330
3330
3330
3330
3330
3330
FFFC
3330
3330
3330
3330
6330
6330
C030
ENDCHAR
STARTCHAR 5346
ENCODING 21318
SWIDTH 840 0
DWIDTH 14 0
BBX 14 14 0 -2
BITMAP
0600
0600
7FC0
0CC0
0CCC
18CC
337C
6300
0300
FFFC
0300
0300
0300
0300
ENDCHAR
STARTCHAR 5347
ENCODING 21319
SWIDTH 840 0
DWIDTH 14 0
BBX 14 14 0 -2
BITMAP
0340
0EC0
7CC0
0CC0
0CC0
0CC0
FFFC
0CC0
0CC0
18C0
18C0
30C0
60C0
C0C0
ENDCHAR
STARTCHAR 5348
ENCODING 21320
SWIDTH 840 0
DWIDTH 14 0
BBX 14 14 0 -2
BITMAP
1800
1800
1FF0
3300
3300
6300
0300
FFFC
0300
0300
0300
0300
0300
0300
ENDCHAR
STARTCHAR 5349
ENCODING 21321
SWIDTH 840 0
DWIDTH 14 0
BBX 14 14 0 -2
BITMAP
0300
0300
0300
7FF8
0300
1B60
1B60
1860
FFFC
1860
1860
3060
3060
6060
ENDCHAR
STARTCHAR 534A
ENCODING 21322
SWIDTH 840 0
DWIDTH 14 0
BBX 14 14 0 -2
BITMAP
0300
0300
3330
1B30
1B60
7FF8
0300
0300
FFFC
0300
0300
0300
0300
0300
ENDCHAR
STARTCHAR 534D
ENCODING 21325
SWIDTH 840 0
DWIDTH 14 0
BBX 14 14 0 -2
BITMAP
0000
7F18
0318
0318
0318
0318
7FF8
6300
6300
6300
6300
6300
63F8
0000
ENDCHAR
STARTCHAR 5351
ENCODING 21329
SWIDTH 840 0
DWIDTH 14 0
BBX 14 14 0 -2
BITMAP
0600
0C00
3FF0
3330
3330
3FF0
3330
3FF0
0CC0
18C0
FFFC
00C0
00C0
00C0
ENDCHAR
STARTCHAR 5352
ENCODING 21330
SWIDTH 840 0
DWIDTH 14 0
BBX 14 14 0 -2
BITMAP
0300
0300
FFFC
18C0
18C0
1CE0
36B0
6730
0300
FFFC
0300
0300
0300
0300
ENDCHAR
STARTCHAR 5353
ENCODING 21331
SWIDTH 840 0
DWIDTH 14 0
BBX 14 14 0 -2
BITMAP
0300
0300
03F8
0300
3FF0
3030
3FF0
3030
3FF0
0300
FFFC
0300
0300
0300
ENDCHAR
STARTCHAR 5354
ENCODING 21332
SWIDTH 840 0
DWIDTH 14 0
BBX 14 14 0 -2
BITMAP
30C0
30C0
37F8
30D8
FD98
3318
3670
3630
3FFC
36B4
36B4
35AC
35AC
3BDC
ENDCHAR
STARTCHAR 5357
ENCODING 21335
SWIDTH 840 0
DWIDTH 14 0
BBX 14 14 0 -2
BITMAP
0300
0300
FFFC
0300
0300
7FF8
6CD8
6698
6FE8
6318
6FE8
6318
6318
6338
ENDCHAR
STARTCHAR 5358
ENCODING 21336
SWIDTH 840 0
DWIDTH 14 0
BBX 14 14 0 -2
BITMAP
3630
1B30
1B60
3FF0
3330
3FF0
3330
3330
3FF0
0300
FFFC
0300
0300
0300
ENDCHAR
STARTCHAR 535A
ENCODING 21338
SWIDTH 840 0
DWIDTH 14 0
BBX 14 14 0 -2
BITMAP
30D8
37FC
30C0
37F8
FED8
37F8
36D8
37F8
3030
37FC
3330
31B0
3030
3070
ENDCHAR
STARTCHAR 535C
ENCODING 21340
SWIDTH 840 0
DWIDTH 14 0
BBX 14 14 0 -2
BITMAP
0600
0600
0600
0600
0700
0680
06C0
0660
0660
0600
0600
0600
0600
0600
ENDCHAR
STARTCHAR 535E
ENCODING 21342
SWIDTH 840 0
DWIDTH 14 0
BBX 14 14 0 -2
BITMAP
0300
0300
FFFC
0300
0300
0380
0340
0360
0330
0330
0300
0300
0300
0300
ENDCHAR
STARTCHAR 5360
ENCODING 21344
SWIDTH 840 0
DWIDTH 14 0
BBX 14 14 0 -2
BITMAP
0600
0600
0600
07F8
0600
0600
0600
7FF0
6030
6030
6030
6030
7FF0
0000
ENDCHAR
STARTCHAR 5366
ENCODING 21350
SWIDTH 840 0
DWIDTH 14 0
BBX 14 14 0 -2
BITMAP
0C60
0C60
0C60
7FA0
0C60
0C70
FFE8
0C6C
0C6C
7FA0
0C60
0C60
0FA0
FC60
ENDCHAR
STARTCHAR 5369
ENCODING 21353
SWIDTH 840 0
DWIDTH 14 0
BBX 14 14 0 -2
BITMAP
0000
1FE0
1860
1860
1860
1860
1860
1860
1860
1860
1BC0
1800
1800
1800
ENDCHAR
STARTCHAR 536E
ENCODING 21358
SWIDTH 840 0
DWIDTH 14 0
BBX 14 14 0 -2
BITMAP
0038
01E0
3F00
3000
3FFC
3000
37F0
3630
3630
3630
36E0
660C
660C
C3FC
ENDCHAR
STARTCHAR 536F
ENCODING 21359
SWIDTH 840 0
DWIDTH 14 0
BBX 14 14 0 -2
BITMAP
0600
1C00
71F8
6698
6698
6698
6698
6698
6698
7E98
EDF0
0D80
1980
3180
ENDCHAR
STARTCHAR 5370
ENCODING 21360
SWIDTH 840 0
DWIDTH 14 0
BBX 14 14 0 -2
BITMAP
0300
0E00
79F8
6198
6198
7E98
6198
6198
6198
7E98
61F0
0180
0180
0180
ENDCHAR
STARTCHAR 5371
ENCODING 21361
SWIDTH 840 0
DWIDTH 14 0
BBX 14 14 0 -2
BITMAP
0600
0FE0
39C0
E300
3FFC
3000
37F0
3630
3630
3630
36E0
660C
660C
C3FC
ENDCHAR
STARTCHAR 5373
ENCODING 21363
SWIDTH 840 0
DWIDTH 14 0
BBX 14 14 0 -2
BITMAP
0000
7EF8
6698
6698
7E98
6698
6698
7E98
6998
6D98
6E98
7AF0
E680
0180
ENDCHAR
STARTCHAR 5374
ENCODING 21364
SWIDTH 840 0
DWIDTH 14 0
BBX 14 14 0 -2
BITMAP
1800
18F8
18D8
7F58
18D8
18D8
FFD8
18D8
1CD8
36D8
3770
FD40
0340
00C0
ENDCHAR
STARTCHAR 5375
ENCODING 21365
SWIDTH 840 0
DWIDTH 14 0
BBX 14 14 0 -2
BITMAP
0600
1C00
76F8
6698
76D8
6AA8
6AA8
6698
6698
6E98
F5F0
0D80
1980
3180
ENDCHAR
STARTCHAR 5377
ENCODING 21367
SWIDTH 840 0
DWIDTH 14 0
BBX 14 14 0 -2
BITMAP
0300
1B60
1B30
3FF0
0680
FFFC
0CC0
1860
37D0
ECDC
0CC0
0D80
0C30
07F0
ENDCHAR
STARTCHAR 5378
ENCODING 21368
SWIDTH 840 0
DWIDTH 14 0
BBX 14 14 0 -2
BITMAP
3000
30F8
3F58
6CD8
CCD8
FFD8
0CD8
6F58
6CD8
6CD8
6F70
7CC0
E0C0
00C0
ENDCHAR
STARTCHAR 537B
ENCODING 21371
SWIDTH 840 0
DWIDTH 14 0
BBX 14 14 0 -2
BITMAP
1800
1CF8
36D8
6358
DB58
1CD8
36D8
3358
7F58
D6D8
36F0
36C0
3EC0
30C0
ENDCHAR
STARTCHAR 537F
ENCODING 21375
SWIDTH 840 0
DWIDTH 14 0
BBX 14 14 0 -2
BITMAP
1800
77B8
66A8
6AA8
6BA8
6AA8
6AA8
6BA8
6A68
7B68
EAA8
37F0
3660
6060
ENDCHAR
STARTCHAR 5382
ENCODING 21378
SWIDTH 840 0
DWIDTH 14 0
BBX 14 14 0 -2
BITMAP
0000
3FFC
3000
3000
3000
3000
3000
3000
3000
3000
3000
6000
6000
C000
ENDCHAR
STARTCHAR 5384
ENCODING 21380
SWIDTH 840 0
DWIDTH 14 0
BBX 14 14 0 -2
BITMAP
0000
3FFC
3000
3000
37F0
3630
3630
3630
3630
36E0
3600
660C
660C
C3FC
ENDCHAR
STARTCHAR 5396
ENCODING 21398
SWIDTH 840 0
DWIDTH 14 0
BBX 14 14 0 -2
BITMAP
0000
3FFC
3730
36B0
36A8
3668
3FD0
3634
376C
3718
6D30
6D6C
DB0C
31FC
ENDCHAR
STARTCHAR 5398
ENCODING 21400
SWIDTH 840 0
DWIDTH 14 0
BBX 14 14 0 -2
BITMAP
0000
3FFC
3000
37F0
35B0
37F0
35B0
37F0
3180
37F0
3180
6180
7FFC
C000
ENDCHAR
STARTCHAR 539A
ENCODING 21402
SWIDTH 840 0
DWIDTH 14 0
BBX 14 14 0 -2
BITMAP
0000
3FFC
37F0
3630
37F0
3630
37F0
3000
37F0
3060
6FFC
60C0
C0C0
01C0
ENDCHAR
STARTCHAR 539F
ENCODING 21407
SWIDTH 840 0
DWIDTH 14 0
BBX 14 14 0 -2
BITMAP
0000
3FFC
3180
37F0
3630
37F0
3630
37F0
3180
36A0
66B0
6D98
D998
0380
ENDCHAR
STARTCHAR 53A0
ENCODING 21408
SWIDTH 840 0
DWIDTH 14 0
BBX 14 14 0 -2
BITMAP
0000
3FFC
3000
3798
35A8
37A8
35A8
37A8
35A8
35A8
37A8
6768
6D98
D9B8
ENDCHAR
STARTCHAR 53A5
ENCODING 21413
SWIDTH 840 0
DWIDTH 14 0
BBX 14 14 0 -2
BITMAP
0000
3FFC
39A0
35A0
3560
3FFC
36D4
3AB8
3AB0
3FB0
3AB0
6668
6CD8
D98C
ENDCHAR
STARTCHAR 53A6
ENCODING 21414
SWIDTH 840 0
DWIDTH 14 0
BBX 14 14 0 -2
BITMAP
0000
3FFC
37F8
3180
37F0
3630
37F0
37F0
3630
37F0
33F0
6F60
61E0
DF78
ENDCHAR
STARTCHAR 53A8
ENCODING 21416
SWIDTH 840 0
DWIDTH 14 0
BBX 14 14 0 -2
BITMAP
0000
3FFC
3018
3FD8
3018
3798
35FC
35D8
37A8
35A8
3698
6718
6798
DC38
ENDCHAR
STARTCHAR 53A9
ENCODING 21417
SWIDTH 840 0
DWIDTH 14 0
BBX 14 14 0 -2
BITMAP
0000
7FFC
6000
6F78
6B50
6F50
6B50
6FFC
6870
6A70
6B50
6B54
DDB4
731C
ENDCHAR
STARTCHAR 53AD
ENCODING 21421
SWIDTH 840 0
DWIDTH 14 0
BBX 14 14 0 -2
BITMAP
0000
7FFC
6000
6F68
6B6C
6F60
61FC
6F60
6B60
6F60
6B70
6F50
6B98
DB0C
ENDCHAR
STARTCHAR 53AE
ENCODING 21422
SWIDTH 840 0
DWIDTH 14 0
BBX 14 14 0 -2
BITMAP
0000
3FFC
3518
3530
3FE0
3540
377C
3550
3750
3550
3FD0
6D50
6DB0
D9B0
ENDCHAR
STARTCHAR 53B0
ENCODING 21424
SWIDTH 840 0
DWIDTH 14 0
BBX 14 14 0 -2
BITMAP
0000
3FFC
3660
3760
36A0
3AFC
3FD8
39A8
3FA8
3DB0
3DB0
6FA8
69D8
DB8C
ENDCHAR
STARTCHAR 53B3
ENCODING 21427
SWIDTH 840 0
DWIDTH 14 0
BBX 14 14 0 -2
BITMAP
1B18
0DB0
3FFC
3060
3FA0
3660
3FBC
3558
37A8
3770
6D30
7F70
C358
038C
ENDCHAR
STARTCHAR 53B6
ENCODING 21430
SWIDTH 840 0
DWIDTH 14 0
BBX 14 14 0 -2
BITMAP
0300
0300
0300
0300
0300
0600
0600
0600
0C60
0C30
1818
31F8
FF0C
000C
ENDCHAR
STARTCHAR 53BB
ENCODING 21435
SWIDTH 840 0
DWIDTH 14 0
BBX 14 14 0 -2
BITMAP
0300
0300
0300
3FF0
0300
0300
0300
FFFC
0600
06C0
0C60
19F0
7F18
0018
ENDCHAR
STARTCHAR 53C2
ENCODING 21442
SWIDTH 840 0
DWIDTH 14 0
BBX 14 14 0 -2
BITMAP
0600
0680
0CE0
7FB0
0600
FFFC
0DC0
1B60
36D0
E39C
1E60
00C0
0380
3E00
ENDCHAR
STARTCHAR 53C3
ENCODING 21443
SWIDTH 840 0
DWIDTH 14 0
BBX 14 14 0 -2
BITMAP
0300
06C0
3FF0
1830
3568
FEFC
0CC0
39B0
E71C
1CC0
03B0
1E60
01C0
3F00
ENDCHAR
STARTCHAR 53C8
ENCODING 21448
SWIDTH 840 0
DWIDTH 14 0
BBX 14 14 0 -2
BITMAP
0000
7FF0
1830
1830
1860
0C60
0CC0
06C0
0680
0300
0680
0CC0
3870
E01C
ENDCHAR
STARTCHAR 53C9
ENCODING 21449
SWIDTH 840 0
DWIDTH 14 0
BBX 14 14 0 -2
BITMAP
0000
7FF0
0630
1B30
1B60
0C60
0CC0
06C0
0380
0300
0680
0CC0
3870
E01C
ENDCHAR
STARTCHAR 53CA
ENCODING 21450
SWIDTH 840 0
DWIDTH 14 0
BBX 14 14 0 -2
BITMAP
0000
7FE0
0C60
0CC0
0CC0
0EF0
1A30
1B30
1B60
19A0
30C0
31A0
6730
DC1C
ENDCHAR
STARTCHAR 53CB
ENCODING 21451
SWIDTH 840 0
DWIDTH 14 0
BBX 14 14 0 -2
BITMAP
0600
0600
0600
FFFC
0600
0600
0FF0
0E30
0D60
1B40
1980
3340
6E70
D81C
ENDCHAR
STARTCHAR 53CC
ENCODING 21452
SWIDTH 840 0
DWIDTH 14 0
BBX 14 14 0 -2
BITMAP
0000
FFF8
0698
0698
6698
3698
1CD0
0CD0
0CE0
1A60
1AE0
31B0
6318
C60C
ENDCHAR
STARTCHAR 53CD
ENCODING 21453
SWIDTH 840 0
DWIDTH 14 0
BBX 14 14 0 -2
BITMAP
0000
3FF8
3000
3000
3FF0
3630
3630
3660
3360
3340
3180
6340
6E70
D81C
ENDCHAR
STARTCHAR 53CE
ENCODING 21454
SWIDTH 840 0
DWIDTH 14 0
BBX 14 14 0 -2
BITMAP
0C00
6DF8
6D98
6D98
6D98
6D98
6CD0
6CD0
6EE0
7C60
ECE0
0DB0
0F18
0C0C
ENDCHAR
STARTCHAR 53D4
ENCODING 21460
SWIDTH 840 0
DWIDTH 14 0
BBX 14 14 0 -2
BITMAP
1800
1BF8
1998
1F98
1998
18D0
FF50
18D0
1A60
6B60
6B50
69B0
DB18
3A0C
ENDCHAR
STARTCHAR 53D6
ENCODING 21462
SWIDTH 840 0
DWIDTH 14 0
BBX 14 14 0 -2
BITMAP
0000
FF00
37F8
3698
3E98
3698
36D8
3ED0
36D0
3660
3EE0
E6B0
0718
060C
ENDCHAR
STARTCHAR 53D7
ENCODING 21463
SWIDTH 840 0
DWIDTH 14 0
BBX 14 14 0 -2
BITMAP
0070
03D0
7E30
3660
1B40
FFFC
C00C
DFEC
0C60
06C0
0380
0380
0EE0
7838
ENDCHAR
STARTCHAR 53D9
ENCODING 21465
SWIDTH 840 0
DWIDTH 14 0
BBX 14 14 0 -2
BITMAP
1800
1BF8
3598
3698
6698
FED0
18D0
FF50
1860
6C60
6AD0
6AB0
DB18
3A0C
ENDCHAR
STARTCHAR 53DB
ENCODING 21467
SWIDTH 840 0
DWIDTH 14 0
BBX 14 14 0 -2
BITMAP
1800
1AFC
DA80
6D80
69F8
FE98
1998
19D8
1F50
FB70
3360
36D0
6698
CC0C
ENDCHAR
STARTCHAR 53DF
ENCODING 21471
SWIDTH 840 0
DWIDTH 14 0
BBX 14 14 0 -2
BITMAP
0D00
7B78
6318
7D78
6318
6318
7FF8
0300
7FF0
0C60
06C0
0380
0EE0
F83C
ENDCHAR
STARTCHAR 53E1
ENCODING 21473
SWIDTH 840 0
DWIDTH 14 0
BBX 14 14 0 -2
BITMAP
1E00
19F8
FF18
DD58
DAD8
6D50
D6D0
3F70
7660
DE70
36D0
3ED8
3698
3F0C
ENDCHAR
STARTCHAR 53E2
ENCODING 21474
SWIDTH 840 0
DWIDTH 14 0
BBX 14 14 0 -2
BITMAP
36B0
1AA0
FFFC
0CC0
7FF8
0300
3FF0
0300
FFFC
3600
3FF8
36B0
FEF0
079C
ENDCHAR
STARTCHAR 53E3
ENCODING 21475
SWIDTH 840 0
DWIDTH 14 0
BBX 14 14 0 -2
BITMAP
0000
0000
7FF0
6030
6030
6030
6030
6030
6030
6030
7FF0
0000
0000
0000
ENDCHAR
STARTCHAR 53E4
ENCODING 21476
SWIDTH 840 0
DWIDTH 14 0
BBX 14 14 0 -2
BITMAP
0300
0300
0300
FFFC
0300
0300
0300
3FF0
3030
3030
3030
3030
3FF0
0000
ENDCHAR
STARTCHAR 53E5
ENCODING 21477
SWIDTH 840 0
DWIDTH 14 0
BBX 14 14 0 -2
BITMAP
1800
1800
1800
3FF8
3018
6F98
D998
1998
1998
1998
1F98
0018
0018
0070
ENDCHAR
STARTCHAR 53E8
ENCODING 21480
SWIDTH 840 0
DWIDTH 14 0
BBX 14 14 0 -2
BITMAP
0000
0FF8
F998
D998
D998
D998
D998
D998
D998
D998
FB18
0318
0618
0C70
ENDCHAR
STARTCHAR 53E9
ENCODING 21481
SWIDTH 840 0
DWIDTH 14 0
BBX 14 14 0 -2
BITMAP
0000
01F8
FD98
CD98
CD98
CD98
CD98
CD98
CD98
FD98
01F0
0180
0180
0180
ENDCHAR
STARTCHAR 53EA
ENCODING 21482
SWIDTH 840 0
DWIDTH 14 0
BBX 14 14 0 -2
BITMAP
0000
3FF0
3030
3030
3030
3030
3030
3FF0
0000
0CC0
0C60
1830
3018
E018
ENDCHAR
STARTCHAR 53EB
ENCODING 21483
SWIDTH 840 0
DWIDTH 14 0
BBX 14 14 0 -2
BITMAP
0030
0030
FB30
DB30
DB30
DB30
DB30
DB30
DB3C
DBF0
FF30
0030
0030
0030
ENDCHAR
STARTCHAR 53EC
ENCODING 21484
SWIDTH 840 0
DWIDTH 14 0
BBX 14 14 0 -2
BITMAP
0000
FFF8
0618
0618
0C18
3818
E0F0
0000
3FF0
3030
3030
3030
3FF0
0000
ENDCHAR
STARTCHAR 53ED
ENCODING 21485
SWIDTH 840 0
DWIDTH 14 0
BBX 14 14 0 -2
BITMAP
03E0
0060
F860
D860
DB60
DB60
DB60
DB60
DB30
FB30
0630
0618
0C18
180C
ENDCHAR
STARTCHAR 53EE
ENCODING 21486
SWIDTH 840 0
DWIDTH 14 0
BBX 14 14 0 -2
BITMAP
0000
0FFC
F860
D860
D860
D860
D860
D860
D860
D860
F860
0060
0060
00E0
ENDCHAR
STARTCHAR 53EF
ENCODING 21487
SWIDTH 840 0
DWIDTH 14 0
BBX 14 14 0 -2
BITMAP
0000
FFFC
0030
0030
3F30
3330
3330
3330
3330
3F30
0030
0030
0030
0070
ENDCHAR
STARTCHAR 53F0
ENCODING 21488
SWIDTH 840 0
DWIDTH 14 0
BBX 14 14 0 -2
BITMAP
0300
0300
0600
0CC0
1870
FFD8
000C
0000
3FF0
3030
3030
3030
3FF0
0000
ENDCHAR
STARTCHAR 53F1
ENCODING 21489
SWIDTH 840 0
DWIDTH 14 0
BBX 14 14 0 -2
BITMAP
0180
0180
FD80
CD98
CD98
CDB0
CDA0
CDC0
CF80
CD80
FD80
018C
018C
00FC
ENDCHAR
STARTCHAR 53F2
ENCODING 21490
SWIDTH 840 0
DWIDTH 14 0
BBX 14 14 0 -2
BITMAP
0300
0300
0300
3FF0
3330
3330
3330
3FF0
3300
1A00
0E00
0F00
39C0
E07C
ENDCHAR
STARTCHAR 53F3
ENCODING 21491
SWIDTH 840 0
DWIDTH 14 0
BBX 14 14 0 -2
BITMAP
0600
0600
0600
FFFC
0C00
0C00
1800
1FF0
3830
3830
6830
D830
1FF0
0000
ENDCHAR
STARTCHAR 53F6
ENCODING 21494
SWIDTH 840 0
DWIDTH 14 0
BBX 14 14 0 -2
BITMAP
00C0
00C0
F8C0
D8C0
D8C0
DFFC
D8C0
D8C0
D8C0
D8C0
F8C0
00C0
00C0
00C0
ENDCHAR
STARTCHAR 53F7
ENCODING 21495
SWIDTH 840 0
DWIDTH 14 0
BBX 14 14 0 -2
BITMAP
0000
1FE0
1860
1860
1FE0
0000
FFFC
0C00
0FE0
1860
0060
0060
00C0
0380
ENDCHAR
STARTCHAR 53F8
ENCODING 21496
SWIDTH 840 0
DWIDTH 14 0
BBX 14 14 0 -2
BITMAP
0000
FFF8
0018
7FD8
0018
0018
3F98
3198
3198
3198
3F98
0018
0018
0070
ENDCHAR
STARTCHAR 53FA
ENCODING 21498
SWIDTH 840 0
DWIDTH 14 0
BBX 14 14 0 -2
BITMAP
03C0
00C0
F8C0
D8C0
D8C0
D8C0
D9C0
D9A0
D9A0
FB60
0330
0630
0C18
180C
ENDCHAR
STARTCHAR 5401
ENCODING 21505
SWIDTH 840 0
DWIDTH 14 0
BBX 14 14 0 -2
BITMAP
0000
07F8
F8C0
D8C0
D8C0
D8C0
DFFC
D8C0
D8C0
D8C0
F8C0
00C0
00C0
01C0
ENDCHAR
STARTCHAR 5403
ENCODING 21507
SWIDTH 840 0
DWIDTH 14 0
BBX 14 14 0 -2
BITMAP
0300
0300
0300
FBFC
DA00
DA00
DDF0
D860
D8C0
D980
FB00
060C
060C
03FC
ENDCHAR
STARTCHAR 5404
ENCODING 21508
SWIDTH 840 0
DWIDTH 14 0
BBX 14 14 0 -2
BITMAP
0600
0600
0FF0
1C60
36C0
6380
0740
1C70
FFEC
1860
1860
1860
1FE0
0000
ENDCHAR
STARTCHAR 5408
ENCODING 21512
SWIDTH 840 0
DWIDTH 14 0
BBX 14 14 0 -2
BITMAP
0300
0300
0680
0CC0
3870
EFEC
0000
0000
1FE0
1860
1860
1860
1FE0
0000
ENDCHAR
STARTCHAR 5409
ENCODING 21513
SWIDTH 840 0
DWIDTH 14 0
BBX 14 14 0 -2
BITMAP
0300
0300
0300
FFFC
0300
0300
7FF8
0000
3FF0
3030
3030
3030
3FF0
0000
ENDCHAR
STARTCHAR 540A
ENCODING 21514
SWIDTH 840 0
DWIDTH 14 0
BBX 14 14 0 -2
BITMAP
0000
3FF0
3030
3030
3FF0
0300
0300
7FF8
6318
6318
6318
6318
6370
0300
ENDCHAR
STARTCHAR 540B
ENCODING 21515
SWIDTH 840 0
DWIDTH 14 0
BBX 14 14 0 -2
BITMAP
0030
0030
F830
D830
DFFC
D830
DB30
D9B0
D9B0
D830
F830
0030
0030
0070
ENDCHAR
STARTCHAR 540C
ENCODING 21516
SWIDTH 840 0
DWIDTH 14 0
BBX 14 14 0 -2
BITMAP
0000
FFF8
C018
C018
DFE8
C018
DFD8
D8D8
D8D8
D8D8
DFD8
C018
C018
C038
ENDCHAR
STARTCHAR 540D
ENCODING 21517
SWIDTH 840 0
DWIDTH 14 0
BBX 14 14 0 -2
BITMAP
0600
0600
0FE0
0C60
1CC0
3680
6300
0600
0FF8
3C18
EC18
0C18
0C18
0FF8
ENDCHAR
STARTCHAR 540E
ENCODING 21518
SWIDTH 840 0
DWIDTH 14 0
BBX 14 14 0 -2
BITMAP
0078
3FC0
3000
3000
3FFC
3000
3000
37F0
3630
3630
6630
6630
C7F0
0000
ENDCHAR
STARTCHAR 540F
ENCODING 21519
SWIDTH 840 0
DWIDTH 14 0
BBX 14 14 0 -2
BITMAP
0300
0300
FFFC
0300
3FF0
3330
3330
3FF0
1B00
0D00
0600
0D80
38E0
E03C
ENDCHAR
STARTCHAR 5410
ENCODING 21520
SWIDTH 840 0
DWIDTH 14 0
BBX 14 14 0 -2
BITMAP
00C0
00C0
F8C0
D8C0
DBF8
D8C0
D8C0
D8C0
D8C0
F8C0
00C0
00C0
1FFC
0000
ENDCHAR
STARTCHAR 5411
ENCODING 21521
SWIDTH 840 0
DWIDTH 14 0
BBX 14 14 0 -2
BITMAP
0600
0600
0C00
FFF8
C018
C018
DFD8
D8D8
D8D8
D8D8
DFD8
C018
C018
C038
ENDCHAR
STARTCHAR 541B
ENCODING 21531
SWIDTH 840 0
DWIDTH 14 0
BBX 14 14 0 -2
BITMAP
0000
3FE0
0660
0660
FFFC
0660
0660
3FE0
0C00
1FF0
3430
6C30
CFF0
0000
ENDCHAR
STARTCHAR 541D
ENCODING 21533
SWIDTH 840 0
DWIDTH 14 0
BBX 14 14 0 -2
BITMAP
0300
0300
FFFC
0C60
06C0
0380
0EE0
F83C
1FE0
1860
1860
1860
1FE0
0000
ENDCHAR
STARTCHAR 541F
ENCODING 21535
SWIDTH 840 0
DWIDTH 14 0
BBX 14 14 0 -2
BITMAP
00C0
00C0
F9A0
D9A0
DB30
DBF8
DC0C
D800
DBF8
D818
F830
0030
0060
0060
ENDCHAR
STARTCHAR 5420
ENCODING 21536
SWIDTH 840 0
DWIDTH 14 0
BBX 14 14 0 -2
BITMAP
00C0
00D0
F8D8
D8D8
D8C0
DFFC
D8C0
D8C0
D8E0
D9A0
F9B0
0330
0E18
380C
ENDCHAR
STARTCHAR 5426
ENCODING 21542
SWIDTH 840 0
DWIDTH 14 0
BBX 14 14 0 -2
BITMAP
0000
FFFC
0300
07C0
0D70
3B18
E30C
0300
3FF0
3030
3030
3030
3FF0
0000
ENDCHAR
STARTCHAR 5429
ENCODING 21545
SWIDTH 840 0
DWIDTH 14 0
BBX 14 14 0 -2
BITMAP
00E0
0360
FB60
DB60
DA30
DA30
DFF8
D9B4
D9B0
D9B0
FB30
0330
0630
0CE0
ENDCHAR
STARTCHAR 542B
ENCODING 21547
SWIDTH 840 0
DWIDTH 14 0
BBX 14 14 0 -2
BITMAP
0300
0300
0680
0CC0
3FF0
E01C
3FE0
00C0
0180
3FF0
3030
3030
3FF0
0000
ENDCHAR
STARTCHAR 542C
ENCODING 21548
SWIDTH 840 0
DWIDTH 14 0
BBX 14 14 0 -2
BITMAP
0018
0070
FBC0
DB00
DB00
DBFC
DB60
DB60
DB60
DB60
FA60
0660
0C60
0060
ENDCHAR
STARTCHAR 542D
ENCODING 21549
SWIDTH 840 0
DWIDTH 14 0
BBX 14 14 0 -2
BITMAP
00C0
00C0
F8C0
DFFC
D800
DBE0
DB60
DB60
DB60
DB60
FB60
066C
066C
0C3C
ENDCHAR
STARTCHAR 542E
ENCODING 21550
SWIDTH 840 0
DWIDTH 14 0
BBX 14 14 0 -2
BITMAP
00C0
00C0
F9B0
D998
DB7C
DFEC
D9A0
D9A0
D9A0
D9A0
FB60
036C
066C
0C3C
ENDCHAR
STARTCHAR 5436
ENCODING 21558
SWIDTH 840 0
DWIDTH 14 0
BBX 14 14 0 -2
BITMAP
03C0
00C0
F8C0
DBF8
DAD8
DAD8
DAD8
DAA8
DAB8
DB38
FA18
0618
0618
0638
ENDCHAR
STARTCHAR 5438
ENCODING 21560
SWIDTH 840 0
DWIDTH 14 0
BBX 14 14 0 -2
BITMAP
0000
0FF0
FB30
DB60
DB60
DBF8
DB98
DB98
DAD0
FAD0
0660
0CD0
1B98
360C
ENDCHAR
STARTCHAR 5439
ENCODING 21561
SWIDTH 840 0
DWIDTH 14 0
BBX 14 14 0 -2
BITMAP
0300
0300
FB00
DB00
DBFC
DAD8
DAD0
DCC0
D8C0
F9A0
D9A0
C330
0E18
380C
ENDCHAR
STARTCHAR 543B
ENCODING 21563
SWIDTH 840 0
DWIDTH 14 0
BBX 14 14 0 -2
BITMAP
0300
0300
FB00
DBF8
DAA8
DAA8
DDA8
DB68
DB58
DAD8
FCD8
0198
0318
0070
ENDCHAR
STARTCHAR 543C
ENCODING 21564
SWIDTH 840 0
DWIDTH 14 0
BBX 14 14 0 -2
BITMAP
0060
0FE0
F8E0
D9A0
D9A0
DB60
DB60
DBA0
DF60
DB60
FB60
036C
036C
073C
ENDCHAR
STARTCHAR 543D
ENCODING 21565
SWIDTH 840 0
DWIDTH 14 0
BBX 14 14 0 -2
BITMAP
00C0
0340
FB40
DB40
DBF8
DAC0
DAC0
DCC0
DFFC
D8C0
F8C0
00C0
00C0
00C0
ENDCHAR
STARTCHAR 543E
ENCODING 21566
SWIDTH 840 0
DWIDTH 14 0
BBX 14 14 0 -2
BITMAP
0000
7FF8
0600
0600
3FE0
0C60
0C60
FFFC
0000
3FF0
3030
3030
3FF0
0000
ENDCHAR
STARTCHAR 5440
ENCODING 21568
SWIDTH 840 0
DWIDTH 14 0
BBX 14 14 0 -2
BITMAP
0000
07F8
F860
DA60
DA60
DA60
DBFC
D8E0
D9A0
D9A0
FB60
0660
0C60
00E0
ENDCHAR
STARTCHAR 5442
ENCODING 21570
SWIDTH 840 0
DWIDTH 14 0
BBX 14 14 0 -2
BITMAP
0000
1FE0
1860
1860
1860
1FE0
0300
0600
3FF0
3030
3030
3030
3FF0
0000
ENDCHAR
STARTCHAR 5446
ENCODING 21574
SWIDTH 840 0
DWIDTH 14 0
BBX 14 14 0 -2
BITMAP
0000
3FF0
3030
3030
3FF0
0300
0300
FFFC
0780
0D40
3B70
E31C
0300
0300
ENDCHAR
STARTCHAR 5448
ENCODING 21576
SWIDTH 840 0
DWIDTH 14 0
BBX 14 14 0 -2
BITMAP
0000
1FE0
1860
1860
1FE0
0000
7FF8
0300
0300
3FF0
0300
0300
FFFC
0000
ENDCHAR
STARTCHAR 5449
ENCODING 21577
SWIDTH 840 0
DWIDTH 14 0
BBX 14 14 0 -2
BITMAP
0000
07F0
3630
3630
37F0
3000
3FF0
0030
0030
FFFC
0000
0CE0
3830
E018
ENDCHAR
STARTCHAR 544A
ENCODING 21578
SWIDTH 840 0
DWIDTH 14 0
BBX 14 14 0 -2
BITMAP
0300
1B00
1B00
3FF0
3300
6300
FFFC
0000
0000
1FE0
1860
1860
1FE0
0000
ENDCHAR
STARTCHAR 544E
ENCODING 21582
SWIDTH 840 0
DWIDTH 14 0
BBX 14 14 0 -2
BITMAP
0000
03F8
FB18
DB18
DB18
DB18
DBF8
DB80
DB40
FAC0
0660
0C30
1818
300C
ENDCHAR
STARTCHAR 5451
ENCODING 21585
SWIDTH 840 0
DWIDTH 14 0
BBX 14 14 0 -2
BITMAP
0070
3FC0
0300
0300
FFFC
0680
0CC0
3870
EFEC
1860
1860
1860
1FE0
0000
ENDCHAR
STARTCHAR 545F
ENCODING 21599
SWIDTH 840 0
DWIDTH 14 0
BBX 14 14 0 -2
BITMAP
00C0
00C0
F8C0
DFFC
D8C0
D8D0
DAB0
DBB0
D9A0
D8E0
F8D0
0198
037C
0FCC
ENDCHAR
STARTCHAR 5468
ENCODING 21608
SWIDTH 840 0
DWIDTH 14 0
BBX 14 14 0 -2
BITMAP
0000
7FF8
6618
6618
6FD8
6618
7FE8
6018
6FD8
68D8
68D8
DFD8
C018
8038
ENDCHAR
STARTCHAR 546A
ENCODING 21610
SWIDTH 840 0
DWIDTH 14 0
BBX 14 14 0 -2
BITMAP
0000
07F8
FA18
DA18
DA18
DBF8
D9A0
D9A0
D9A0
FB60
0360
066C
0C6C
383C
ENDCHAR
STARTCHAR 5470
ENCODING 21616
SWIDTH 840 0
DWIDTH 14 0
BBX 14 14 0 -2
BITMAP
1980
1998
69B0
6FE0
6980
698C
6E8C
78FC
E000
1FE0
1860
1860
1FE0
0000
ENDCHAR
STARTCHAR 5471
ENCODING 21617
SWIDTH 840 0
DWIDTH 14 0
BBX 14 14 0 -2
BITMAP
0018
0070
FBE0
DAA0
DAA0
DAA0
DAA0
DAA0
DAA0
DAB0
FAD0
0DA8
0FF8
1834
ENDCHAR
STARTCHAR 5473
ENCODING 21619
SWIDTH 840 0
DWIDTH 14 0
BBX 14 14 0 -2
BITMAP
00C0
00C0
FBF8
D8C0
D8C0
DFFC
D9E0
D9E0
DB50
DAD8
FCCC
00C0
00C0
00C0
ENDCHAR
STARTCHAR 5475
ENCODING 21621
SWIDTH 840 0
DWIDTH 14 0
BBX 14 14 0 -2
BITMAP
0000
0FFC
F818
D818
DBD8
DAD8
DAD8
DAD8
DAD8
DBD8
F818
0018
0018
0038
ENDCHAR
STARTCHAR 5476
ENCODING 21622
SWIDTH 840 0
DWIDTH 14 0
BBX 14 14 0 -2
BITMAP
0600
0600
F6F8
D6D8
DFD8
D558
D558
D570
DD70
D730
D6B0
F6A8
0CD8
198C
ENDCHAR
STARTCHAR 5477
ENCODING 21623
SWIDTH 840 0
DWIDTH 14 0
BBX 14 14 0 -2
BITMAP
0000
07F8
FAD8
DAD8
DAD8
DBF8
DAD8
DAD8
DAD8
FBF8
00C0
00C0
00C0
00C0
ENDCHAR
STARTCHAR 547B
ENCODING 21627
SWIDTH 840 0
DWIDTH 14 0
BBX 14 14 0 -2
BITMAP
00C0
00C0
FBF8
DAD8
DAD8
DBF8
DAD8
DAD8
DBF8
D8C0
F8C0
00C0
00C0
00C0
ENDCHAR
STARTCHAR 547C
ENCODING 21628
SWIDTH 840 0
DWIDTH 14 0
BBX 14 14 0 -2
BITMAP
0038
07E0
F8D8
DAD8
DB50
DB60
D8C0
DFFC
D8C0
D8C0
F8C0
00C0
00C0
01C0
ENDCHAR
STARTCHAR 547D
ENCODING 21629
SWIDTH 840 0
DWIDTH 14 0
BBX 14 14 0 -2
BITMAP
0300
0680
0CC0
3870
EFEC
0000
7DF8
6D98
6D98
6D98
6D98
7DF0
0180
0180
ENDCHAR
STARTCHAR 5480
ENCODING 21632
SWIDTH 840 0
DWIDTH 14 0
BBX 14 14 0 -2
BITMAP
0000
03F0
FB30
DB30
DB30
DBF0
DB30
DB30
DBF0
DB30
FB30
0330
0FFC
0000
ENDCHAR
STARTCHAR 5484
ENCODING 21636
SWIDTH 840 0
DWIDTH 14 0
BBX 14 14 0 -2
BITMAP
00C0
06D8
FAD8
DAD8
DAD8
DBF8
D8C0
D8C0
DAD8
DAD8
FAD8
06D8
07F8
0000
ENDCHAR
STARTCHAR 5486
ENCODING 21638
SWIDTH 840 0
DWIDTH 14 0
BBX 14 14 0 -2
BITMAP
0300
0300
FBF8
DA18
DA18
DDE8
DB68
DB68
DBE8
DB70
FB00
030C
030C
01FC
ENDCHAR
STARTCHAR 548B
ENCODING 21643
SWIDTH 840 0
DWIDTH 14 0
BBX 14 14 0 -2
BITMAP
0300
0300
FB00
DBFC
DA80
DD80
D9F8
D980
D980
D9F8
F980
0180
0180
0180
ENDCHAR
STARTCHAR 548C
ENCODING 21644
SWIDTH 840 0
DWIDTH 14 0
BBX 14 14 0 -2
BITMAP
0600
0C00
79F8
1998
1998
FF98
1998
3D98
3A98
6A98
D998
19F8
1800
1800
ENDCHAR
STARTCHAR 548E
ENCODING 21646
SWIDTH 840 0
DWIDTH 14 0
BBX 14 14 0 -2
BITMAP
1860
1860
3E60
36E0
74D0
DD98
1D18
37FC
E000
1FE0
1860
1860
1FE0
0000
ENDCHAR
STARTCHAR 548F
ENCODING 21647
SWIDTH 840 0
DWIDTH 14 0
BBX 14 14 0 -2
BITMAP
00C0
0060
F860
DBC0
D8CC
D8EC
DFE8
D9F0
D9E0
DB50
FB50
06D8
0CCC
01C0
ENDCHAR
STARTCHAR 5490
ENCODING 21648
SWIDTH 840 0
DWIDTH 14 0
BBX 14 14 0 -2
BITMAP
0198
0198
F998
DB18
DBFC
DB18
DD58
DB68
DB68
DB18
FB18
0318
0318
0338
ENDCHAR
STARTCHAR 5492
ENCODING 21650
SWIDTH 840 0
DWIDTH 14 0
BBX 14 14 0 -2
BITMAP
0000
7EF8
6698
6698
7EF8
0000
0000
0FC0
0CC0
0CC0
0CC0
18CC
30CC
607C
ENDCHAR
STARTCHAR 54A2
ENCODING 21666
SWIDTH 840 0
DWIDTH 14 0
BBX 14 14 0 -2
BITMAP
0000
7EF8
6698
7EF8
0000
3FF0
0000
FFFC
0C00
0FE0
1860
0060
00C0
0780
ENDCHAR
STARTCHAR 54A4
ENCODING 21668
SWIDTH 840 0
DWIDTH 14 0
BBX 14 14 0 -2
BITMAP
00C0
00C0
FBFC
DA0C
DA74
DBC0
D8C0
D8FC
DFC0
D8C0
D8C0
F8CC
00CC
007C
ENDCHAR
STARTCHAR 54A5
ENCODING 21669
SWIDTH 840 0
DWIDTH 14 0
BBX 14 14 0 -2
BITMAP
0000
0FFC
F9B0
D998
DB7C
DFCC
D8C0
D8C0
DBF8
D8C0
F8C0
00C0
1FFC
0000
ENDCHAR
STARTCHAR 54A8
ENCODING 21672
SWIDTH 840 0
DWIDTH 14 0
BBX 14 14 0 -2
BITMAP
0300
0300
FBFC
06CC
0CD8
01B0
3B30
E618
1FEC
1860
1860
1860
1FE0
0000
ENDCHAR
STARTCHAR 54AB
ENCODING 21675
SWIDTH 840 0
DWIDTH 14 0
BBX 14 14 0 -2
BITMAP
0000
3EF8
3698
3698
3698
3698
3EF8
38E0
38D0
3598
3518
6600
6380
C0FC
ENDCHAR
STARTCHAR 54AC
ENCODING 21676
SWIDTH 840 0
DWIDTH 14 0
BBX 14 14 0 -2
BITMAP
00C0
00C0
FFFC
DB30
DB18
DB34
DDB4
D9B0
D8E0
D8E0
F8E0
01B0
0718
1C0C
ENDCHAR
STARTCHAR 54AF
ENCODING 21679
SWIDTH 840 0
DWIDTH 14 0
BBX 14 14 0 -2
BITMAP
0180
0180
FBF0
DB30
DB60
DDA0
D8E0
DBB8
DFF4
DB30
FB30
0330
03F0
0000
ENDCHAR
STARTCHAR 54B2
ENCODING 21682
SWIDTH 840 0
DWIDTH 14 0
BBX 14 14 0 -2
BITMAP
0630
0330
FB60
DBF8
D8C0
D8C0
D8C0
DFFC
D8C0
D9A0
F9A0
0330
0E18
380C
ENDCHAR
STARTCHAR 54B3
ENCODING 21683
SWIDTH 840 0
DWIDTH 14 0
BBX 14 14 0 -2
BITMAP
00C0
00C0
FFFC
D8C0
DAD8
DBB0
D9A0
D8D8
D9B0
DB60
F8E0
01B0
0718
1C0C
ENDCHAR
STARTCHAR 54B8
ENCODING 21688
SWIDTH 840 0
DWIDTH 14 0
BBX 14 14 0 -2
BITMAP
00D0
00D8
00D8
3FFC
30C0
37D8
3068
37A8
35B0
35B0
35B4
6FAC
60DC
C18C
ENDCHAR
STARTCHAR 54BC
ENCODING 21692
SWIDTH 840 0
DWIDTH 14 0
BBX 14 14 0 -2
BITMAP
0000
1FE0
1860
1BE0
1B60
1B60
7FF8
6018
6FD8
6CD8
6CD8
6FD8
6018
6038
ENDCHAR
STARTCHAR 54BD
ENCODING 21693
SWIDTH 840 0
DWIDTH 14 0
BBX 14 14 0 -2
BITMAP
0000
07F8
FAD8
DAD8
DAD8
DBF8
DAD8
DAD8
DAA8
DAB8
FB38
0618
07F8
0000
ENDCHAR
STARTCHAR 54BE
ENCODING 21694
SWIDTH 840 0
DWIDTH 14 0
BBX 14 14 0 -2
BITMAP
00C0
00C0
FBF8
D8D8
D8D0
DFFC
D8C0
D998
DBB0
DEE0
D980
F998
0198
00F8
ENDCHAR
STARTCHAR 54C0
ENCODING 21696
SWIDTH 840 0
DWIDTH 14 0
BBX 14 14 0 -2
BITMAP
0300
0300
FFFC
0000
1FE0
1860
1860
1FE8
0718
1DB0
F5A0
0CC0
0F70
781C
ENDCHAR
STARTCHAR 54C1
ENCODING 21697
SWIDTH 840 0
DWIDTH 14 0
BBX 14 14 0 -2
BITMAP
0000
1FC0
18C0
18C0
18C0
1FC0
0000
0000
FDF8
CD98
CD98
CD98
FDF8
0000
ENDCHAR
STARTCHAR 54C2
ENCODING 21698
SWIDTH 840 0
DWIDTH 14 0
BBX 14 14 0 -2
BITMAP
0000
0FFC
F9A0
D9A0
DBF8
DAA8
DAA8
DAA8
DB78
DB78
FA18
0618
07F8
0000
ENDCHAR
STARTCHAR 54C4
ENCODING 21700
SWIDTH 840 0
DWIDTH 14 0
BBX 14 14 0 -2
BITMAP
0360
0360
FB60
DB60
DFF8
DB60
DB60
DB60
DB60
DFFC
FB60
0330
0618
0C18
ENDCHAR
STARTCHAR 54C7
ENCODING 21703
SWIDTH 840 0
DWIDTH 14 0
BBX 14 14 0 -2
BITMAP
00C0
00C0
FBF8
D8C0
D8C0
DFFC
D8C0
D8C0
DBF8
D8C0
F8C0
00C0
1FFC
0000
ENDCHAR
STARTCHAR 54C8
ENCODING 21704
SWIDTH 840 0
DWIDTH 14 0
BBX 14 14 0 -2
BITMAP
00C0
00C0
F9A0
D9A0
DB30
DBF8
DC0C
D800
DBF0
DB30
FB30
0330
03F0
0000
ENDCHAR
STARTCHAR 54C9
ENCODING 21705
SWIDTH 840 0
DWIDTH 14 0
BBX 14 14 0 -2
BITMAP
1980
19B0
7F98
1998
1980
FFFC
00D8
7ED8
66D0
6670
6660
7ED4
019C
000C
ENDCHAR
STARTCHAR 54D8
ENCODING 21720
SWIDTH 840 0
DWIDTH 14 0
BBX 14 14 0 -2
BITMAP
0300
0378
FA00
DC00
D980
D9FC
DB30
DB30
DD30
DB30
FB30
0330
0330
0370
ENDCHAR
STARTCHAR 54E1
ENCODING 21729
SWIDTH 840 0
DWIDTH 14 0
BBX 14 14 0 -2
BITMAP
0000
1FE0
1860
1FE0
0000
3FF0
3030
3FF0
3030
3FF0
3030
3FF0
0EE0
7838
ENDCHAR
STARTCHAR 54E2
ENCODING 21730
SWIDTH 840 0
DWIDTH 14 0
BBX 14 14 0 -2
BITMAP
0000
07F8
F8C0
DBF0
D8C0
D8C0
DFFC
DB30
DB30
DFFC
FB30
0330
0630
0C30
ENDCHAR
STARTCHAR 54E5
ENCODING 21733
SWIDTH 840 0
DWIDTH 14 0
BBX 14 14 0 -2
BITMAP
0000
7FF8
0060
3F60
3360
3F60
0060
FFFC
0060
3F60
3360
3F60
0060
00E0
ENDCHAR
STARTCHAR 54E6
ENCODING 21734
SWIDTH 840 0
DWIDTH 14 0
BBX 14 14 0 -2
BITMAP
01A0
0368
FF6C
DB6C
DB60
DFFC
DB68
DB68
DBB0
DF30
FB74
035C
039C
070C
ENDCHAR
STARTCHAR 54E8
ENCODING 21736
SWIDTH 840 0
DWIDTH 14 0
BBX 14 14 0 -2
BITMAP
00C0
0350
FB58
DACC
DCCC
DBF8
DA18
DBF8
DA18
DBF8
FA18
0618
0618
0638
ENDCHAR
ENDFONT
